<mxfile host="app.diagrams.net" modified="2023-11-15T07:08:03.404Z" agent="Mozilla/5.0 (Windows NT 10.0; Win64; x64) AppleWebKit/537.36 (KHTML, like Gecko) Chrome/119.0.0.0 Safari/537.36 Edg/119.0.0.0" etag="BXBVSzN70S4_WAq2ElUy" version="22.1.0" type="github" pages="3">
  <diagram name="Page-1" id="RnbOs2od9LWyhHd0b_NQ">
    <mxGraphModel dx="1973" dy="609" grid="1" gridSize="10" guides="1" tooltips="1" connect="1" arrows="1" fold="1" page="1" pageScale="1" pageWidth="850" pageHeight="1100" math="0" shadow="0">
      <root>
        <mxCell id="0" />
        <mxCell id="1" parent="0" />
        <mxCell id="MsqOn4zYzABH56GJ3uZA-58" value="NO" style="text;strokeColor=none;align=center;fillColor=none;html=1;verticalAlign=middle;whiteSpace=wrap;rounded=0;fontSize=9;" parent="1" vertex="1">
          <mxGeometry x="-860" y="644.75" width="60" height="30" as="geometry" />
        </mxCell>
        <mxCell id="gWx_gt3MSwIJaAfkZpsO-1" value="" style="ellipse;whiteSpace=wrap;html=1;shadow=0;" parent="1" vertex="1">
          <mxGeometry x="-42.5" y="20" width="85" height="40" as="geometry" />
        </mxCell>
        <mxCell id="gWx_gt3MSwIJaAfkZpsO-2" value="" style="rounded=0;whiteSpace=wrap;html=1;shadow=0;" parent="1" vertex="1">
          <mxGeometry x="-59" y="78" width="120" height="40" as="geometry" />
        </mxCell>
        <mxCell id="MsqOn4zYzABH56GJ3uZA-190" value="" style="rounded=0;whiteSpace=wrap;html=1;shadow=0;" parent="1" vertex="1">
          <mxGeometry x="-61.53999999999995" y="418" width="120" height="40" as="geometry" />
        </mxCell>
        <mxCell id="MsqOn4zYzABH56GJ3uZA-191" value="" style="rounded=0;whiteSpace=wrap;html=1;" parent="1" vertex="1">
          <mxGeometry x="-41.53999999999995" y="856" width="80" height="40" as="geometry" />
        </mxCell>
        <mxCell id="MsqOn4zYzABH56GJ3uZA-192" value="Peminjaman DRM" style="text;strokeColor=none;align=center;fillColor=none;html=1;verticalAlign=middle;whiteSpace=wrap;rounded=0;" parent="1" vertex="1">
          <mxGeometry x="-46.53999999999995" y="418" width="90" height="40" as="geometry" />
        </mxCell>
        <mxCell id="MsqOn4zYzABH56GJ3uZA-193" style="edgeStyle=none;rounded=0;orthogonalLoop=1;jettySize=auto;html=1;exitX=0.5;exitY=1;exitDx=0;exitDy=0;entryX=0.5;entryY=0;entryDx=0;entryDy=0;" parent="1" source="MsqOn4zYzABH56GJ3uZA-194" target="MsqOn4zYzABH56GJ3uZA-195" edge="1">
          <mxGeometry relative="1" as="geometry" />
        </mxCell>
        <mxCell id="MsqOn4zYzABH56GJ3uZA-194" value="" style="rhombus;whiteSpace=wrap;html=1;" parent="1" vertex="1">
          <mxGeometry x="-41.53999999999995" y="478" width="80" height="40" as="geometry" />
        </mxCell>
        <mxCell id="MsqOn4zYzABH56GJ3uZA-195" value="" style="rounded=0;whiteSpace=wrap;html=1;" parent="1" vertex="1">
          <mxGeometry x="-41.53999999999995" y="538" width="80" height="40" as="geometry" />
        </mxCell>
        <mxCell id="MsqOn4zYzABH56GJ3uZA-196" value="" style="rounded=0;whiteSpace=wrap;html=1;" parent="1" vertex="1">
          <mxGeometry x="58.46000000000005" y="538" width="80" height="40" as="geometry" />
        </mxCell>
        <mxCell id="MsqOn4zYzABH56GJ3uZA-197" value="" style="rounded=0;whiteSpace=wrap;html=1;" parent="1" vertex="1">
          <mxGeometry x="-141.53999999999994" y="538" width="80" height="40" as="geometry" />
        </mxCell>
        <mxCell id="MsqOn4zYzABH56GJ3uZA-198" value="" style="rounded=0;whiteSpace=wrap;html=1;" parent="1" vertex="1">
          <mxGeometry x="-41.53999999999995" y="598" width="80" height="20" as="geometry" />
        </mxCell>
        <mxCell id="MsqOn4zYzABH56GJ3uZA-199" value="" style="rounded=0;whiteSpace=wrap;html=1;" parent="1" vertex="1">
          <mxGeometry x="-141.53999999999994" y="598" width="80" height="20" as="geometry" />
        </mxCell>
        <mxCell id="MsqOn4zYzABH56GJ3uZA-200" value="" style="rhombus;whiteSpace=wrap;html=1;" parent="1" vertex="1">
          <mxGeometry x="-151.53999999999994" y="633" width="100" height="75" as="geometry" />
        </mxCell>
        <mxCell id="MsqOn4zYzABH56GJ3uZA-201" value="Tambah Data" style="text;strokeColor=none;align=center;fillColor=none;html=1;verticalAlign=middle;whiteSpace=wrap;rounded=0;" parent="1" vertex="1">
          <mxGeometry x="-131.53999999999994" y="543" width="60" height="30" as="geometry" />
        </mxCell>
        <mxCell id="MsqOn4zYzABH56GJ3uZA-202" value="Edit Data" style="text;strokeColor=none;align=center;fillColor=none;html=1;verticalAlign=middle;whiteSpace=wrap;rounded=0;" parent="1" vertex="1">
          <mxGeometry x="-31.539999999999946" y="543" width="60" height="30" as="geometry" />
        </mxCell>
        <mxCell id="MsqOn4zYzABH56GJ3uZA-203" value="Hapus Data" style="text;strokeColor=none;align=center;fillColor=none;html=1;verticalAlign=middle;whiteSpace=wrap;rounded=0;" parent="1" vertex="1">
          <mxGeometry x="68.46000000000005" y="543" width="60" height="30" as="geometry" />
        </mxCell>
        <mxCell id="MsqOn4zYzABH56GJ3uZA-204" value="Simpan" style="text;strokeColor=none;align=center;fillColor=none;html=1;verticalAlign=middle;whiteSpace=wrap;rounded=0;" parent="1" vertex="1">
          <mxGeometry x="-131.53999999999994" y="598" width="60" height="20" as="geometry" />
        </mxCell>
        <mxCell id="MsqOn4zYzABH56GJ3uZA-205" value="Simpan" style="text;strokeColor=none;align=center;fillColor=none;html=1;verticalAlign=middle;whiteSpace=wrap;rounded=0;" parent="1" vertex="1">
          <mxGeometry x="-31.539999999999946" y="598" width="60" height="20" as="geometry" />
        </mxCell>
        <mxCell id="MsqOn4zYzABH56GJ3uZA-206" value="Data Sudah ada / Data Masih Kosong&amp;nbsp;" style="text;strokeColor=none;align=center;fillColor=none;html=1;verticalAlign=middle;whiteSpace=wrap;rounded=0;fontSize=9;" parent="1" vertex="1">
          <mxGeometry x="-141.53999999999994" y="658" width="80" height="40" as="geometry" />
        </mxCell>
        <mxCell id="MsqOn4zYzABH56GJ3uZA-207" value="" style="endArrow=none;html=1;rounded=0;entryX=1;entryY=0.5;entryDx=0;entryDy=0;" parent="1" target="MsqOn4zYzABH56GJ3uZA-194" edge="1">
          <mxGeometry width="50" height="50" relative="1" as="geometry">
            <mxPoint x="98.46000000000005" y="498" as="sourcePoint" />
            <mxPoint x="128.46000000000006" y="508" as="targetPoint" />
          </mxGeometry>
        </mxCell>
        <mxCell id="MsqOn4zYzABH56GJ3uZA-208" value="" style="endArrow=none;html=1;rounded=0;" parent="1" edge="1">
          <mxGeometry width="50" height="50" relative="1" as="geometry">
            <mxPoint x="-101.53999999999995" y="498" as="sourcePoint" />
            <mxPoint x="-41.53999999999995" y="498" as="targetPoint" />
          </mxGeometry>
        </mxCell>
        <mxCell id="MsqOn4zYzABH56GJ3uZA-209" value="" style="endArrow=classic;html=1;rounded=0;entryX=0.5;entryY=0;entryDx=0;entryDy=0;" parent="1" target="MsqOn4zYzABH56GJ3uZA-197" edge="1">
          <mxGeometry width="50" height="50" relative="1" as="geometry">
            <mxPoint x="-101.53999999999995" y="498" as="sourcePoint" />
            <mxPoint x="-131.53999999999994" y="518" as="targetPoint" />
          </mxGeometry>
        </mxCell>
        <mxCell id="MsqOn4zYzABH56GJ3uZA-210" value="" style="endArrow=classic;html=1;rounded=0;entryX=0.5;entryY=0;entryDx=0;entryDy=0;" parent="1" target="MsqOn4zYzABH56GJ3uZA-196" edge="1">
          <mxGeometry width="50" height="50" relative="1" as="geometry">
            <mxPoint x="98.46000000000005" y="498" as="sourcePoint" />
            <mxPoint x="108.46000000000005" y="508" as="targetPoint" />
          </mxGeometry>
        </mxCell>
        <mxCell id="MsqOn4zYzABH56GJ3uZA-211" value="" style="endArrow=classic;html=1;rounded=0;exitX=0.5;exitY=1;exitDx=0;exitDy=0;" parent="1" source="MsqOn4zYzABH56GJ3uZA-195" edge="1">
          <mxGeometry width="50" height="50" relative="1" as="geometry">
            <mxPoint x="-41.53999999999995" y="638" as="sourcePoint" />
            <mxPoint x="-1.5399999999999459" y="598" as="targetPoint" />
          </mxGeometry>
        </mxCell>
        <mxCell id="MsqOn4zYzABH56GJ3uZA-212" value="" style="endArrow=classic;html=1;rounded=0;exitX=0.5;exitY=1;exitDx=0;exitDy=0;" parent="1" source="MsqOn4zYzABH56GJ3uZA-197" edge="1">
          <mxGeometry width="50" height="50" relative="1" as="geometry">
            <mxPoint x="-131.53999999999994" y="628" as="sourcePoint" />
            <mxPoint x="-101.53999999999995" y="598" as="targetPoint" />
          </mxGeometry>
        </mxCell>
        <mxCell id="MsqOn4zYzABH56GJ3uZA-213" value="" style="endArrow=classic;html=1;rounded=0;entryX=0.5;entryY=0;entryDx=0;entryDy=0;exitX=0.5;exitY=1;exitDx=0;exitDy=0;" parent="1" source="MsqOn4zYzABH56GJ3uZA-204" target="MsqOn4zYzABH56GJ3uZA-200" edge="1">
          <mxGeometry width="50" height="50" relative="1" as="geometry">
            <mxPoint x="-181.53999999999994" y="678" as="sourcePoint" />
            <mxPoint x="-131.53999999999994" y="628" as="targetPoint" />
          </mxGeometry>
        </mxCell>
        <mxCell id="MsqOn4zYzABH56GJ3uZA-214" value="" style="endArrow=classic;html=1;rounded=0;entryX=0;entryY=0;entryDx=42.5;entryDy=0;entryPerimeter=0;exitX=0.5;exitY=1;exitDx=0;exitDy=0;" parent="1" source="MsqOn4zYzABH56GJ3uZA-205" target="MsqOn4zYzABH56GJ3uZA-215" edge="1">
          <mxGeometry width="50" height="50" relative="1" as="geometry">
            <mxPoint x="-51.53999999999995" y="688" as="sourcePoint" />
            <mxPoint x="-1.5399999999999459" y="638" as="targetPoint" />
          </mxGeometry>
        </mxCell>
        <mxCell id="MsqOn4zYzABH56GJ3uZA-215" value="" style="shape=display;whiteSpace=wrap;html=1;" parent="1" vertex="1">
          <mxGeometry x="-43.53999999999995" y="655.5" width="80" height="30" as="geometry" />
        </mxCell>
        <mxCell id="MsqOn4zYzABH56GJ3uZA-216" value="Data Tersimpan" style="text;strokeColor=none;align=center;fillColor=none;html=1;verticalAlign=middle;whiteSpace=wrap;rounded=0;fontSize=9;" parent="1" vertex="1">
          <mxGeometry x="-41.53999999999995" y="664.25" width="80" height="12.5" as="geometry" />
        </mxCell>
        <mxCell id="MsqOn4zYzABH56GJ3uZA-217" value="" style="endArrow=classic;html=1;rounded=0;entryX=0;entryY=0;entryDx=42.5;entryDy=0;entryPerimeter=0;exitX=0.5;exitY=1;exitDx=0;exitDy=0;" parent="1" source="MsqOn4zYzABH56GJ3uZA-200" target="MsqOn4zYzABH56GJ3uZA-218" edge="1">
          <mxGeometry width="50" height="50" relative="1" as="geometry">
            <mxPoint x="-151.53999999999994" y="838" as="sourcePoint" />
            <mxPoint x="-101.53999999999995" y="788" as="targetPoint" />
          </mxGeometry>
        </mxCell>
        <mxCell id="MsqOn4zYzABH56GJ3uZA-218" value="" style="shape=display;whiteSpace=wrap;html=1;" parent="1" vertex="1">
          <mxGeometry x="-143.53999999999994" y="723" width="80" height="30" as="geometry" />
        </mxCell>
        <mxCell id="MsqOn4zYzABH56GJ3uZA-219" value="Data Tersimpan" style="text;strokeColor=none;align=center;fillColor=none;html=1;verticalAlign=middle;whiteSpace=wrap;rounded=0;fontSize=9;" parent="1" vertex="1">
          <mxGeometry x="-141.53999999999994" y="730.75" width="80" height="12.5" as="geometry" />
        </mxCell>
        <mxCell id="MsqOn4zYzABH56GJ3uZA-220" value="" style="endArrow=classic;html=1;rounded=0;entryX=0.5;entryY=0;entryDx=0;entryDy=0;exitX=0;exitY=0;exitDx=42.5;exitDy=30;exitPerimeter=0;" parent="1" source="MsqOn4zYzABH56GJ3uZA-215" target="MsqOn4zYzABH56GJ3uZA-225" edge="1">
          <mxGeometry width="50" height="50" relative="1" as="geometry">
            <mxPoint x="18.460000000000054" y="748" as="sourcePoint" />
            <mxPoint x="68.46000000000005" y="698" as="targetPoint" />
          </mxGeometry>
        </mxCell>
        <mxCell id="MsqOn4zYzABH56GJ3uZA-221" value="" style="endArrow=none;html=1;rounded=0;entryX=0;entryY=0;entryDx=42.5;entryDy=30;entryPerimeter=0;" parent="1" target="MsqOn4zYzABH56GJ3uZA-218" edge="1">
          <mxGeometry width="50" height="50" relative="1" as="geometry">
            <mxPoint x="-101.53999999999995" y="778" as="sourcePoint" />
            <mxPoint x="-101.53999999999995" y="758" as="targetPoint" />
          </mxGeometry>
        </mxCell>
        <mxCell id="MsqOn4zYzABH56GJ3uZA-222" value="" style="endArrow=none;html=1;rounded=0;" parent="1" edge="1">
          <mxGeometry width="50" height="50" relative="1" as="geometry">
            <mxPoint x="-101.53999999999995" y="778" as="sourcePoint" />
            <mxPoint x="-1.5399999999999459" y="778" as="targetPoint" />
          </mxGeometry>
        </mxCell>
        <mxCell id="MsqOn4zYzABH56GJ3uZA-223" value="" style="endArrow=none;html=1;rounded=0;entryX=0.5;entryY=1;entryDx=0;entryDy=0;" parent="1" target="MsqOn4zYzABH56GJ3uZA-196" edge="1">
          <mxGeometry width="50" height="50" relative="1" as="geometry">
            <mxPoint x="98.46000000000005" y="778" as="sourcePoint" />
            <mxPoint x="108.46000000000005" y="658" as="targetPoint" />
          </mxGeometry>
        </mxCell>
        <mxCell id="MsqOn4zYzABH56GJ3uZA-224" value="" style="endArrow=none;html=1;rounded=0;" parent="1" edge="1">
          <mxGeometry width="50" height="50" relative="1" as="geometry">
            <mxPoint x="-1.5399999999999459" y="778" as="sourcePoint" />
            <mxPoint x="98.46000000000005" y="778" as="targetPoint" />
          </mxGeometry>
        </mxCell>
        <mxCell id="MsqOn4zYzABH56GJ3uZA-225" value="" style="rhombus;whiteSpace=wrap;html=1;" parent="1" vertex="1">
          <mxGeometry x="-41.53999999999995" y="796" width="80" height="40" as="geometry" />
        </mxCell>
        <mxCell id="MsqOn4zYzABH56GJ3uZA-226" value="Lagi?" style="text;strokeColor=none;align=center;fillColor=none;html=1;verticalAlign=middle;whiteSpace=wrap;rounded=0;" parent="1" vertex="1">
          <mxGeometry x="-31.539999999999946" y="806" width="60" height="20" as="geometry" />
        </mxCell>
        <mxCell id="MsqOn4zYzABH56GJ3uZA-227" value="Keluar dari menu" style="text;strokeColor=none;align=center;fillColor=none;html=1;verticalAlign=middle;whiteSpace=wrap;rounded=0;" parent="1" vertex="1">
          <mxGeometry x="-31.539999999999946" y="866" width="60" height="20" as="geometry" />
        </mxCell>
        <mxCell id="MsqOn4zYzABH56GJ3uZA-228" value="" style="endArrow=classic;html=1;rounded=0;entryX=0.5;entryY=0;entryDx=0;entryDy=0;exitX=0.5;exitY=1;exitDx=0;exitDy=0;" parent="1" source="MsqOn4zYzABH56GJ3uZA-225" target="MsqOn4zYzABH56GJ3uZA-191" edge="1">
          <mxGeometry width="50" height="50" relative="1" as="geometry">
            <mxPoint x="-131.53999999999994" y="886" as="sourcePoint" />
            <mxPoint x="-81.53999999999995" y="836" as="targetPoint" />
          </mxGeometry>
        </mxCell>
        <mxCell id="MsqOn4zYzABH56GJ3uZA-229" value="" style="endArrow=none;html=1;rounded=0;exitX=1;exitY=0.5;exitDx=0;exitDy=0;" parent="1" source="MsqOn4zYzABH56GJ3uZA-225" edge="1">
          <mxGeometry width="50" height="50" relative="1" as="geometry">
            <mxPoint x="78.46000000000005" y="815.41" as="sourcePoint" />
            <mxPoint x="160" y="816" as="targetPoint" />
          </mxGeometry>
        </mxCell>
        <mxCell id="MsqOn4zYzABH56GJ3uZA-230" value="" style="endArrow=none;html=1;rounded=0;" parent="1" edge="1">
          <mxGeometry width="50" height="50" relative="1" as="geometry">
            <mxPoint x="157.46000000000006" y="818" as="sourcePoint" />
            <mxPoint x="157.46000000000006" y="437" as="targetPoint" />
          </mxGeometry>
        </mxCell>
        <mxCell id="MsqOn4zYzABH56GJ3uZA-232" value="" style="endArrow=none;html=1;rounded=0;exitX=0.5;exitY=0;exitDx=0;exitDy=0;entryX=0.5;entryY=1;entryDx=0;entryDy=0;" parent="1" source="MsqOn4zYzABH56GJ3uZA-194" target="MsqOn4zYzABH56GJ3uZA-190" edge="1">
          <mxGeometry width="50" height="50" relative="1" as="geometry">
            <mxPoint x="-181.53999999999994" y="528" as="sourcePoint" />
            <mxPoint x="-131.53999999999994" y="478" as="targetPoint" />
          </mxGeometry>
        </mxCell>
        <mxCell id="MsqOn4zYzABH56GJ3uZA-233" value="" style="endArrow=none;html=1;rounded=0;" parent="1" edge="1">
          <mxGeometry width="50" height="50" relative="1" as="geometry">
            <mxPoint x="-162.53999999999994" y="671" as="sourcePoint" />
            <mxPoint x="-162.53999999999994" y="558" as="targetPoint" />
          </mxGeometry>
        </mxCell>
        <mxCell id="MsqOn4zYzABH56GJ3uZA-235" value="" style="endArrow=none;html=1;rounded=0;entryX=0;entryY=0.5;entryDx=0;entryDy=0;" parent="1" target="MsqOn4zYzABH56GJ3uZA-200" edge="1">
          <mxGeometry width="50" height="50" relative="1" as="geometry">
            <mxPoint x="-163" y="671" as="sourcePoint" />
            <mxPoint x="-161.53999999999994" y="678" as="targetPoint" />
          </mxGeometry>
        </mxCell>
        <mxCell id="MsqOn4zYzABH56GJ3uZA-236" value="NO" style="text;strokeColor=none;align=center;fillColor=none;html=1;verticalAlign=middle;whiteSpace=wrap;rounded=0;fontSize=9;" parent="1" vertex="1">
          <mxGeometry x="88.46000000000005" y="788" width="60" height="30" as="geometry" />
        </mxCell>
        <mxCell id="MsqOn4zYzABH56GJ3uZA-237" value="YES" style="text;strokeColor=none;align=center;fillColor=none;html=1;verticalAlign=middle;whiteSpace=wrap;rounded=0;fontSize=9;" parent="1" vertex="1">
          <mxGeometry x="-16.539999999999946" y="826" width="60" height="30" as="geometry" />
        </mxCell>
        <mxCell id="MsqOn4zYzABH56GJ3uZA-238" value="YES" style="text;strokeColor=none;align=center;fillColor=none;html=1;verticalAlign=middle;whiteSpace=wrap;rounded=0;fontSize=9;" parent="1" vertex="1">
          <mxGeometry x="-0.5399999999999459" y="778" width="30" height="22" as="geometry" />
        </mxCell>
        <mxCell id="MsqOn4zYzABH56GJ3uZA-239" value="YES" style="text;strokeColor=none;align=center;fillColor=none;html=1;verticalAlign=middle;whiteSpace=wrap;rounded=0;fontSize=9;" parent="1" vertex="1">
          <mxGeometry x="-0.5399999999999459" y="721.25" width="30" height="22" as="geometry" />
        </mxCell>
        <mxCell id="MsqOn4zYzABH56GJ3uZA-240" value="YES" style="text;strokeColor=none;align=center;fillColor=none;html=1;verticalAlign=middle;whiteSpace=wrap;rounded=0;fontSize=9;" parent="1" vertex="1">
          <mxGeometry x="98.46000000000005" y="659.5" width="30" height="22" as="geometry" />
        </mxCell>
        <mxCell id="MsqOn4zYzABH56GJ3uZA-241" value="YES" style="text;strokeColor=none;align=center;fillColor=none;html=1;verticalAlign=middle;whiteSpace=wrap;rounded=0;fontSize=9;" parent="1" vertex="1">
          <mxGeometry x="-101.53999999999995" y="756" width="30" height="22" as="geometry" />
        </mxCell>
        <mxCell id="MsqOn4zYzABH56GJ3uZA-242" value="YES" style="text;strokeColor=none;align=center;fillColor=none;html=1;verticalAlign=middle;whiteSpace=wrap;rounded=0;fontSize=9;" parent="1" vertex="1">
          <mxGeometry x="-98.53999999999995" y="703" width="30" height="22" as="geometry" />
        </mxCell>
        <mxCell id="MsqOn4zYzABH56GJ3uZA-243" value="YES" style="text;strokeColor=none;align=center;fillColor=none;html=1;verticalAlign=middle;whiteSpace=wrap;rounded=0;fontSize=9;" parent="1" vertex="1">
          <mxGeometry x="-1.5399999999999459" y="624.75" width="30" height="22" as="geometry" />
        </mxCell>
        <mxCell id="MsqOn4zYzABH56GJ3uZA-244" value="YES" style="text;strokeColor=none;align=center;fillColor=none;html=1;verticalAlign=middle;whiteSpace=wrap;rounded=0;fontSize=9;" parent="1" vertex="1">
          <mxGeometry x="-96.53999999999995" y="618" width="30" height="22" as="geometry" />
        </mxCell>
        <mxCell id="MsqOn4zYzABH56GJ3uZA-245" value="YES" style="text;strokeColor=none;align=center;fillColor=none;html=1;verticalAlign=middle;whiteSpace=wrap;rounded=0;fontSize=9;" parent="1" vertex="1">
          <mxGeometry x="-96.53999999999995" y="578" width="30" height="22" as="geometry" />
        </mxCell>
        <mxCell id="MsqOn4zYzABH56GJ3uZA-246" value="YES" style="text;strokeColor=none;align=center;fillColor=none;html=1;verticalAlign=middle;whiteSpace=wrap;rounded=0;fontSize=9;" parent="1" vertex="1">
          <mxGeometry x="-1.5399999999999459" y="578" width="30" height="22" as="geometry" />
        </mxCell>
        <mxCell id="MsqOn4zYzABH56GJ3uZA-247" value="YES" style="text;strokeColor=none;align=center;fillColor=none;html=1;verticalAlign=middle;whiteSpace=wrap;rounded=0;fontSize=9;" parent="1" vertex="1">
          <mxGeometry x="98.46000000000005" y="508" width="30" height="22" as="geometry" />
        </mxCell>
        <mxCell id="MsqOn4zYzABH56GJ3uZA-248" value="YES" style="text;strokeColor=none;align=center;fillColor=none;html=1;verticalAlign=middle;whiteSpace=wrap;rounded=0;fontSize=9;" parent="1" vertex="1">
          <mxGeometry x="-0.5399999999999459" y="517" width="30" height="22" as="geometry" />
        </mxCell>
        <mxCell id="MsqOn4zYzABH56GJ3uZA-249" value="YES" style="text;strokeColor=none;align=center;fillColor=none;html=1;verticalAlign=middle;whiteSpace=wrap;rounded=0;fontSize=9;" parent="1" vertex="1">
          <mxGeometry x="-99.53999999999995" y="508" width="30" height="22" as="geometry" />
        </mxCell>
        <mxCell id="gWx_gt3MSwIJaAfkZpsO-8" value="" style="rounded=0;whiteSpace=wrap;html=1;shadow=0;" parent="1" vertex="1">
          <mxGeometry x="-730" y="416" width="120" height="40" as="geometry" />
        </mxCell>
        <mxCell id="MsqOn4zYzABH56GJ3uZA-14" value="" style="rounded=0;whiteSpace=wrap;html=1;" parent="1" vertex="1">
          <mxGeometry x="-710" y="854" width="80" height="40" as="geometry" />
        </mxCell>
        <mxCell id="MsqOn4zYzABH56GJ3uZA-53" value="Data Pegawai" style="text;strokeColor=none;align=center;fillColor=none;html=1;verticalAlign=middle;whiteSpace=wrap;rounded=0;" parent="1" vertex="1">
          <mxGeometry x="-715" y="416" width="90" height="40" as="geometry" />
        </mxCell>
        <mxCell id="MsqOn4zYzABH56GJ3uZA-26" style="edgeStyle=none;rounded=0;orthogonalLoop=1;jettySize=auto;html=1;exitX=0.5;exitY=1;exitDx=0;exitDy=0;entryX=0.5;entryY=0;entryDx=0;entryDy=0;" parent="1" source="MsqOn4zYzABH56GJ3uZA-3" target="MsqOn4zYzABH56GJ3uZA-4" edge="1">
          <mxGeometry relative="1" as="geometry" />
        </mxCell>
        <mxCell id="MsqOn4zYzABH56GJ3uZA-3" value="" style="rhombus;whiteSpace=wrap;html=1;" parent="1" vertex="1">
          <mxGeometry x="-710" y="476" width="80" height="40" as="geometry" />
        </mxCell>
        <mxCell id="MsqOn4zYzABH56GJ3uZA-4" value="" style="rounded=0;whiteSpace=wrap;html=1;" parent="1" vertex="1">
          <mxGeometry x="-710" y="536" width="80" height="40" as="geometry" />
        </mxCell>
        <mxCell id="MsqOn4zYzABH56GJ3uZA-6" value="" style="rounded=0;whiteSpace=wrap;html=1;" parent="1" vertex="1">
          <mxGeometry x="-610" y="536" width="80" height="40" as="geometry" />
        </mxCell>
        <mxCell id="MsqOn4zYzABH56GJ3uZA-7" value="" style="rounded=0;whiteSpace=wrap;html=1;" parent="1" vertex="1">
          <mxGeometry x="-810" y="536" width="80" height="40" as="geometry" />
        </mxCell>
        <mxCell id="MsqOn4zYzABH56GJ3uZA-8" value="" style="rounded=0;whiteSpace=wrap;html=1;" parent="1" vertex="1">
          <mxGeometry x="-710" y="596" width="80" height="20" as="geometry" />
        </mxCell>
        <mxCell id="MsqOn4zYzABH56GJ3uZA-9" value="" style="rounded=0;whiteSpace=wrap;html=1;" parent="1" vertex="1">
          <mxGeometry x="-810" y="596" width="80" height="20" as="geometry" />
        </mxCell>
        <mxCell id="MsqOn4zYzABH56GJ3uZA-10" value="" style="rhombus;whiteSpace=wrap;html=1;" parent="1" vertex="1">
          <mxGeometry x="-820" y="631" width="100" height="75" as="geometry" />
        </mxCell>
        <mxCell id="MsqOn4zYzABH56GJ3uZA-15" value="Tambah Data" style="text;strokeColor=none;align=center;fillColor=none;html=1;verticalAlign=middle;whiteSpace=wrap;rounded=0;" parent="1" vertex="1">
          <mxGeometry x="-800" y="541" width="60" height="30" as="geometry" />
        </mxCell>
        <mxCell id="MsqOn4zYzABH56GJ3uZA-16" value="Edit Data" style="text;strokeColor=none;align=center;fillColor=none;html=1;verticalAlign=middle;whiteSpace=wrap;rounded=0;" parent="1" vertex="1">
          <mxGeometry x="-700" y="541" width="60" height="30" as="geometry" />
        </mxCell>
        <mxCell id="MsqOn4zYzABH56GJ3uZA-17" value="Hapus Data" style="text;strokeColor=none;align=center;fillColor=none;html=1;verticalAlign=middle;whiteSpace=wrap;rounded=0;" parent="1" vertex="1">
          <mxGeometry x="-600" y="541" width="60" height="30" as="geometry" />
        </mxCell>
        <mxCell id="MsqOn4zYzABH56GJ3uZA-18" value="Simpan" style="text;strokeColor=none;align=center;fillColor=none;html=1;verticalAlign=middle;whiteSpace=wrap;rounded=0;" parent="1" vertex="1">
          <mxGeometry x="-800" y="596" width="60" height="20" as="geometry" />
        </mxCell>
        <mxCell id="MsqOn4zYzABH56GJ3uZA-19" value="Simpan" style="text;strokeColor=none;align=center;fillColor=none;html=1;verticalAlign=middle;whiteSpace=wrap;rounded=0;" parent="1" vertex="1">
          <mxGeometry x="-700" y="596" width="60" height="20" as="geometry" />
        </mxCell>
        <mxCell id="MsqOn4zYzABH56GJ3uZA-20" value="Data Sudah ada / Data Masih Kosong&amp;nbsp;" style="text;strokeColor=none;align=center;fillColor=none;html=1;verticalAlign=middle;whiteSpace=wrap;rounded=0;fontSize=9;" parent="1" vertex="1">
          <mxGeometry x="-810" y="656" width="80" height="40" as="geometry" />
        </mxCell>
        <mxCell id="MsqOn4zYzABH56GJ3uZA-29" value="" style="endArrow=none;html=1;rounded=0;entryX=1;entryY=0.5;entryDx=0;entryDy=0;" parent="1" target="MsqOn4zYzABH56GJ3uZA-3" edge="1">
          <mxGeometry width="50" height="50" relative="1" as="geometry">
            <mxPoint x="-570" y="496" as="sourcePoint" />
            <mxPoint x="-540" y="506" as="targetPoint" />
          </mxGeometry>
        </mxCell>
        <mxCell id="MsqOn4zYzABH56GJ3uZA-32" value="" style="endArrow=none;html=1;rounded=0;" parent="1" edge="1">
          <mxGeometry width="50" height="50" relative="1" as="geometry">
            <mxPoint x="-770" y="496" as="sourcePoint" />
            <mxPoint x="-710" y="496" as="targetPoint" />
          </mxGeometry>
        </mxCell>
        <mxCell id="MsqOn4zYzABH56GJ3uZA-33" value="" style="endArrow=classic;html=1;rounded=0;entryX=0.5;entryY=0;entryDx=0;entryDy=0;" parent="1" target="MsqOn4zYzABH56GJ3uZA-7" edge="1">
          <mxGeometry width="50" height="50" relative="1" as="geometry">
            <mxPoint x="-770" y="496" as="sourcePoint" />
            <mxPoint x="-800" y="516" as="targetPoint" />
          </mxGeometry>
        </mxCell>
        <mxCell id="MsqOn4zYzABH56GJ3uZA-34" value="" style="endArrow=classic;html=1;rounded=0;entryX=0.5;entryY=0;entryDx=0;entryDy=0;" parent="1" target="MsqOn4zYzABH56GJ3uZA-6" edge="1">
          <mxGeometry width="50" height="50" relative="1" as="geometry">
            <mxPoint x="-570" y="496" as="sourcePoint" />
            <mxPoint x="-560" y="506" as="targetPoint" />
          </mxGeometry>
        </mxCell>
        <mxCell id="MsqOn4zYzABH56GJ3uZA-36" value="" style="endArrow=classic;html=1;rounded=0;exitX=0.5;exitY=1;exitDx=0;exitDy=0;" parent="1" source="MsqOn4zYzABH56GJ3uZA-4" edge="1">
          <mxGeometry width="50" height="50" relative="1" as="geometry">
            <mxPoint x="-710" y="636" as="sourcePoint" />
            <mxPoint x="-670" y="596" as="targetPoint" />
          </mxGeometry>
        </mxCell>
        <mxCell id="MsqOn4zYzABH56GJ3uZA-38" value="" style="endArrow=classic;html=1;rounded=0;exitX=0.5;exitY=1;exitDx=0;exitDy=0;" parent="1" source="MsqOn4zYzABH56GJ3uZA-7" edge="1">
          <mxGeometry width="50" height="50" relative="1" as="geometry">
            <mxPoint x="-800" y="626" as="sourcePoint" />
            <mxPoint x="-770" y="596" as="targetPoint" />
          </mxGeometry>
        </mxCell>
        <mxCell id="MsqOn4zYzABH56GJ3uZA-39" value="" style="endArrow=classic;html=1;rounded=0;entryX=0.5;entryY=0;entryDx=0;entryDy=0;exitX=0.5;exitY=1;exitDx=0;exitDy=0;" parent="1" source="MsqOn4zYzABH56GJ3uZA-18" target="MsqOn4zYzABH56GJ3uZA-10" edge="1">
          <mxGeometry width="50" height="50" relative="1" as="geometry">
            <mxPoint x="-850" y="676" as="sourcePoint" />
            <mxPoint x="-800" y="626" as="targetPoint" />
          </mxGeometry>
        </mxCell>
        <mxCell id="MsqOn4zYzABH56GJ3uZA-40" value="" style="endArrow=classic;html=1;rounded=0;entryX=0;entryY=0;entryDx=42.5;entryDy=0;entryPerimeter=0;exitX=0.5;exitY=1;exitDx=0;exitDy=0;" parent="1" source="MsqOn4zYzABH56GJ3uZA-19" target="MsqOn4zYzABH56GJ3uZA-22" edge="1">
          <mxGeometry width="50" height="50" relative="1" as="geometry">
            <mxPoint x="-720" y="686" as="sourcePoint" />
            <mxPoint x="-670" y="636" as="targetPoint" />
          </mxGeometry>
        </mxCell>
        <mxCell id="MsqOn4zYzABH56GJ3uZA-22" value="" style="shape=display;whiteSpace=wrap;html=1;" parent="1" vertex="1">
          <mxGeometry x="-712" y="653.5" width="80" height="30" as="geometry" />
        </mxCell>
        <mxCell id="MsqOn4zYzABH56GJ3uZA-23" value="Data Tersimpan" style="text;strokeColor=none;align=center;fillColor=none;html=1;verticalAlign=middle;whiteSpace=wrap;rounded=0;fontSize=9;" parent="1" vertex="1">
          <mxGeometry x="-710" y="662.25" width="80" height="12.5" as="geometry" />
        </mxCell>
        <mxCell id="MsqOn4zYzABH56GJ3uZA-41" value="" style="endArrow=classic;html=1;rounded=0;entryX=0;entryY=0;entryDx=42.5;entryDy=0;entryPerimeter=0;exitX=0.5;exitY=1;exitDx=0;exitDy=0;" parent="1" source="MsqOn4zYzABH56GJ3uZA-10" target="MsqOn4zYzABH56GJ3uZA-11" edge="1">
          <mxGeometry width="50" height="50" relative="1" as="geometry">
            <mxPoint x="-820" y="836" as="sourcePoint" />
            <mxPoint x="-770" y="786" as="targetPoint" />
          </mxGeometry>
        </mxCell>
        <mxCell id="MsqOn4zYzABH56GJ3uZA-11" value="" style="shape=display;whiteSpace=wrap;html=1;" parent="1" vertex="1">
          <mxGeometry x="-812" y="721" width="80" height="30" as="geometry" />
        </mxCell>
        <mxCell id="MsqOn4zYzABH56GJ3uZA-21" value="Data Tersimpan" style="text;strokeColor=none;align=center;fillColor=none;html=1;verticalAlign=middle;whiteSpace=wrap;rounded=0;fontSize=9;" parent="1" vertex="1">
          <mxGeometry x="-810" y="728.75" width="80" height="12.5" as="geometry" />
        </mxCell>
        <mxCell id="MsqOn4zYzABH56GJ3uZA-42" value="" style="endArrow=classic;html=1;rounded=0;entryX=0.5;entryY=0;entryDx=0;entryDy=0;exitX=0;exitY=0;exitDx=42.5;exitDy=30;exitPerimeter=0;" parent="1" source="MsqOn4zYzABH56GJ3uZA-22" target="MsqOn4zYzABH56GJ3uZA-13" edge="1">
          <mxGeometry width="50" height="50" relative="1" as="geometry">
            <mxPoint x="-650" y="746" as="sourcePoint" />
            <mxPoint x="-600" y="696" as="targetPoint" />
          </mxGeometry>
        </mxCell>
        <mxCell id="MsqOn4zYzABH56GJ3uZA-44" value="" style="endArrow=none;html=1;rounded=0;entryX=0;entryY=0;entryDx=42.5;entryDy=30;entryPerimeter=0;" parent="1" target="MsqOn4zYzABH56GJ3uZA-11" edge="1">
          <mxGeometry width="50" height="50" relative="1" as="geometry">
            <mxPoint x="-770" y="776" as="sourcePoint" />
            <mxPoint x="-770" y="756" as="targetPoint" />
          </mxGeometry>
        </mxCell>
        <mxCell id="MsqOn4zYzABH56GJ3uZA-45" value="" style="endArrow=none;html=1;rounded=0;" parent="1" edge="1">
          <mxGeometry width="50" height="50" relative="1" as="geometry">
            <mxPoint x="-770" y="776" as="sourcePoint" />
            <mxPoint x="-670" y="776" as="targetPoint" />
          </mxGeometry>
        </mxCell>
        <mxCell id="MsqOn4zYzABH56GJ3uZA-46" value="" style="endArrow=none;html=1;rounded=0;entryX=0.5;entryY=1;entryDx=0;entryDy=0;" parent="1" target="MsqOn4zYzABH56GJ3uZA-6" edge="1">
          <mxGeometry width="50" height="50" relative="1" as="geometry">
            <mxPoint x="-570" y="776" as="sourcePoint" />
            <mxPoint x="-560" y="656" as="targetPoint" />
          </mxGeometry>
        </mxCell>
        <mxCell id="MsqOn4zYzABH56GJ3uZA-47" value="" style="endArrow=none;html=1;rounded=0;" parent="1" edge="1">
          <mxGeometry width="50" height="50" relative="1" as="geometry">
            <mxPoint x="-670" y="776" as="sourcePoint" />
            <mxPoint x="-570" y="776" as="targetPoint" />
          </mxGeometry>
        </mxCell>
        <mxCell id="MsqOn4zYzABH56GJ3uZA-13" value="" style="rhombus;whiteSpace=wrap;html=1;" parent="1" vertex="1">
          <mxGeometry x="-710" y="794" width="80" height="40" as="geometry" />
        </mxCell>
        <mxCell id="MsqOn4zYzABH56GJ3uZA-24" value="Lagi?" style="text;strokeColor=none;align=center;fillColor=none;html=1;verticalAlign=middle;whiteSpace=wrap;rounded=0;" parent="1" vertex="1">
          <mxGeometry x="-700" y="804" width="60" height="20" as="geometry" />
        </mxCell>
        <mxCell id="MsqOn4zYzABH56GJ3uZA-25" value="Keluar dari menu" style="text;strokeColor=none;align=center;fillColor=none;html=1;verticalAlign=middle;whiteSpace=wrap;rounded=0;" parent="1" vertex="1">
          <mxGeometry x="-700" y="864" width="60" height="20" as="geometry" />
        </mxCell>
        <mxCell id="MsqOn4zYzABH56GJ3uZA-43" value="" style="endArrow=classic;html=1;rounded=0;entryX=0.5;entryY=0;entryDx=0;entryDy=0;exitX=0.5;exitY=1;exitDx=0;exitDy=0;" parent="1" source="MsqOn4zYzABH56GJ3uZA-13" target="MsqOn4zYzABH56GJ3uZA-14" edge="1">
          <mxGeometry width="50" height="50" relative="1" as="geometry">
            <mxPoint x="-800" y="884" as="sourcePoint" />
            <mxPoint x="-750" y="834" as="targetPoint" />
          </mxGeometry>
        </mxCell>
        <mxCell id="MsqOn4zYzABH56GJ3uZA-49" value="" style="endArrow=none;html=1;rounded=0;exitX=1;exitY=0.5;exitDx=0;exitDy=0;entryX=1;entryY=1;entryDx=0;entryDy=0;" parent="1" source="MsqOn4zYzABH56GJ3uZA-13" target="MsqOn4zYzABH56GJ3uZA-57" edge="1">
          <mxGeometry width="50" height="50" relative="1" as="geometry">
            <mxPoint x="-590" y="813.41" as="sourcePoint" />
            <mxPoint x="-520" y="813" as="targetPoint" />
          </mxGeometry>
        </mxCell>
        <mxCell id="MsqOn4zYzABH56GJ3uZA-50" value="" style="endArrow=none;html=1;rounded=0;" parent="1" edge="1">
          <mxGeometry width="50" height="50" relative="1" as="geometry">
            <mxPoint x="-520" y="816" as="sourcePoint" />
            <mxPoint x="-520" y="436" as="targetPoint" />
          </mxGeometry>
        </mxCell>
        <mxCell id="MsqOn4zYzABH56GJ3uZA-52" value="" style="endArrow=none;html=1;rounded=0;exitX=0.5;exitY=0;exitDx=0;exitDy=0;entryX=0.5;entryY=1;entryDx=0;entryDy=0;" parent="1" source="MsqOn4zYzABH56GJ3uZA-3" target="gWx_gt3MSwIJaAfkZpsO-8" edge="1">
          <mxGeometry width="50" height="50" relative="1" as="geometry">
            <mxPoint x="-850" y="526" as="sourcePoint" />
            <mxPoint x="-800" y="476" as="targetPoint" />
          </mxGeometry>
        </mxCell>
        <mxCell id="MsqOn4zYzABH56GJ3uZA-54" value="" style="endArrow=none;html=1;rounded=0;" parent="1" edge="1">
          <mxGeometry width="50" height="50" relative="1" as="geometry">
            <mxPoint x="-840" y="669" as="sourcePoint" />
            <mxPoint x="-840" y="556" as="targetPoint" />
          </mxGeometry>
        </mxCell>
        <mxCell id="MsqOn4zYzABH56GJ3uZA-56" value="" style="endArrow=none;html=1;rounded=0;entryX=0;entryY=0.5;entryDx=0;entryDy=0;" parent="1" target="MsqOn4zYzABH56GJ3uZA-10" edge="1">
          <mxGeometry width="50" height="50" relative="1" as="geometry">
            <mxPoint x="-840" y="669" as="sourcePoint" />
            <mxPoint x="-830" y="676" as="targetPoint" />
          </mxGeometry>
        </mxCell>
        <mxCell id="MsqOn4zYzABH56GJ3uZA-57" value="NO" style="text;strokeColor=none;align=center;fillColor=none;html=1;verticalAlign=middle;whiteSpace=wrap;rounded=0;fontSize=9;" parent="1" vertex="1">
          <mxGeometry x="-580" y="786" width="60" height="30" as="geometry" />
        </mxCell>
        <mxCell id="MsqOn4zYzABH56GJ3uZA-59" value="YES" style="text;strokeColor=none;align=center;fillColor=none;html=1;verticalAlign=middle;whiteSpace=wrap;rounded=0;fontSize=9;" parent="1" vertex="1">
          <mxGeometry x="-685" y="824" width="60" height="30" as="geometry" />
        </mxCell>
        <mxCell id="MsqOn4zYzABH56GJ3uZA-60" value="YES" style="text;strokeColor=none;align=center;fillColor=none;html=1;verticalAlign=middle;whiteSpace=wrap;rounded=0;fontSize=9;" parent="1" vertex="1">
          <mxGeometry x="-669" y="776" width="30" height="22" as="geometry" />
        </mxCell>
        <mxCell id="MsqOn4zYzABH56GJ3uZA-62" value="YES" style="text;strokeColor=none;align=center;fillColor=none;html=1;verticalAlign=middle;whiteSpace=wrap;rounded=0;fontSize=9;" parent="1" vertex="1">
          <mxGeometry x="-669" y="719.25" width="30" height="22" as="geometry" />
        </mxCell>
        <mxCell id="MsqOn4zYzABH56GJ3uZA-63" value="YES" style="text;strokeColor=none;align=center;fillColor=none;html=1;verticalAlign=middle;whiteSpace=wrap;rounded=0;fontSize=9;" parent="1" vertex="1">
          <mxGeometry x="-570" y="657.5" width="30" height="22" as="geometry" />
        </mxCell>
        <mxCell id="MsqOn4zYzABH56GJ3uZA-64" value="YES" style="text;strokeColor=none;align=center;fillColor=none;html=1;verticalAlign=middle;whiteSpace=wrap;rounded=0;fontSize=9;" parent="1" vertex="1">
          <mxGeometry x="-770" y="754" width="30" height="22" as="geometry" />
        </mxCell>
        <mxCell id="MsqOn4zYzABH56GJ3uZA-65" value="YES" style="text;strokeColor=none;align=center;fillColor=none;html=1;verticalAlign=middle;whiteSpace=wrap;rounded=0;fontSize=9;" parent="1" vertex="1">
          <mxGeometry x="-767" y="701" width="30" height="22" as="geometry" />
        </mxCell>
        <mxCell id="MsqOn4zYzABH56GJ3uZA-66" value="YES" style="text;strokeColor=none;align=center;fillColor=none;html=1;verticalAlign=middle;whiteSpace=wrap;rounded=0;fontSize=9;" parent="1" vertex="1">
          <mxGeometry x="-670" y="622.75" width="30" height="22" as="geometry" />
        </mxCell>
        <mxCell id="MsqOn4zYzABH56GJ3uZA-67" value="YES" style="text;strokeColor=none;align=center;fillColor=none;html=1;verticalAlign=middle;whiteSpace=wrap;rounded=0;fontSize=9;" parent="1" vertex="1">
          <mxGeometry x="-765" y="616" width="30" height="22" as="geometry" />
        </mxCell>
        <mxCell id="MsqOn4zYzABH56GJ3uZA-68" value="YES" style="text;strokeColor=none;align=center;fillColor=none;html=1;verticalAlign=middle;whiteSpace=wrap;rounded=0;fontSize=9;" parent="1" vertex="1">
          <mxGeometry x="-765" y="576" width="30" height="22" as="geometry" />
        </mxCell>
        <mxCell id="MsqOn4zYzABH56GJ3uZA-69" value="YES" style="text;strokeColor=none;align=center;fillColor=none;html=1;verticalAlign=middle;whiteSpace=wrap;rounded=0;fontSize=9;" parent="1" vertex="1">
          <mxGeometry x="-670" y="576" width="30" height="22" as="geometry" />
        </mxCell>
        <mxCell id="MsqOn4zYzABH56GJ3uZA-70" value="YES" style="text;strokeColor=none;align=center;fillColor=none;html=1;verticalAlign=middle;whiteSpace=wrap;rounded=0;fontSize=9;" parent="1" vertex="1">
          <mxGeometry x="-570" y="506" width="30" height="22" as="geometry" />
        </mxCell>
        <mxCell id="MsqOn4zYzABH56GJ3uZA-71" value="YES" style="text;strokeColor=none;align=center;fillColor=none;html=1;verticalAlign=middle;whiteSpace=wrap;rounded=0;fontSize=9;" parent="1" vertex="1">
          <mxGeometry x="-669" y="515" width="30" height="22" as="geometry" />
        </mxCell>
        <mxCell id="MsqOn4zYzABH56GJ3uZA-72" value="YES" style="text;strokeColor=none;align=center;fillColor=none;html=1;verticalAlign=middle;whiteSpace=wrap;rounded=0;fontSize=9;" parent="1" vertex="1">
          <mxGeometry x="-768" y="506" width="30" height="22" as="geometry" />
        </mxCell>
        <mxCell id="MsqOn4zYzABH56GJ3uZA-250" value="" style="rounded=0;whiteSpace=wrap;html=1;shadow=0;" parent="1" vertex="1">
          <mxGeometry x="-393" y="415" width="120" height="40" as="geometry" />
        </mxCell>
        <mxCell id="MsqOn4zYzABH56GJ3uZA-251" value="" style="rounded=0;whiteSpace=wrap;html=1;" parent="1" vertex="1">
          <mxGeometry x="-373" y="853" width="80" height="40" as="geometry" />
        </mxCell>
        <mxCell id="MsqOn4zYzABH56GJ3uZA-252" value="Data Ruangan" style="text;strokeColor=none;align=center;fillColor=none;html=1;verticalAlign=middle;whiteSpace=wrap;rounded=0;" parent="1" vertex="1">
          <mxGeometry x="-378" y="415" width="90" height="40" as="geometry" />
        </mxCell>
        <mxCell id="MsqOn4zYzABH56GJ3uZA-253" style="edgeStyle=none;rounded=0;orthogonalLoop=1;jettySize=auto;html=1;exitX=0.5;exitY=1;exitDx=0;exitDy=0;entryX=0.5;entryY=0;entryDx=0;entryDy=0;" parent="1" source="MsqOn4zYzABH56GJ3uZA-254" target="MsqOn4zYzABH56GJ3uZA-255" edge="1">
          <mxGeometry relative="1" as="geometry" />
        </mxCell>
        <mxCell id="MsqOn4zYzABH56GJ3uZA-254" value="" style="rhombus;whiteSpace=wrap;html=1;" parent="1" vertex="1">
          <mxGeometry x="-373" y="475" width="80" height="40" as="geometry" />
        </mxCell>
        <mxCell id="MsqOn4zYzABH56GJ3uZA-255" value="" style="rounded=0;whiteSpace=wrap;html=1;" parent="1" vertex="1">
          <mxGeometry x="-373" y="535" width="80" height="40" as="geometry" />
        </mxCell>
        <mxCell id="MsqOn4zYzABH56GJ3uZA-256" value="" style="rounded=0;whiteSpace=wrap;html=1;" parent="1" vertex="1">
          <mxGeometry x="-273" y="535" width="80" height="40" as="geometry" />
        </mxCell>
        <mxCell id="MsqOn4zYzABH56GJ3uZA-257" value="" style="rounded=0;whiteSpace=wrap;html=1;" parent="1" vertex="1">
          <mxGeometry x="-473" y="535" width="80" height="40" as="geometry" />
        </mxCell>
        <mxCell id="MsqOn4zYzABH56GJ3uZA-258" value="" style="rounded=0;whiteSpace=wrap;html=1;" parent="1" vertex="1">
          <mxGeometry x="-373" y="595" width="80" height="20" as="geometry" />
        </mxCell>
        <mxCell id="MsqOn4zYzABH56GJ3uZA-259" value="" style="rounded=0;whiteSpace=wrap;html=1;" parent="1" vertex="1">
          <mxGeometry x="-473" y="595" width="80" height="20" as="geometry" />
        </mxCell>
        <mxCell id="MsqOn4zYzABH56GJ3uZA-260" value="" style="rhombus;whiteSpace=wrap;html=1;" parent="1" vertex="1">
          <mxGeometry x="-483" y="630" width="100" height="75" as="geometry" />
        </mxCell>
        <mxCell id="MsqOn4zYzABH56GJ3uZA-261" value="Tambah Data" style="text;strokeColor=none;align=center;fillColor=none;html=1;verticalAlign=middle;whiteSpace=wrap;rounded=0;" parent="1" vertex="1">
          <mxGeometry x="-463" y="540" width="60" height="30" as="geometry" />
        </mxCell>
        <mxCell id="MsqOn4zYzABH56GJ3uZA-262" value="Edit Data" style="text;strokeColor=none;align=center;fillColor=none;html=1;verticalAlign=middle;whiteSpace=wrap;rounded=0;" parent="1" vertex="1">
          <mxGeometry x="-363" y="540" width="60" height="30" as="geometry" />
        </mxCell>
        <mxCell id="MsqOn4zYzABH56GJ3uZA-263" value="Hapus Data" style="text;strokeColor=none;align=center;fillColor=none;html=1;verticalAlign=middle;whiteSpace=wrap;rounded=0;" parent="1" vertex="1">
          <mxGeometry x="-263" y="540" width="60" height="30" as="geometry" />
        </mxCell>
        <mxCell id="MsqOn4zYzABH56GJ3uZA-264" value="Simpan" style="text;strokeColor=none;align=center;fillColor=none;html=1;verticalAlign=middle;whiteSpace=wrap;rounded=0;" parent="1" vertex="1">
          <mxGeometry x="-463" y="595" width="60" height="20" as="geometry" />
        </mxCell>
        <mxCell id="MsqOn4zYzABH56GJ3uZA-265" value="Simpan" style="text;strokeColor=none;align=center;fillColor=none;html=1;verticalAlign=middle;whiteSpace=wrap;rounded=0;" parent="1" vertex="1">
          <mxGeometry x="-363" y="595" width="60" height="20" as="geometry" />
        </mxCell>
        <mxCell id="MsqOn4zYzABH56GJ3uZA-266" value="Data Sudah ada / Data Masih Kosong&amp;nbsp;" style="text;strokeColor=none;align=center;fillColor=none;html=1;verticalAlign=middle;whiteSpace=wrap;rounded=0;fontSize=9;" parent="1" vertex="1">
          <mxGeometry x="-473" y="655" width="80" height="40" as="geometry" />
        </mxCell>
        <mxCell id="MsqOn4zYzABH56GJ3uZA-267" value="" style="endArrow=none;html=1;rounded=0;entryX=1;entryY=0.5;entryDx=0;entryDy=0;" parent="1" target="MsqOn4zYzABH56GJ3uZA-254" edge="1">
          <mxGeometry width="50" height="50" relative="1" as="geometry">
            <mxPoint x="-233" y="495" as="sourcePoint" />
            <mxPoint x="-203" y="505" as="targetPoint" />
          </mxGeometry>
        </mxCell>
        <mxCell id="MsqOn4zYzABH56GJ3uZA-268" value="" style="endArrow=none;html=1;rounded=0;" parent="1" edge="1">
          <mxGeometry width="50" height="50" relative="1" as="geometry">
            <mxPoint x="-433" y="495" as="sourcePoint" />
            <mxPoint x="-373" y="495" as="targetPoint" />
          </mxGeometry>
        </mxCell>
        <mxCell id="MsqOn4zYzABH56GJ3uZA-269" value="" style="endArrow=classic;html=1;rounded=0;entryX=0.5;entryY=0;entryDx=0;entryDy=0;" parent="1" target="MsqOn4zYzABH56GJ3uZA-257" edge="1">
          <mxGeometry width="50" height="50" relative="1" as="geometry">
            <mxPoint x="-433" y="495" as="sourcePoint" />
            <mxPoint x="-463" y="515" as="targetPoint" />
          </mxGeometry>
        </mxCell>
        <mxCell id="MsqOn4zYzABH56GJ3uZA-270" value="" style="endArrow=classic;html=1;rounded=0;entryX=0.5;entryY=0;entryDx=0;entryDy=0;" parent="1" target="MsqOn4zYzABH56GJ3uZA-256" edge="1">
          <mxGeometry width="50" height="50" relative="1" as="geometry">
            <mxPoint x="-233" y="495" as="sourcePoint" />
            <mxPoint x="-223" y="505" as="targetPoint" />
          </mxGeometry>
        </mxCell>
        <mxCell id="MsqOn4zYzABH56GJ3uZA-271" value="" style="endArrow=classic;html=1;rounded=0;exitX=0.5;exitY=1;exitDx=0;exitDy=0;" parent="1" source="MsqOn4zYzABH56GJ3uZA-255" edge="1">
          <mxGeometry width="50" height="50" relative="1" as="geometry">
            <mxPoint x="-373" y="635" as="sourcePoint" />
            <mxPoint x="-333" y="595" as="targetPoint" />
          </mxGeometry>
        </mxCell>
        <mxCell id="MsqOn4zYzABH56GJ3uZA-272" value="" style="endArrow=classic;html=1;rounded=0;exitX=0.5;exitY=1;exitDx=0;exitDy=0;" parent="1" source="MsqOn4zYzABH56GJ3uZA-257" edge="1">
          <mxGeometry width="50" height="50" relative="1" as="geometry">
            <mxPoint x="-463" y="625" as="sourcePoint" />
            <mxPoint x="-433" y="595" as="targetPoint" />
          </mxGeometry>
        </mxCell>
        <mxCell id="MsqOn4zYzABH56GJ3uZA-273" value="" style="endArrow=classic;html=1;rounded=0;entryX=0.5;entryY=0;entryDx=0;entryDy=0;exitX=0.5;exitY=1;exitDx=0;exitDy=0;" parent="1" source="MsqOn4zYzABH56GJ3uZA-264" target="MsqOn4zYzABH56GJ3uZA-260" edge="1">
          <mxGeometry width="50" height="50" relative="1" as="geometry">
            <mxPoint x="-513" y="675" as="sourcePoint" />
            <mxPoint x="-463" y="625" as="targetPoint" />
          </mxGeometry>
        </mxCell>
        <mxCell id="MsqOn4zYzABH56GJ3uZA-274" value="" style="endArrow=classic;html=1;rounded=0;entryX=0;entryY=0;entryDx=42.5;entryDy=0;entryPerimeter=0;exitX=0.5;exitY=1;exitDx=0;exitDy=0;" parent="1" source="MsqOn4zYzABH56GJ3uZA-265" target="MsqOn4zYzABH56GJ3uZA-275" edge="1">
          <mxGeometry width="50" height="50" relative="1" as="geometry">
            <mxPoint x="-383" y="685" as="sourcePoint" />
            <mxPoint x="-333" y="635" as="targetPoint" />
          </mxGeometry>
        </mxCell>
        <mxCell id="MsqOn4zYzABH56GJ3uZA-275" value="" style="shape=display;whiteSpace=wrap;html=1;" parent="1" vertex="1">
          <mxGeometry x="-375" y="652.5" width="80" height="30" as="geometry" />
        </mxCell>
        <mxCell id="MsqOn4zYzABH56GJ3uZA-276" value="Data Tersimpan" style="text;strokeColor=none;align=center;fillColor=none;html=1;verticalAlign=middle;whiteSpace=wrap;rounded=0;fontSize=9;" parent="1" vertex="1">
          <mxGeometry x="-373" y="661.25" width="80" height="12.5" as="geometry" />
        </mxCell>
        <mxCell id="MsqOn4zYzABH56GJ3uZA-277" value="" style="endArrow=classic;html=1;rounded=0;entryX=0;entryY=0;entryDx=42.5;entryDy=0;entryPerimeter=0;exitX=0.5;exitY=1;exitDx=0;exitDy=0;" parent="1" source="MsqOn4zYzABH56GJ3uZA-260" target="MsqOn4zYzABH56GJ3uZA-278" edge="1">
          <mxGeometry width="50" height="50" relative="1" as="geometry">
            <mxPoint x="-483" y="835" as="sourcePoint" />
            <mxPoint x="-433" y="785" as="targetPoint" />
          </mxGeometry>
        </mxCell>
        <mxCell id="MsqOn4zYzABH56GJ3uZA-278" value="" style="shape=display;whiteSpace=wrap;html=1;" parent="1" vertex="1">
          <mxGeometry x="-475" y="720" width="80" height="30" as="geometry" />
        </mxCell>
        <mxCell id="MsqOn4zYzABH56GJ3uZA-279" value="Data Tersimpan" style="text;strokeColor=none;align=center;fillColor=none;html=1;verticalAlign=middle;whiteSpace=wrap;rounded=0;fontSize=9;" parent="1" vertex="1">
          <mxGeometry x="-473" y="727.75" width="80" height="12.5" as="geometry" />
        </mxCell>
        <mxCell id="MsqOn4zYzABH56GJ3uZA-280" value="" style="endArrow=classic;html=1;rounded=0;entryX=0.5;entryY=0;entryDx=0;entryDy=0;exitX=0;exitY=0;exitDx=42.5;exitDy=30;exitPerimeter=0;" parent="1" source="MsqOn4zYzABH56GJ3uZA-275" target="MsqOn4zYzABH56GJ3uZA-285" edge="1">
          <mxGeometry width="50" height="50" relative="1" as="geometry">
            <mxPoint x="-313" y="745" as="sourcePoint" />
            <mxPoint x="-263" y="695" as="targetPoint" />
          </mxGeometry>
        </mxCell>
        <mxCell id="MsqOn4zYzABH56GJ3uZA-281" value="" style="endArrow=none;html=1;rounded=0;entryX=0;entryY=0;entryDx=42.5;entryDy=30;entryPerimeter=0;" parent="1" target="MsqOn4zYzABH56GJ3uZA-278" edge="1">
          <mxGeometry width="50" height="50" relative="1" as="geometry">
            <mxPoint x="-433" y="775" as="sourcePoint" />
            <mxPoint x="-433" y="755" as="targetPoint" />
          </mxGeometry>
        </mxCell>
        <mxCell id="MsqOn4zYzABH56GJ3uZA-282" value="" style="endArrow=none;html=1;rounded=0;" parent="1" edge="1">
          <mxGeometry width="50" height="50" relative="1" as="geometry">
            <mxPoint x="-433" y="775" as="sourcePoint" />
            <mxPoint x="-333" y="775" as="targetPoint" />
          </mxGeometry>
        </mxCell>
        <mxCell id="MsqOn4zYzABH56GJ3uZA-283" value="" style="endArrow=none;html=1;rounded=0;entryX=0.5;entryY=1;entryDx=0;entryDy=0;" parent="1" target="MsqOn4zYzABH56GJ3uZA-256" edge="1">
          <mxGeometry width="50" height="50" relative="1" as="geometry">
            <mxPoint x="-233" y="775" as="sourcePoint" />
            <mxPoint x="-223" y="655" as="targetPoint" />
          </mxGeometry>
        </mxCell>
        <mxCell id="MsqOn4zYzABH56GJ3uZA-284" value="" style="endArrow=none;html=1;rounded=0;" parent="1" edge="1">
          <mxGeometry width="50" height="50" relative="1" as="geometry">
            <mxPoint x="-333" y="775" as="sourcePoint" />
            <mxPoint x="-233" y="775" as="targetPoint" />
          </mxGeometry>
        </mxCell>
        <mxCell id="MsqOn4zYzABH56GJ3uZA-285" value="" style="rhombus;whiteSpace=wrap;html=1;" parent="1" vertex="1">
          <mxGeometry x="-373" y="793" width="80" height="40" as="geometry" />
        </mxCell>
        <mxCell id="MsqOn4zYzABH56GJ3uZA-286" value="Lagi?" style="text;strokeColor=none;align=center;fillColor=none;html=1;verticalAlign=middle;whiteSpace=wrap;rounded=0;" parent="1" vertex="1">
          <mxGeometry x="-363" y="803" width="60" height="20" as="geometry" />
        </mxCell>
        <mxCell id="MsqOn4zYzABH56GJ3uZA-287" value="Keluar dari menu" style="text;strokeColor=none;align=center;fillColor=none;html=1;verticalAlign=middle;whiteSpace=wrap;rounded=0;" parent="1" vertex="1">
          <mxGeometry x="-363" y="863" width="60" height="20" as="geometry" />
        </mxCell>
        <mxCell id="MsqOn4zYzABH56GJ3uZA-288" value="" style="endArrow=classic;html=1;rounded=0;entryX=0.5;entryY=0;entryDx=0;entryDy=0;exitX=0.5;exitY=1;exitDx=0;exitDy=0;" parent="1" source="MsqOn4zYzABH56GJ3uZA-285" target="MsqOn4zYzABH56GJ3uZA-251" edge="1">
          <mxGeometry width="50" height="50" relative="1" as="geometry">
            <mxPoint x="-463" y="883" as="sourcePoint" />
            <mxPoint x="-413" y="833" as="targetPoint" />
          </mxGeometry>
        </mxCell>
        <mxCell id="MsqOn4zYzABH56GJ3uZA-289" value="" style="endArrow=none;html=1;rounded=0;exitX=1;exitY=0.5;exitDx=0;exitDy=0;entryX=1;entryY=1;entryDx=0;entryDy=0;" parent="1" source="MsqOn4zYzABH56GJ3uZA-285" target="MsqOn4zYzABH56GJ3uZA-296" edge="1">
          <mxGeometry width="50" height="50" relative="1" as="geometry">
            <mxPoint x="-253" y="812.41" as="sourcePoint" />
            <mxPoint x="-183" y="812" as="targetPoint" />
          </mxGeometry>
        </mxCell>
        <mxCell id="MsqOn4zYzABH56GJ3uZA-290" value="" style="endArrow=none;html=1;rounded=0;" parent="1" edge="1">
          <mxGeometry width="50" height="50" relative="1" as="geometry">
            <mxPoint x="-183" y="815" as="sourcePoint" />
            <mxPoint x="-183" y="435" as="targetPoint" />
          </mxGeometry>
        </mxCell>
        <mxCell id="MsqOn4zYzABH56GJ3uZA-292" value="" style="endArrow=none;html=1;rounded=0;exitX=0.5;exitY=0;exitDx=0;exitDy=0;entryX=0.5;entryY=1;entryDx=0;entryDy=0;" parent="1" source="MsqOn4zYzABH56GJ3uZA-254" target="MsqOn4zYzABH56GJ3uZA-250" edge="1">
          <mxGeometry width="50" height="50" relative="1" as="geometry">
            <mxPoint x="-513" y="525" as="sourcePoint" />
            <mxPoint x="-463" y="475" as="targetPoint" />
          </mxGeometry>
        </mxCell>
        <mxCell id="MsqOn4zYzABH56GJ3uZA-293" value="" style="endArrow=none;html=1;rounded=0;" parent="1" edge="1">
          <mxGeometry width="50" height="50" relative="1" as="geometry">
            <mxPoint x="-503" y="668" as="sourcePoint" />
            <mxPoint x="-503" y="555" as="targetPoint" />
          </mxGeometry>
        </mxCell>
        <mxCell id="MsqOn4zYzABH56GJ3uZA-295" value="" style="endArrow=none;html=1;rounded=0;entryX=0;entryY=0.5;entryDx=0;entryDy=0;" parent="1" target="MsqOn4zYzABH56GJ3uZA-260" edge="1">
          <mxGeometry width="50" height="50" relative="1" as="geometry">
            <mxPoint x="-503" y="668" as="sourcePoint" />
            <mxPoint x="-493" y="675" as="targetPoint" />
          </mxGeometry>
        </mxCell>
        <mxCell id="MsqOn4zYzABH56GJ3uZA-296" value="NO" style="text;strokeColor=none;align=center;fillColor=none;html=1;verticalAlign=middle;whiteSpace=wrap;rounded=0;fontSize=9;" parent="1" vertex="1">
          <mxGeometry x="-243" y="785" width="60" height="30" as="geometry" />
        </mxCell>
        <mxCell id="MsqOn4zYzABH56GJ3uZA-297" value="YES" style="text;strokeColor=none;align=center;fillColor=none;html=1;verticalAlign=middle;whiteSpace=wrap;rounded=0;fontSize=9;" parent="1" vertex="1">
          <mxGeometry x="-348" y="823" width="60" height="30" as="geometry" />
        </mxCell>
        <mxCell id="MsqOn4zYzABH56GJ3uZA-298" value="YES" style="text;strokeColor=none;align=center;fillColor=none;html=1;verticalAlign=middle;whiteSpace=wrap;rounded=0;fontSize=9;" parent="1" vertex="1">
          <mxGeometry x="-332" y="775" width="30" height="22" as="geometry" />
        </mxCell>
        <mxCell id="MsqOn4zYzABH56GJ3uZA-299" value="YES" style="text;strokeColor=none;align=center;fillColor=none;html=1;verticalAlign=middle;whiteSpace=wrap;rounded=0;fontSize=9;" parent="1" vertex="1">
          <mxGeometry x="-332" y="718.25" width="30" height="22" as="geometry" />
        </mxCell>
        <mxCell id="MsqOn4zYzABH56GJ3uZA-300" value="YES" style="text;strokeColor=none;align=center;fillColor=none;html=1;verticalAlign=middle;whiteSpace=wrap;rounded=0;fontSize=9;" parent="1" vertex="1">
          <mxGeometry x="-233" y="656.5" width="30" height="22" as="geometry" />
        </mxCell>
        <mxCell id="MsqOn4zYzABH56GJ3uZA-301" value="YES" style="text;strokeColor=none;align=center;fillColor=none;html=1;verticalAlign=middle;whiteSpace=wrap;rounded=0;fontSize=9;" parent="1" vertex="1">
          <mxGeometry x="-433" y="753" width="30" height="22" as="geometry" />
        </mxCell>
        <mxCell id="MsqOn4zYzABH56GJ3uZA-302" value="YES" style="text;strokeColor=none;align=center;fillColor=none;html=1;verticalAlign=middle;whiteSpace=wrap;rounded=0;fontSize=9;" parent="1" vertex="1">
          <mxGeometry x="-430" y="700" width="30" height="22" as="geometry" />
        </mxCell>
        <mxCell id="MsqOn4zYzABH56GJ3uZA-303" value="YES" style="text;strokeColor=none;align=center;fillColor=none;html=1;verticalAlign=middle;whiteSpace=wrap;rounded=0;fontSize=9;" parent="1" vertex="1">
          <mxGeometry x="-333" y="621.75" width="30" height="22" as="geometry" />
        </mxCell>
        <mxCell id="MsqOn4zYzABH56GJ3uZA-304" value="YES" style="text;strokeColor=none;align=center;fillColor=none;html=1;verticalAlign=middle;whiteSpace=wrap;rounded=0;fontSize=9;" parent="1" vertex="1">
          <mxGeometry x="-428" y="615" width="30" height="22" as="geometry" />
        </mxCell>
        <mxCell id="MsqOn4zYzABH56GJ3uZA-305" value="YES" style="text;strokeColor=none;align=center;fillColor=none;html=1;verticalAlign=middle;whiteSpace=wrap;rounded=0;fontSize=9;" parent="1" vertex="1">
          <mxGeometry x="-428" y="575" width="30" height="22" as="geometry" />
        </mxCell>
        <mxCell id="MsqOn4zYzABH56GJ3uZA-306" value="YES" style="text;strokeColor=none;align=center;fillColor=none;html=1;verticalAlign=middle;whiteSpace=wrap;rounded=0;fontSize=9;" parent="1" vertex="1">
          <mxGeometry x="-333" y="575" width="30" height="22" as="geometry" />
        </mxCell>
        <mxCell id="MsqOn4zYzABH56GJ3uZA-307" value="YES" style="text;strokeColor=none;align=center;fillColor=none;html=1;verticalAlign=middle;whiteSpace=wrap;rounded=0;fontSize=9;" parent="1" vertex="1">
          <mxGeometry x="-233" y="505" width="30" height="22" as="geometry" />
        </mxCell>
        <mxCell id="MsqOn4zYzABH56GJ3uZA-308" value="YES" style="text;strokeColor=none;align=center;fillColor=none;html=1;verticalAlign=middle;whiteSpace=wrap;rounded=0;fontSize=9;" parent="1" vertex="1">
          <mxGeometry x="-332" y="514" width="30" height="22" as="geometry" />
        </mxCell>
        <mxCell id="MsqOn4zYzABH56GJ3uZA-309" value="YES" style="text;strokeColor=none;align=center;fillColor=none;html=1;verticalAlign=middle;whiteSpace=wrap;rounded=0;fontSize=9;" parent="1" vertex="1">
          <mxGeometry x="-431" y="505" width="30" height="22" as="geometry" />
        </mxCell>
        <mxCell id="MsqOn4zYzABH56GJ3uZA-310" value="NO" style="text;strokeColor=none;align=center;fillColor=none;html=1;verticalAlign=middle;whiteSpace=wrap;rounded=0;fontSize=9;" parent="1" vertex="1">
          <mxGeometry x="158" y="649.75" width="60" height="30" as="geometry" />
        </mxCell>
        <mxCell id="MsqOn4zYzABH56GJ3uZA-311" value="" style="rounded=0;whiteSpace=wrap;html=1;shadow=0;" parent="1" vertex="1">
          <mxGeometry x="286" y="419" width="120" height="40" as="geometry" />
        </mxCell>
        <mxCell id="MsqOn4zYzABH56GJ3uZA-312" value="" style="rounded=0;whiteSpace=wrap;html=1;" parent="1" vertex="1">
          <mxGeometry x="306" y="857" width="80" height="40" as="geometry" />
        </mxCell>
        <mxCell id="MsqOn4zYzABH56GJ3uZA-313" value="Pengembalian DRM" style="text;strokeColor=none;align=center;fillColor=none;html=1;verticalAlign=middle;whiteSpace=wrap;rounded=0;" parent="1" vertex="1">
          <mxGeometry x="301" y="419" width="90" height="40" as="geometry" />
        </mxCell>
        <mxCell id="MsqOn4zYzABH56GJ3uZA-314" style="edgeStyle=none;rounded=0;orthogonalLoop=1;jettySize=auto;html=1;exitX=0.5;exitY=1;exitDx=0;exitDy=0;entryX=0.5;entryY=0;entryDx=0;entryDy=0;" parent="1" source="MsqOn4zYzABH56GJ3uZA-315" target="MsqOn4zYzABH56GJ3uZA-316" edge="1">
          <mxGeometry relative="1" as="geometry" />
        </mxCell>
        <mxCell id="MsqOn4zYzABH56GJ3uZA-315" value="" style="rhombus;whiteSpace=wrap;html=1;" parent="1" vertex="1">
          <mxGeometry x="306" y="479" width="80" height="40" as="geometry" />
        </mxCell>
        <mxCell id="MsqOn4zYzABH56GJ3uZA-316" value="" style="rounded=0;whiteSpace=wrap;html=1;" parent="1" vertex="1">
          <mxGeometry x="306" y="539" width="80" height="40" as="geometry" />
        </mxCell>
        <mxCell id="MsqOn4zYzABH56GJ3uZA-317" value="" style="rounded=0;whiteSpace=wrap;html=1;" parent="1" vertex="1">
          <mxGeometry x="406" y="539" width="80" height="40" as="geometry" />
        </mxCell>
        <mxCell id="MsqOn4zYzABH56GJ3uZA-318" value="" style="rounded=0;whiteSpace=wrap;html=1;" parent="1" vertex="1">
          <mxGeometry x="206" y="539" width="80" height="40" as="geometry" />
        </mxCell>
        <mxCell id="MsqOn4zYzABH56GJ3uZA-319" value="" style="rounded=0;whiteSpace=wrap;html=1;" parent="1" vertex="1">
          <mxGeometry x="306" y="599" width="80" height="20" as="geometry" />
        </mxCell>
        <mxCell id="MsqOn4zYzABH56GJ3uZA-320" value="" style="rounded=0;whiteSpace=wrap;html=1;" parent="1" vertex="1">
          <mxGeometry x="206" y="599" width="80" height="20" as="geometry" />
        </mxCell>
        <mxCell id="MsqOn4zYzABH56GJ3uZA-321" value="" style="rhombus;whiteSpace=wrap;html=1;" parent="1" vertex="1">
          <mxGeometry x="196" y="634" width="100" height="75" as="geometry" />
        </mxCell>
        <mxCell id="MsqOn4zYzABH56GJ3uZA-322" value="Tambah Data" style="text;strokeColor=none;align=center;fillColor=none;html=1;verticalAlign=middle;whiteSpace=wrap;rounded=0;" parent="1" vertex="1">
          <mxGeometry x="216" y="544" width="60" height="30" as="geometry" />
        </mxCell>
        <mxCell id="MsqOn4zYzABH56GJ3uZA-323" value="Edit Data" style="text;strokeColor=none;align=center;fillColor=none;html=1;verticalAlign=middle;whiteSpace=wrap;rounded=0;" parent="1" vertex="1">
          <mxGeometry x="316" y="544" width="60" height="30" as="geometry" />
        </mxCell>
        <mxCell id="MsqOn4zYzABH56GJ3uZA-324" value="Hapus Data" style="text;strokeColor=none;align=center;fillColor=none;html=1;verticalAlign=middle;whiteSpace=wrap;rounded=0;" parent="1" vertex="1">
          <mxGeometry x="416" y="544" width="60" height="30" as="geometry" />
        </mxCell>
        <mxCell id="MsqOn4zYzABH56GJ3uZA-325" value="Simpan" style="text;strokeColor=none;align=center;fillColor=none;html=1;verticalAlign=middle;whiteSpace=wrap;rounded=0;" parent="1" vertex="1">
          <mxGeometry x="216" y="599" width="60" height="20" as="geometry" />
        </mxCell>
        <mxCell id="MsqOn4zYzABH56GJ3uZA-326" value="Simpan" style="text;strokeColor=none;align=center;fillColor=none;html=1;verticalAlign=middle;whiteSpace=wrap;rounded=0;" parent="1" vertex="1">
          <mxGeometry x="316" y="599" width="60" height="20" as="geometry" />
        </mxCell>
        <mxCell id="MsqOn4zYzABH56GJ3uZA-327" value="Data Sudah ada / Data Masih Kosong&amp;nbsp;" style="text;strokeColor=none;align=center;fillColor=none;html=1;verticalAlign=middle;whiteSpace=wrap;rounded=0;fontSize=9;" parent="1" vertex="1">
          <mxGeometry x="206" y="659" width="80" height="40" as="geometry" />
        </mxCell>
        <mxCell id="MsqOn4zYzABH56GJ3uZA-328" value="" style="endArrow=none;html=1;rounded=0;entryX=1;entryY=0.5;entryDx=0;entryDy=0;" parent="1" target="MsqOn4zYzABH56GJ3uZA-315" edge="1">
          <mxGeometry width="50" height="50" relative="1" as="geometry">
            <mxPoint x="446" y="499" as="sourcePoint" />
            <mxPoint x="476" y="509" as="targetPoint" />
          </mxGeometry>
        </mxCell>
        <mxCell id="MsqOn4zYzABH56GJ3uZA-329" value="" style="endArrow=none;html=1;rounded=0;" parent="1" edge="1">
          <mxGeometry width="50" height="50" relative="1" as="geometry">
            <mxPoint x="246" y="499" as="sourcePoint" />
            <mxPoint x="306" y="499" as="targetPoint" />
          </mxGeometry>
        </mxCell>
        <mxCell id="MsqOn4zYzABH56GJ3uZA-330" value="" style="endArrow=classic;html=1;rounded=0;entryX=0.5;entryY=0;entryDx=0;entryDy=0;" parent="1" target="MsqOn4zYzABH56GJ3uZA-318" edge="1">
          <mxGeometry width="50" height="50" relative="1" as="geometry">
            <mxPoint x="246" y="499" as="sourcePoint" />
            <mxPoint x="216" y="519" as="targetPoint" />
          </mxGeometry>
        </mxCell>
        <mxCell id="MsqOn4zYzABH56GJ3uZA-331" value="" style="endArrow=classic;html=1;rounded=0;entryX=0.5;entryY=0;entryDx=0;entryDy=0;" parent="1" target="MsqOn4zYzABH56GJ3uZA-317" edge="1">
          <mxGeometry width="50" height="50" relative="1" as="geometry">
            <mxPoint x="446" y="499" as="sourcePoint" />
            <mxPoint x="456" y="509" as="targetPoint" />
          </mxGeometry>
        </mxCell>
        <mxCell id="MsqOn4zYzABH56GJ3uZA-332" value="" style="endArrow=classic;html=1;rounded=0;exitX=0.5;exitY=1;exitDx=0;exitDy=0;" parent="1" source="MsqOn4zYzABH56GJ3uZA-316" edge="1">
          <mxGeometry width="50" height="50" relative="1" as="geometry">
            <mxPoint x="306" y="639" as="sourcePoint" />
            <mxPoint x="346" y="599" as="targetPoint" />
          </mxGeometry>
        </mxCell>
        <mxCell id="MsqOn4zYzABH56GJ3uZA-333" value="" style="endArrow=classic;html=1;rounded=0;exitX=0.5;exitY=1;exitDx=0;exitDy=0;" parent="1" source="MsqOn4zYzABH56GJ3uZA-318" edge="1">
          <mxGeometry width="50" height="50" relative="1" as="geometry">
            <mxPoint x="216" y="629" as="sourcePoint" />
            <mxPoint x="246" y="599" as="targetPoint" />
          </mxGeometry>
        </mxCell>
        <mxCell id="MsqOn4zYzABH56GJ3uZA-334" value="" style="endArrow=classic;html=1;rounded=0;entryX=0.5;entryY=0;entryDx=0;entryDy=0;exitX=0.5;exitY=1;exitDx=0;exitDy=0;" parent="1" source="MsqOn4zYzABH56GJ3uZA-325" target="MsqOn4zYzABH56GJ3uZA-321" edge="1">
          <mxGeometry width="50" height="50" relative="1" as="geometry">
            <mxPoint x="166" y="679" as="sourcePoint" />
            <mxPoint x="216" y="629" as="targetPoint" />
          </mxGeometry>
        </mxCell>
        <mxCell id="MsqOn4zYzABH56GJ3uZA-335" value="" style="endArrow=classic;html=1;rounded=0;entryX=0;entryY=0;entryDx=42.5;entryDy=0;entryPerimeter=0;exitX=0.5;exitY=1;exitDx=0;exitDy=0;" parent="1" source="MsqOn4zYzABH56GJ3uZA-326" target="MsqOn4zYzABH56GJ3uZA-336" edge="1">
          <mxGeometry width="50" height="50" relative="1" as="geometry">
            <mxPoint x="296" y="689" as="sourcePoint" />
            <mxPoint x="346" y="639" as="targetPoint" />
          </mxGeometry>
        </mxCell>
        <mxCell id="MsqOn4zYzABH56GJ3uZA-336" value="" style="shape=display;whiteSpace=wrap;html=1;" parent="1" vertex="1">
          <mxGeometry x="304" y="656.5" width="80" height="30" as="geometry" />
        </mxCell>
        <mxCell id="MsqOn4zYzABH56GJ3uZA-337" value="Data Tersimpan" style="text;strokeColor=none;align=center;fillColor=none;html=1;verticalAlign=middle;whiteSpace=wrap;rounded=0;fontSize=9;" parent="1" vertex="1">
          <mxGeometry x="306" y="665.25" width="80" height="12.5" as="geometry" />
        </mxCell>
        <mxCell id="MsqOn4zYzABH56GJ3uZA-338" value="" style="endArrow=classic;html=1;rounded=0;entryX=0;entryY=0;entryDx=42.5;entryDy=0;entryPerimeter=0;exitX=0.5;exitY=1;exitDx=0;exitDy=0;" parent="1" source="MsqOn4zYzABH56GJ3uZA-321" target="MsqOn4zYzABH56GJ3uZA-339" edge="1">
          <mxGeometry width="50" height="50" relative="1" as="geometry">
            <mxPoint x="196" y="839" as="sourcePoint" />
            <mxPoint x="246" y="789" as="targetPoint" />
          </mxGeometry>
        </mxCell>
        <mxCell id="MsqOn4zYzABH56GJ3uZA-339" value="" style="shape=display;whiteSpace=wrap;html=1;" parent="1" vertex="1">
          <mxGeometry x="204" y="724" width="80" height="30" as="geometry" />
        </mxCell>
        <mxCell id="MsqOn4zYzABH56GJ3uZA-340" value="Data Tersimpan" style="text;strokeColor=none;align=center;fillColor=none;html=1;verticalAlign=middle;whiteSpace=wrap;rounded=0;fontSize=9;" parent="1" vertex="1">
          <mxGeometry x="206" y="731.75" width="80" height="12.5" as="geometry" />
        </mxCell>
        <mxCell id="MsqOn4zYzABH56GJ3uZA-341" value="" style="endArrow=classic;html=1;rounded=0;entryX=0.5;entryY=0;entryDx=0;entryDy=0;exitX=0;exitY=0;exitDx=42.5;exitDy=30;exitPerimeter=0;" parent="1" source="MsqOn4zYzABH56GJ3uZA-336" target="MsqOn4zYzABH56GJ3uZA-346" edge="1">
          <mxGeometry width="50" height="50" relative="1" as="geometry">
            <mxPoint x="366" y="749" as="sourcePoint" />
            <mxPoint x="416" y="699" as="targetPoint" />
          </mxGeometry>
        </mxCell>
        <mxCell id="MsqOn4zYzABH56GJ3uZA-342" value="" style="endArrow=none;html=1;rounded=0;entryX=0;entryY=0;entryDx=42.5;entryDy=30;entryPerimeter=0;" parent="1" target="MsqOn4zYzABH56GJ3uZA-339" edge="1">
          <mxGeometry width="50" height="50" relative="1" as="geometry">
            <mxPoint x="246" y="779" as="sourcePoint" />
            <mxPoint x="246" y="759" as="targetPoint" />
          </mxGeometry>
        </mxCell>
        <mxCell id="MsqOn4zYzABH56GJ3uZA-343" value="" style="endArrow=none;html=1;rounded=0;" parent="1" edge="1">
          <mxGeometry width="50" height="50" relative="1" as="geometry">
            <mxPoint x="246" y="779" as="sourcePoint" />
            <mxPoint x="346" y="779" as="targetPoint" />
          </mxGeometry>
        </mxCell>
        <mxCell id="MsqOn4zYzABH56GJ3uZA-344" value="" style="endArrow=none;html=1;rounded=0;entryX=0.5;entryY=1;entryDx=0;entryDy=0;" parent="1" target="MsqOn4zYzABH56GJ3uZA-317" edge="1">
          <mxGeometry width="50" height="50" relative="1" as="geometry">
            <mxPoint x="446" y="779" as="sourcePoint" />
            <mxPoint x="456" y="659" as="targetPoint" />
          </mxGeometry>
        </mxCell>
        <mxCell id="MsqOn4zYzABH56GJ3uZA-345" value="" style="endArrow=none;html=1;rounded=0;" parent="1" edge="1">
          <mxGeometry width="50" height="50" relative="1" as="geometry">
            <mxPoint x="346" y="779" as="sourcePoint" />
            <mxPoint x="446" y="779" as="targetPoint" />
          </mxGeometry>
        </mxCell>
        <mxCell id="MsqOn4zYzABH56GJ3uZA-346" value="" style="rhombus;whiteSpace=wrap;html=1;" parent="1" vertex="1">
          <mxGeometry x="306" y="797" width="80" height="40" as="geometry" />
        </mxCell>
        <mxCell id="MsqOn4zYzABH56GJ3uZA-347" value="Lagi?" style="text;strokeColor=none;align=center;fillColor=none;html=1;verticalAlign=middle;whiteSpace=wrap;rounded=0;" parent="1" vertex="1">
          <mxGeometry x="316" y="807" width="60" height="20" as="geometry" />
        </mxCell>
        <mxCell id="MsqOn4zYzABH56GJ3uZA-348" value="Keluar dari menu" style="text;strokeColor=none;align=center;fillColor=none;html=1;verticalAlign=middle;whiteSpace=wrap;rounded=0;" parent="1" vertex="1">
          <mxGeometry x="316" y="867" width="60" height="20" as="geometry" />
        </mxCell>
        <mxCell id="MsqOn4zYzABH56GJ3uZA-349" value="" style="endArrow=classic;html=1;rounded=0;entryX=0.5;entryY=0;entryDx=0;entryDy=0;exitX=0.5;exitY=1;exitDx=0;exitDy=0;" parent="1" source="MsqOn4zYzABH56GJ3uZA-346" target="MsqOn4zYzABH56GJ3uZA-312" edge="1">
          <mxGeometry width="50" height="50" relative="1" as="geometry">
            <mxPoint x="216" y="887" as="sourcePoint" />
            <mxPoint x="266" y="837" as="targetPoint" />
          </mxGeometry>
        </mxCell>
        <mxCell id="MsqOn4zYzABH56GJ3uZA-350" value="" style="endArrow=none;html=1;rounded=0;exitX=1;exitY=0.5;exitDx=0;exitDy=0;entryX=1;entryY=1;entryDx=0;entryDy=0;" parent="1" source="MsqOn4zYzABH56GJ3uZA-346" target="MsqOn4zYzABH56GJ3uZA-357" edge="1">
          <mxGeometry width="50" height="50" relative="1" as="geometry">
            <mxPoint x="426" y="816.41" as="sourcePoint" />
            <mxPoint x="496" y="816" as="targetPoint" />
          </mxGeometry>
        </mxCell>
        <mxCell id="MsqOn4zYzABH56GJ3uZA-351" value="" style="endArrow=none;html=1;rounded=0;" parent="1" edge="1">
          <mxGeometry width="50" height="50" relative="1" as="geometry">
            <mxPoint x="496" y="819" as="sourcePoint" />
            <mxPoint x="496" y="439" as="targetPoint" />
          </mxGeometry>
        </mxCell>
        <mxCell id="MsqOn4zYzABH56GJ3uZA-353" value="" style="endArrow=none;html=1;rounded=0;exitX=0.5;exitY=0;exitDx=0;exitDy=0;entryX=0.5;entryY=1;entryDx=0;entryDy=0;" parent="1" source="MsqOn4zYzABH56GJ3uZA-315" target="MsqOn4zYzABH56GJ3uZA-311" edge="1">
          <mxGeometry width="50" height="50" relative="1" as="geometry">
            <mxPoint x="166" y="529" as="sourcePoint" />
            <mxPoint x="216" y="479" as="targetPoint" />
          </mxGeometry>
        </mxCell>
        <mxCell id="MsqOn4zYzABH56GJ3uZA-354" value="" style="endArrow=none;html=1;rounded=0;" parent="1" edge="1">
          <mxGeometry width="50" height="50" relative="1" as="geometry">
            <mxPoint x="176" y="672" as="sourcePoint" />
            <mxPoint x="176" y="559" as="targetPoint" />
          </mxGeometry>
        </mxCell>
        <mxCell id="MsqOn4zYzABH56GJ3uZA-356" value="" style="endArrow=none;html=1;rounded=0;entryX=0;entryY=0.5;entryDx=0;entryDy=0;" parent="1" target="MsqOn4zYzABH56GJ3uZA-321" edge="1">
          <mxGeometry width="50" height="50" relative="1" as="geometry">
            <mxPoint x="176" y="672" as="sourcePoint" />
            <mxPoint x="186" y="679" as="targetPoint" />
          </mxGeometry>
        </mxCell>
        <mxCell id="MsqOn4zYzABH56GJ3uZA-357" value="NO" style="text;strokeColor=none;align=center;fillColor=none;html=1;verticalAlign=middle;whiteSpace=wrap;rounded=0;fontSize=9;" parent="1" vertex="1">
          <mxGeometry x="436" y="789" width="60" height="30" as="geometry" />
        </mxCell>
        <mxCell id="MsqOn4zYzABH56GJ3uZA-358" value="YES" style="text;strokeColor=none;align=center;fillColor=none;html=1;verticalAlign=middle;whiteSpace=wrap;rounded=0;fontSize=9;" parent="1" vertex="1">
          <mxGeometry x="331" y="827" width="60" height="30" as="geometry" />
        </mxCell>
        <mxCell id="MsqOn4zYzABH56GJ3uZA-359" value="YES" style="text;strokeColor=none;align=center;fillColor=none;html=1;verticalAlign=middle;whiteSpace=wrap;rounded=0;fontSize=9;" parent="1" vertex="1">
          <mxGeometry x="347" y="779" width="30" height="22" as="geometry" />
        </mxCell>
        <mxCell id="MsqOn4zYzABH56GJ3uZA-360" value="YES" style="text;strokeColor=none;align=center;fillColor=none;html=1;verticalAlign=middle;whiteSpace=wrap;rounded=0;fontSize=9;" parent="1" vertex="1">
          <mxGeometry x="347" y="722.25" width="30" height="22" as="geometry" />
        </mxCell>
        <mxCell id="MsqOn4zYzABH56GJ3uZA-361" value="YES" style="text;strokeColor=none;align=center;fillColor=none;html=1;verticalAlign=middle;whiteSpace=wrap;rounded=0;fontSize=9;" parent="1" vertex="1">
          <mxGeometry x="446" y="660.5" width="30" height="22" as="geometry" />
        </mxCell>
        <mxCell id="MsqOn4zYzABH56GJ3uZA-362" value="YES" style="text;strokeColor=none;align=center;fillColor=none;html=1;verticalAlign=middle;whiteSpace=wrap;rounded=0;fontSize=9;" parent="1" vertex="1">
          <mxGeometry x="246" y="757" width="30" height="22" as="geometry" />
        </mxCell>
        <mxCell id="MsqOn4zYzABH56GJ3uZA-363" value="YES" style="text;strokeColor=none;align=center;fillColor=none;html=1;verticalAlign=middle;whiteSpace=wrap;rounded=0;fontSize=9;" parent="1" vertex="1">
          <mxGeometry x="249" y="704" width="30" height="22" as="geometry" />
        </mxCell>
        <mxCell id="MsqOn4zYzABH56GJ3uZA-364" value="YES" style="text;strokeColor=none;align=center;fillColor=none;html=1;verticalAlign=middle;whiteSpace=wrap;rounded=0;fontSize=9;" parent="1" vertex="1">
          <mxGeometry x="346" y="625.75" width="30" height="22" as="geometry" />
        </mxCell>
        <mxCell id="MsqOn4zYzABH56GJ3uZA-365" value="YES" style="text;strokeColor=none;align=center;fillColor=none;html=1;verticalAlign=middle;whiteSpace=wrap;rounded=0;fontSize=9;" parent="1" vertex="1">
          <mxGeometry x="251" y="619" width="30" height="22" as="geometry" />
        </mxCell>
        <mxCell id="MsqOn4zYzABH56GJ3uZA-366" value="YES" style="text;strokeColor=none;align=center;fillColor=none;html=1;verticalAlign=middle;whiteSpace=wrap;rounded=0;fontSize=9;" parent="1" vertex="1">
          <mxGeometry x="251" y="579" width="30" height="22" as="geometry" />
        </mxCell>
        <mxCell id="MsqOn4zYzABH56GJ3uZA-367" value="YES" style="text;strokeColor=none;align=center;fillColor=none;html=1;verticalAlign=middle;whiteSpace=wrap;rounded=0;fontSize=9;" parent="1" vertex="1">
          <mxGeometry x="346" y="579" width="30" height="22" as="geometry" />
        </mxCell>
        <mxCell id="MsqOn4zYzABH56GJ3uZA-368" value="YES" style="text;strokeColor=none;align=center;fillColor=none;html=1;verticalAlign=middle;whiteSpace=wrap;rounded=0;fontSize=9;" parent="1" vertex="1">
          <mxGeometry x="446" y="509" width="30" height="22" as="geometry" />
        </mxCell>
        <mxCell id="MsqOn4zYzABH56GJ3uZA-369" value="YES" style="text;strokeColor=none;align=center;fillColor=none;html=1;verticalAlign=middle;whiteSpace=wrap;rounded=0;fontSize=9;" parent="1" vertex="1">
          <mxGeometry x="347" y="518" width="30" height="22" as="geometry" />
        </mxCell>
        <mxCell id="MsqOn4zYzABH56GJ3uZA-370" value="YES" style="text;strokeColor=none;align=center;fillColor=none;html=1;verticalAlign=middle;whiteSpace=wrap;rounded=0;fontSize=9;" parent="1" vertex="1">
          <mxGeometry x="248" y="509" width="30" height="22" as="geometry" />
        </mxCell>
        <mxCell id="MsqOn4zYzABH56GJ3uZA-371" value="" style="rounded=0;whiteSpace=wrap;html=1;shadow=0;" parent="1" vertex="1">
          <mxGeometry x="623" y="418" width="120" height="40" as="geometry" />
        </mxCell>
        <mxCell id="MsqOn4zYzABH56GJ3uZA-372" value="" style="rounded=0;whiteSpace=wrap;html=1;" parent="1" vertex="1">
          <mxGeometry x="643" y="856" width="80" height="40" as="geometry" />
        </mxCell>
        <mxCell id="MsqOn4zYzABH56GJ3uZA-373" value="Laporan" style="text;strokeColor=none;align=center;fillColor=none;html=1;verticalAlign=middle;whiteSpace=wrap;rounded=0;" parent="1" vertex="1">
          <mxGeometry x="638" y="418" width="90" height="40" as="geometry" />
        </mxCell>
        <mxCell id="MsqOn4zYzABH56GJ3uZA-374" style="edgeStyle=none;rounded=0;orthogonalLoop=1;jettySize=auto;html=1;exitX=0.5;exitY=1;exitDx=0;exitDy=0;entryX=0.5;entryY=0;entryDx=0;entryDy=0;" parent="1" source="MsqOn4zYzABH56GJ3uZA-375" target="MsqOn4zYzABH56GJ3uZA-376" edge="1">
          <mxGeometry relative="1" as="geometry" />
        </mxCell>
        <mxCell id="MsqOn4zYzABH56GJ3uZA-375" value="" style="rhombus;whiteSpace=wrap;html=1;" parent="1" vertex="1">
          <mxGeometry x="643" y="478" width="80" height="40" as="geometry" />
        </mxCell>
        <mxCell id="MsqOn4zYzABH56GJ3uZA-376" value="" style="rounded=0;whiteSpace=wrap;html=1;" parent="1" vertex="1">
          <mxGeometry x="643" y="538" width="80" height="40" as="geometry" />
        </mxCell>
        <mxCell id="MsqOn4zYzABH56GJ3uZA-377" value="" style="rounded=0;whiteSpace=wrap;html=1;" parent="1" vertex="1">
          <mxGeometry x="743" y="538" width="80" height="40" as="geometry" />
        </mxCell>
        <mxCell id="MsqOn4zYzABH56GJ3uZA-378" value="" style="rounded=0;whiteSpace=wrap;html=1;" parent="1" vertex="1">
          <mxGeometry x="543" y="538" width="80" height="40" as="geometry" />
        </mxCell>
        <mxCell id="MsqOn4zYzABH56GJ3uZA-379" value="" style="rounded=0;whiteSpace=wrap;html=1;" parent="1" vertex="1">
          <mxGeometry x="643" y="598" width="80" height="20" as="geometry" />
        </mxCell>
        <mxCell id="MsqOn4zYzABH56GJ3uZA-380" value="" style="rounded=0;whiteSpace=wrap;html=1;" parent="1" vertex="1">
          <mxGeometry x="543" y="598" width="80" height="20" as="geometry" />
        </mxCell>
        <mxCell id="MsqOn4zYzABH56GJ3uZA-381" value="" style="rhombus;whiteSpace=wrap;html=1;" parent="1" vertex="1">
          <mxGeometry x="533" y="633" width="100" height="75" as="geometry" />
        </mxCell>
        <mxCell id="MsqOn4zYzABH56GJ3uZA-382" value="Tambah Data" style="text;strokeColor=none;align=center;fillColor=none;html=1;verticalAlign=middle;whiteSpace=wrap;rounded=0;" parent="1" vertex="1">
          <mxGeometry x="553" y="543" width="60" height="30" as="geometry" />
        </mxCell>
        <mxCell id="MsqOn4zYzABH56GJ3uZA-383" value="Edit Data" style="text;strokeColor=none;align=center;fillColor=none;html=1;verticalAlign=middle;whiteSpace=wrap;rounded=0;" parent="1" vertex="1">
          <mxGeometry x="653" y="543" width="60" height="30" as="geometry" />
        </mxCell>
        <mxCell id="MsqOn4zYzABH56GJ3uZA-384" value="Hapus Data" style="text;strokeColor=none;align=center;fillColor=none;html=1;verticalAlign=middle;whiteSpace=wrap;rounded=0;" parent="1" vertex="1">
          <mxGeometry x="753" y="543" width="60" height="30" as="geometry" />
        </mxCell>
        <mxCell id="MsqOn4zYzABH56GJ3uZA-385" value="Simpan" style="text;strokeColor=none;align=center;fillColor=none;html=1;verticalAlign=middle;whiteSpace=wrap;rounded=0;" parent="1" vertex="1">
          <mxGeometry x="553" y="598" width="60" height="20" as="geometry" />
        </mxCell>
        <mxCell id="MsqOn4zYzABH56GJ3uZA-386" value="Simpan" style="text;strokeColor=none;align=center;fillColor=none;html=1;verticalAlign=middle;whiteSpace=wrap;rounded=0;" parent="1" vertex="1">
          <mxGeometry x="653" y="598" width="60" height="20" as="geometry" />
        </mxCell>
        <mxCell id="MsqOn4zYzABH56GJ3uZA-387" value="Data Sudah ada / Data Masih Kosong&amp;nbsp;" style="text;strokeColor=none;align=center;fillColor=none;html=1;verticalAlign=middle;whiteSpace=wrap;rounded=0;fontSize=9;" parent="1" vertex="1">
          <mxGeometry x="543" y="658" width="80" height="40" as="geometry" />
        </mxCell>
        <mxCell id="MsqOn4zYzABH56GJ3uZA-388" value="" style="endArrow=none;html=1;rounded=0;entryX=1;entryY=0.5;entryDx=0;entryDy=0;" parent="1" target="MsqOn4zYzABH56GJ3uZA-375" edge="1">
          <mxGeometry width="50" height="50" relative="1" as="geometry">
            <mxPoint x="783" y="498" as="sourcePoint" />
            <mxPoint x="813" y="508" as="targetPoint" />
          </mxGeometry>
        </mxCell>
        <mxCell id="MsqOn4zYzABH56GJ3uZA-389" value="" style="endArrow=none;html=1;rounded=0;" parent="1" edge="1">
          <mxGeometry width="50" height="50" relative="1" as="geometry">
            <mxPoint x="583" y="498" as="sourcePoint" />
            <mxPoint x="643" y="498" as="targetPoint" />
          </mxGeometry>
        </mxCell>
        <mxCell id="MsqOn4zYzABH56GJ3uZA-390" value="" style="endArrow=classic;html=1;rounded=0;entryX=0.5;entryY=0;entryDx=0;entryDy=0;" parent="1" target="MsqOn4zYzABH56GJ3uZA-378" edge="1">
          <mxGeometry width="50" height="50" relative="1" as="geometry">
            <mxPoint x="583" y="498" as="sourcePoint" />
            <mxPoint x="553" y="518" as="targetPoint" />
          </mxGeometry>
        </mxCell>
        <mxCell id="MsqOn4zYzABH56GJ3uZA-391" value="" style="endArrow=classic;html=1;rounded=0;entryX=0.5;entryY=0;entryDx=0;entryDy=0;" parent="1" target="MsqOn4zYzABH56GJ3uZA-377" edge="1">
          <mxGeometry width="50" height="50" relative="1" as="geometry">
            <mxPoint x="783" y="498" as="sourcePoint" />
            <mxPoint x="793" y="508" as="targetPoint" />
          </mxGeometry>
        </mxCell>
        <mxCell id="MsqOn4zYzABH56GJ3uZA-392" value="" style="endArrow=classic;html=1;rounded=0;exitX=0.5;exitY=1;exitDx=0;exitDy=0;" parent="1" source="MsqOn4zYzABH56GJ3uZA-376" edge="1">
          <mxGeometry width="50" height="50" relative="1" as="geometry">
            <mxPoint x="643" y="638" as="sourcePoint" />
            <mxPoint x="683" y="598" as="targetPoint" />
          </mxGeometry>
        </mxCell>
        <mxCell id="MsqOn4zYzABH56GJ3uZA-393" value="" style="endArrow=classic;html=1;rounded=0;exitX=0.5;exitY=1;exitDx=0;exitDy=0;" parent="1" source="MsqOn4zYzABH56GJ3uZA-378" edge="1">
          <mxGeometry width="50" height="50" relative="1" as="geometry">
            <mxPoint x="553" y="628" as="sourcePoint" />
            <mxPoint x="583" y="598" as="targetPoint" />
          </mxGeometry>
        </mxCell>
        <mxCell id="MsqOn4zYzABH56GJ3uZA-394" value="" style="endArrow=classic;html=1;rounded=0;entryX=0.5;entryY=0;entryDx=0;entryDy=0;exitX=0.5;exitY=1;exitDx=0;exitDy=0;" parent="1" source="MsqOn4zYzABH56GJ3uZA-385" target="MsqOn4zYzABH56GJ3uZA-381" edge="1">
          <mxGeometry width="50" height="50" relative="1" as="geometry">
            <mxPoint x="503" y="678" as="sourcePoint" />
            <mxPoint x="553" y="628" as="targetPoint" />
          </mxGeometry>
        </mxCell>
        <mxCell id="MsqOn4zYzABH56GJ3uZA-395" value="" style="endArrow=classic;html=1;rounded=0;entryX=0;entryY=0;entryDx=42.5;entryDy=0;entryPerimeter=0;exitX=0.5;exitY=1;exitDx=0;exitDy=0;" parent="1" source="MsqOn4zYzABH56GJ3uZA-386" target="MsqOn4zYzABH56GJ3uZA-396" edge="1">
          <mxGeometry width="50" height="50" relative="1" as="geometry">
            <mxPoint x="633" y="688" as="sourcePoint" />
            <mxPoint x="683" y="638" as="targetPoint" />
          </mxGeometry>
        </mxCell>
        <mxCell id="MsqOn4zYzABH56GJ3uZA-396" value="" style="shape=display;whiteSpace=wrap;html=1;" parent="1" vertex="1">
          <mxGeometry x="641" y="655.5" width="80" height="30" as="geometry" />
        </mxCell>
        <mxCell id="MsqOn4zYzABH56GJ3uZA-397" value="Data Tersimpan" style="text;strokeColor=none;align=center;fillColor=none;html=1;verticalAlign=middle;whiteSpace=wrap;rounded=0;fontSize=9;" parent="1" vertex="1">
          <mxGeometry x="643" y="664.25" width="80" height="12.5" as="geometry" />
        </mxCell>
        <mxCell id="MsqOn4zYzABH56GJ3uZA-398" value="" style="endArrow=classic;html=1;rounded=0;entryX=0;entryY=0;entryDx=42.5;entryDy=0;entryPerimeter=0;exitX=0.5;exitY=1;exitDx=0;exitDy=0;" parent="1" source="MsqOn4zYzABH56GJ3uZA-381" target="MsqOn4zYzABH56GJ3uZA-399" edge="1">
          <mxGeometry width="50" height="50" relative="1" as="geometry">
            <mxPoint x="533" y="838" as="sourcePoint" />
            <mxPoint x="583" y="788" as="targetPoint" />
          </mxGeometry>
        </mxCell>
        <mxCell id="MsqOn4zYzABH56GJ3uZA-399" value="" style="shape=display;whiteSpace=wrap;html=1;" parent="1" vertex="1">
          <mxGeometry x="541" y="723" width="80" height="30" as="geometry" />
        </mxCell>
        <mxCell id="MsqOn4zYzABH56GJ3uZA-400" value="Data Tersimpan" style="text;strokeColor=none;align=center;fillColor=none;html=1;verticalAlign=middle;whiteSpace=wrap;rounded=0;fontSize=9;" parent="1" vertex="1">
          <mxGeometry x="543" y="730.75" width="80" height="12.5" as="geometry" />
        </mxCell>
        <mxCell id="MsqOn4zYzABH56GJ3uZA-401" value="" style="endArrow=classic;html=1;rounded=0;entryX=0.5;entryY=0;entryDx=0;entryDy=0;exitX=0;exitY=0;exitDx=42.5;exitDy=30;exitPerimeter=0;" parent="1" source="MsqOn4zYzABH56GJ3uZA-396" target="MsqOn4zYzABH56GJ3uZA-406" edge="1">
          <mxGeometry width="50" height="50" relative="1" as="geometry">
            <mxPoint x="703" y="748" as="sourcePoint" />
            <mxPoint x="753" y="698" as="targetPoint" />
          </mxGeometry>
        </mxCell>
        <mxCell id="MsqOn4zYzABH56GJ3uZA-402" value="" style="endArrow=none;html=1;rounded=0;entryX=0;entryY=0;entryDx=42.5;entryDy=30;entryPerimeter=0;" parent="1" target="MsqOn4zYzABH56GJ3uZA-399" edge="1">
          <mxGeometry width="50" height="50" relative="1" as="geometry">
            <mxPoint x="583" y="778" as="sourcePoint" />
            <mxPoint x="583" y="758" as="targetPoint" />
          </mxGeometry>
        </mxCell>
        <mxCell id="MsqOn4zYzABH56GJ3uZA-403" value="" style="endArrow=none;html=1;rounded=0;" parent="1" edge="1">
          <mxGeometry width="50" height="50" relative="1" as="geometry">
            <mxPoint x="583" y="778" as="sourcePoint" />
            <mxPoint x="683" y="778" as="targetPoint" />
          </mxGeometry>
        </mxCell>
        <mxCell id="MsqOn4zYzABH56GJ3uZA-404" value="" style="endArrow=none;html=1;rounded=0;entryX=0.5;entryY=1;entryDx=0;entryDy=0;" parent="1" target="MsqOn4zYzABH56GJ3uZA-377" edge="1">
          <mxGeometry width="50" height="50" relative="1" as="geometry">
            <mxPoint x="783" y="778" as="sourcePoint" />
            <mxPoint x="793" y="658" as="targetPoint" />
          </mxGeometry>
        </mxCell>
        <mxCell id="MsqOn4zYzABH56GJ3uZA-405" value="" style="endArrow=none;html=1;rounded=0;" parent="1" edge="1">
          <mxGeometry width="50" height="50" relative="1" as="geometry">
            <mxPoint x="683" y="778" as="sourcePoint" />
            <mxPoint x="783" y="778" as="targetPoint" />
          </mxGeometry>
        </mxCell>
        <mxCell id="MsqOn4zYzABH56GJ3uZA-406" value="" style="rhombus;whiteSpace=wrap;html=1;" parent="1" vertex="1">
          <mxGeometry x="643" y="796" width="80" height="40" as="geometry" />
        </mxCell>
        <mxCell id="MsqOn4zYzABH56GJ3uZA-407" value="Lagi?" style="text;strokeColor=none;align=center;fillColor=none;html=1;verticalAlign=middle;whiteSpace=wrap;rounded=0;" parent="1" vertex="1">
          <mxGeometry x="653" y="806" width="60" height="20" as="geometry" />
        </mxCell>
        <mxCell id="MsqOn4zYzABH56GJ3uZA-408" value="Keluar dari menu" style="text;strokeColor=none;align=center;fillColor=none;html=1;verticalAlign=middle;whiteSpace=wrap;rounded=0;" parent="1" vertex="1">
          <mxGeometry x="653" y="866" width="60" height="20" as="geometry" />
        </mxCell>
        <mxCell id="MsqOn4zYzABH56GJ3uZA-409" value="" style="endArrow=classic;html=1;rounded=0;entryX=0.5;entryY=0;entryDx=0;entryDy=0;exitX=0.5;exitY=1;exitDx=0;exitDy=0;" parent="1" source="MsqOn4zYzABH56GJ3uZA-406" target="MsqOn4zYzABH56GJ3uZA-372" edge="1">
          <mxGeometry width="50" height="50" relative="1" as="geometry">
            <mxPoint x="553" y="886" as="sourcePoint" />
            <mxPoint x="603" y="836" as="targetPoint" />
          </mxGeometry>
        </mxCell>
        <mxCell id="MsqOn4zYzABH56GJ3uZA-410" value="" style="endArrow=none;html=1;rounded=0;exitX=1;exitY=0.5;exitDx=0;exitDy=0;entryX=1;entryY=1;entryDx=0;entryDy=0;" parent="1" source="MsqOn4zYzABH56GJ3uZA-406" target="MsqOn4zYzABH56GJ3uZA-417" edge="1">
          <mxGeometry width="50" height="50" relative="1" as="geometry">
            <mxPoint x="763" y="815.41" as="sourcePoint" />
            <mxPoint x="833" y="815" as="targetPoint" />
          </mxGeometry>
        </mxCell>
        <mxCell id="MsqOn4zYzABH56GJ3uZA-411" value="" style="endArrow=none;html=1;rounded=0;" parent="1" edge="1">
          <mxGeometry width="50" height="50" relative="1" as="geometry">
            <mxPoint x="833" y="818" as="sourcePoint" />
            <mxPoint x="833" y="438" as="targetPoint" />
          </mxGeometry>
        </mxCell>
        <mxCell id="MsqOn4zYzABH56GJ3uZA-413" value="" style="endArrow=none;html=1;rounded=0;exitX=0.5;exitY=0;exitDx=0;exitDy=0;entryX=0.5;entryY=1;entryDx=0;entryDy=0;" parent="1" source="MsqOn4zYzABH56GJ3uZA-375" target="MsqOn4zYzABH56GJ3uZA-371" edge="1">
          <mxGeometry width="50" height="50" relative="1" as="geometry">
            <mxPoint x="503" y="528" as="sourcePoint" />
            <mxPoint x="553" y="478" as="targetPoint" />
          </mxGeometry>
        </mxCell>
        <mxCell id="MsqOn4zYzABH56GJ3uZA-414" value="" style="endArrow=none;html=1;rounded=0;" parent="1" edge="1">
          <mxGeometry width="50" height="50" relative="1" as="geometry">
            <mxPoint x="513" y="671" as="sourcePoint" />
            <mxPoint x="513" y="558" as="targetPoint" />
          </mxGeometry>
        </mxCell>
        <mxCell id="MsqOn4zYzABH56GJ3uZA-416" value="" style="endArrow=none;html=1;rounded=0;entryX=0;entryY=0.5;entryDx=0;entryDy=0;" parent="1" target="MsqOn4zYzABH56GJ3uZA-381" edge="1">
          <mxGeometry width="50" height="50" relative="1" as="geometry">
            <mxPoint x="513" y="671" as="sourcePoint" />
            <mxPoint x="523" y="678" as="targetPoint" />
          </mxGeometry>
        </mxCell>
        <mxCell id="MsqOn4zYzABH56GJ3uZA-417" value="NO" style="text;strokeColor=none;align=center;fillColor=none;html=1;verticalAlign=middle;whiteSpace=wrap;rounded=0;fontSize=9;" parent="1" vertex="1">
          <mxGeometry x="773" y="788" width="60" height="30" as="geometry" />
        </mxCell>
        <mxCell id="MsqOn4zYzABH56GJ3uZA-418" value="YES" style="text;strokeColor=none;align=center;fillColor=none;html=1;verticalAlign=middle;whiteSpace=wrap;rounded=0;fontSize=9;" parent="1" vertex="1">
          <mxGeometry x="668" y="826" width="60" height="30" as="geometry" />
        </mxCell>
        <mxCell id="MsqOn4zYzABH56GJ3uZA-419" value="YES" style="text;strokeColor=none;align=center;fillColor=none;html=1;verticalAlign=middle;whiteSpace=wrap;rounded=0;fontSize=9;" parent="1" vertex="1">
          <mxGeometry x="684" y="778" width="30" height="22" as="geometry" />
        </mxCell>
        <mxCell id="MsqOn4zYzABH56GJ3uZA-420" value="YES" style="text;strokeColor=none;align=center;fillColor=none;html=1;verticalAlign=middle;whiteSpace=wrap;rounded=0;fontSize=9;" parent="1" vertex="1">
          <mxGeometry x="684" y="721.25" width="30" height="22" as="geometry" />
        </mxCell>
        <mxCell id="MsqOn4zYzABH56GJ3uZA-421" value="YES" style="text;strokeColor=none;align=center;fillColor=none;html=1;verticalAlign=middle;whiteSpace=wrap;rounded=0;fontSize=9;" parent="1" vertex="1">
          <mxGeometry x="783" y="659.5" width="30" height="22" as="geometry" />
        </mxCell>
        <mxCell id="MsqOn4zYzABH56GJ3uZA-422" value="YES" style="text;strokeColor=none;align=center;fillColor=none;html=1;verticalAlign=middle;whiteSpace=wrap;rounded=0;fontSize=9;" parent="1" vertex="1">
          <mxGeometry x="583" y="756" width="30" height="22" as="geometry" />
        </mxCell>
        <mxCell id="MsqOn4zYzABH56GJ3uZA-423" value="YES" style="text;strokeColor=none;align=center;fillColor=none;html=1;verticalAlign=middle;whiteSpace=wrap;rounded=0;fontSize=9;" parent="1" vertex="1">
          <mxGeometry x="586" y="703" width="30" height="22" as="geometry" />
        </mxCell>
        <mxCell id="MsqOn4zYzABH56GJ3uZA-424" value="YES" style="text;strokeColor=none;align=center;fillColor=none;html=1;verticalAlign=middle;whiteSpace=wrap;rounded=0;fontSize=9;" parent="1" vertex="1">
          <mxGeometry x="683" y="624.75" width="30" height="22" as="geometry" />
        </mxCell>
        <mxCell id="MsqOn4zYzABH56GJ3uZA-425" value="YES" style="text;strokeColor=none;align=center;fillColor=none;html=1;verticalAlign=middle;whiteSpace=wrap;rounded=0;fontSize=9;" parent="1" vertex="1">
          <mxGeometry x="588" y="618" width="30" height="22" as="geometry" />
        </mxCell>
        <mxCell id="MsqOn4zYzABH56GJ3uZA-426" value="YES" style="text;strokeColor=none;align=center;fillColor=none;html=1;verticalAlign=middle;whiteSpace=wrap;rounded=0;fontSize=9;" parent="1" vertex="1">
          <mxGeometry x="588" y="578" width="30" height="22" as="geometry" />
        </mxCell>
        <mxCell id="MsqOn4zYzABH56GJ3uZA-427" value="YES" style="text;strokeColor=none;align=center;fillColor=none;html=1;verticalAlign=middle;whiteSpace=wrap;rounded=0;fontSize=9;" parent="1" vertex="1">
          <mxGeometry x="683" y="578" width="30" height="22" as="geometry" />
        </mxCell>
        <mxCell id="MsqOn4zYzABH56GJ3uZA-428" value="YES" style="text;strokeColor=none;align=center;fillColor=none;html=1;verticalAlign=middle;whiteSpace=wrap;rounded=0;fontSize=9;" parent="1" vertex="1">
          <mxGeometry x="783" y="508" width="30" height="22" as="geometry" />
        </mxCell>
        <mxCell id="MsqOn4zYzABH56GJ3uZA-429" value="YES" style="text;strokeColor=none;align=center;fillColor=none;html=1;verticalAlign=middle;whiteSpace=wrap;rounded=0;fontSize=9;" parent="1" vertex="1">
          <mxGeometry x="684" y="517" width="30" height="22" as="geometry" />
        </mxCell>
        <mxCell id="MsqOn4zYzABH56GJ3uZA-430" value="YES" style="text;strokeColor=none;align=center;fillColor=none;html=1;verticalAlign=middle;whiteSpace=wrap;rounded=0;fontSize=9;" parent="1" vertex="1">
          <mxGeometry x="585" y="508" width="30" height="22" as="geometry" />
        </mxCell>
        <mxCell id="MsqOn4zYzABH56GJ3uZA-853" value="" style="endArrow=classic;html=1;rounded=0;entryX=0.5;entryY=0;entryDx=0;entryDy=0;" parent="1" target="MsqOn4zYzABH56GJ3uZA-192" edge="1">
          <mxGeometry width="50" height="50" relative="1" as="geometry">
            <mxPoint x="-2" y="339" as="sourcePoint" />
            <mxPoint x="-60" y="339" as="targetPoint" />
          </mxGeometry>
        </mxCell>
        <mxCell id="MsqOn4zYzABH56GJ3uZA-854" value="" style="endArrow=none;html=1;rounded=0;" parent="1" edge="1">
          <mxGeometry width="50" height="50" relative="1" as="geometry">
            <mxPoint x="-670" y="379" as="sourcePoint" />
            <mxPoint x="683" y="379" as="targetPoint" />
          </mxGeometry>
        </mxCell>
        <mxCell id="MsqOn4zYzABH56GJ3uZA-855" value="" style="endArrow=classic;html=1;rounded=0;entryX=0.5;entryY=0;entryDx=0;entryDy=0;" parent="1" target="MsqOn4zYzABH56GJ3uZA-53" edge="1">
          <mxGeometry width="50" height="50" relative="1" as="geometry">
            <mxPoint x="-670" y="379" as="sourcePoint" />
            <mxPoint x="-700" y="349" as="targetPoint" />
          </mxGeometry>
        </mxCell>
        <mxCell id="MsqOn4zYzABH56GJ3uZA-856" value="" style="endArrow=classic;html=1;rounded=0;entryX=0.5;entryY=0;entryDx=0;entryDy=0;" parent="1" target="MsqOn4zYzABH56GJ3uZA-252" edge="1">
          <mxGeometry width="50" height="50" relative="1" as="geometry">
            <mxPoint x="-333" y="379" as="sourcePoint" />
            <mxPoint x="-348" y="386" as="targetPoint" />
          </mxGeometry>
        </mxCell>
        <mxCell id="MsqOn4zYzABH56GJ3uZA-857" value="" style="endArrow=classic;html=1;rounded=0;entryX=0.5;entryY=0;entryDx=0;entryDy=0;" parent="1" target="MsqOn4zYzABH56GJ3uZA-313" edge="1">
          <mxGeometry width="50" height="50" relative="1" as="geometry">
            <mxPoint x="346" y="379" as="sourcePoint" />
            <mxPoint x="420" y="369" as="targetPoint" />
          </mxGeometry>
        </mxCell>
        <mxCell id="MsqOn4zYzABH56GJ3uZA-858" value="" style="endArrow=classic;html=1;rounded=0;entryX=0.5;entryY=0;entryDx=0;entryDy=0;" parent="1" target="MsqOn4zYzABH56GJ3uZA-373" edge="1">
          <mxGeometry width="50" height="50" relative="1" as="geometry">
            <mxPoint x="683" y="379" as="sourcePoint" />
            <mxPoint x="356" y="429" as="targetPoint" />
          </mxGeometry>
        </mxCell>
        <mxCell id="gWx_gt3MSwIJaAfkZpsO-3" value="" style="shape=parallelogram;perimeter=parallelogramPerimeter;whiteSpace=wrap;html=1;fixedSize=1;shadow=0;" parent="1" vertex="1">
          <mxGeometry x="-80" y="140" width="160" height="40" as="geometry" />
        </mxCell>
        <mxCell id="MsqOn4zYzABH56GJ3uZA-861" value="Inputkan Username dan Password" style="text;strokeColor=none;align=center;fillColor=none;html=1;verticalAlign=middle;whiteSpace=wrap;rounded=0;" parent="1" vertex="1">
          <mxGeometry x="-59" y="140" width="121" height="40" as="geometry" />
        </mxCell>
        <mxCell id="MsqOn4zYzABH56GJ3uZA-864" value="Login" style="text;strokeColor=none;align=center;fillColor=none;html=1;verticalAlign=middle;whiteSpace=wrap;rounded=0;" parent="1" vertex="1">
          <mxGeometry x="-44.99999999999995" y="78" width="90" height="40" as="geometry" />
        </mxCell>
        <mxCell id="MsqOn4zYzABH56GJ3uZA-865" value="START" style="text;strokeColor=none;align=center;fillColor=none;html=1;verticalAlign=middle;whiteSpace=wrap;rounded=0;" parent="1" vertex="1">
          <mxGeometry x="-44.99999999999995" y="20" width="90" height="40" as="geometry" />
        </mxCell>
        <mxCell id="gWx_gt3MSwIJaAfkZpsO-4" value="" style="rhombus;whiteSpace=wrap;html=1;shadow=0;" parent="1" vertex="1">
          <mxGeometry x="-40" y="197" width="80" height="80" as="geometry" />
        </mxCell>
        <mxCell id="MsqOn4zYzABH56GJ3uZA-860" value="Periksa &lt;br&gt;Akun" style="text;strokeColor=none;align=center;fillColor=none;html=1;verticalAlign=middle;whiteSpace=wrap;rounded=0;" parent="1" vertex="1">
          <mxGeometry x="-45.99999999999994" y="218" width="90" height="40" as="geometry" />
        </mxCell>
        <mxCell id="MsqOn4zYzABH56GJ3uZA-862" value="" style="shape=parallelogram;perimeter=parallelogramPerimeter;whiteSpace=wrap;html=1;fixedSize=1;shadow=0;" parent="1" vertex="1">
          <mxGeometry x="80" y="218" width="160" height="40" as="geometry" />
        </mxCell>
        <mxCell id="MsqOn4zYzABH56GJ3uZA-863" value="Inputkan Username dan Password" style="text;strokeColor=none;align=center;fillColor=none;html=1;verticalAlign=middle;whiteSpace=wrap;rounded=0;" parent="1" vertex="1">
          <mxGeometry x="101" y="218" width="121" height="40" as="geometry" />
        </mxCell>
        <mxCell id="gWx_gt3MSwIJaAfkZpsO-7" value="" style="rounded=0;whiteSpace=wrap;html=1;shadow=0;" parent="1" vertex="1">
          <mxGeometry x="-61" y="299" width="120" height="40" as="geometry" />
        </mxCell>
        <mxCell id="MsqOn4zYzABH56GJ3uZA-852" value="Dasboard" style="text;strokeColor=none;align=center;fillColor=none;html=1;verticalAlign=middle;whiteSpace=wrap;rounded=0;" parent="1" vertex="1">
          <mxGeometry x="-44.53999999999995" y="299" width="90" height="40" as="geometry" />
        </mxCell>
        <mxCell id="gWx_gt3MSwIJaAfkZpsO-6" value="" style="rhombus;whiteSpace=wrap;html=1;shadow=0;" parent="1" vertex="1">
          <mxGeometry x="120" y="279" width="80" height="80" as="geometry" />
        </mxCell>
        <mxCell id="MsqOn4zYzABH56GJ3uZA-859" value="Periksa &lt;br&gt;Akun" style="text;strokeColor=none;align=center;fillColor=none;html=1;verticalAlign=middle;whiteSpace=wrap;rounded=0;" parent="1" vertex="1">
          <mxGeometry x="115.00000000000006" y="299" width="90" height="40" as="geometry" />
        </mxCell>
        <mxCell id="MsqOn4zYzABH56GJ3uZA-872" value="" style="endArrow=none;html=1;rounded=0;" parent="1" edge="1">
          <mxGeometry width="50" height="50" relative="1" as="geometry">
            <mxPoint x="-670" y="920" as="sourcePoint" />
            <mxPoint x="684" y="920" as="targetPoint" />
          </mxGeometry>
        </mxCell>
        <mxCell id="MsqOn4zYzABH56GJ3uZA-873" value="" style="endArrow=classic;html=1;rounded=0;exitX=0.5;exitY=1;exitDx=0;exitDy=0;" parent="1" source="MsqOn4zYzABH56GJ3uZA-14" edge="1">
          <mxGeometry width="50" height="50" relative="1" as="geometry">
            <mxPoint x="-710" y="1000" as="sourcePoint" />
            <mxPoint x="-670" y="920" as="targetPoint" />
          </mxGeometry>
        </mxCell>
        <mxCell id="MsqOn4zYzABH56GJ3uZA-874" value="" style="endArrow=classic;html=1;rounded=0;exitX=0.5;exitY=1;exitDx=0;exitDy=0;" parent="1" source="MsqOn4zYzABH56GJ3uZA-251" edge="1">
          <mxGeometry width="50" height="50" relative="1" as="geometry">
            <mxPoint x="-440" y="910" as="sourcePoint" />
            <mxPoint x="-333" y="920" as="targetPoint" />
          </mxGeometry>
        </mxCell>
        <mxCell id="MsqOn4zYzABH56GJ3uZA-875" value="" style="endArrow=classic;html=1;rounded=0;entryX=0.5;entryY=0;entryDx=0;entryDy=0;exitX=0.5;exitY=1;exitDx=0;exitDy=0;" parent="1" source="MsqOn4zYzABH56GJ3uZA-191" target="MsqOn4zYzABH56GJ3uZA-867" edge="1">
          <mxGeometry width="50" height="50" relative="1" as="geometry">
            <mxPoint x="-90" y="920" as="sourcePoint" />
            <mxPoint x="-40" y="870" as="targetPoint" />
          </mxGeometry>
        </mxCell>
        <mxCell id="MsqOn4zYzABH56GJ3uZA-870" value="" style="ellipse;whiteSpace=wrap;html=1;shadow=0;" parent="1" vertex="1">
          <mxGeometry x="-48.5" y="1054" width="85" height="40" as="geometry" />
        </mxCell>
        <mxCell id="MsqOn4zYzABH56GJ3uZA-871" value="END" style="text;strokeColor=none;align=center;fillColor=none;html=1;verticalAlign=middle;whiteSpace=wrap;rounded=0;" parent="1" vertex="1">
          <mxGeometry x="-50.99999999999995" y="1054" width="90" height="40" as="geometry" />
        </mxCell>
        <mxCell id="MsqOn4zYzABH56GJ3uZA-866" value="" style="rounded=0;whiteSpace=wrap;html=1;shadow=0;" parent="1" vertex="1">
          <mxGeometry x="-63" y="939" width="120" height="40" as="geometry" />
        </mxCell>
        <mxCell id="MsqOn4zYzABH56GJ3uZA-867" value="Dasboard" style="text;strokeColor=none;align=center;fillColor=none;html=1;verticalAlign=middle;whiteSpace=wrap;rounded=0;" parent="1" vertex="1">
          <mxGeometry x="-46.53999999999995" y="939" width="90" height="40" as="geometry" />
        </mxCell>
        <mxCell id="MsqOn4zYzABH56GJ3uZA-868" value="" style="rounded=0;whiteSpace=wrap;html=1;shadow=0;" parent="1" vertex="1">
          <mxGeometry x="-63.5" y="1000" width="120" height="40" as="geometry" />
        </mxCell>
        <mxCell id="MsqOn4zYzABH56GJ3uZA-869" value="LogOut" style="text;strokeColor=none;align=center;fillColor=none;html=1;verticalAlign=middle;whiteSpace=wrap;rounded=0;" parent="1" vertex="1">
          <mxGeometry x="-49.49999999999995" y="1000" width="90" height="40" as="geometry" />
        </mxCell>
        <mxCell id="MsqOn4zYzABH56GJ3uZA-876" value="" style="endArrow=classic;html=1;rounded=0;exitX=0.5;exitY=1;exitDx=0;exitDy=0;" parent="1" source="MsqOn4zYzABH56GJ3uZA-312" edge="1">
          <mxGeometry width="50" height="50" relative="1" as="geometry">
            <mxPoint x="340" y="1020" as="sourcePoint" />
            <mxPoint x="346" y="920" as="targetPoint" />
          </mxGeometry>
        </mxCell>
        <mxCell id="MsqOn4zYzABH56GJ3uZA-877" value="" style="endArrow=classic;html=1;rounded=0;exitX=0.5;exitY=1;exitDx=0;exitDy=0;" parent="1" source="MsqOn4zYzABH56GJ3uZA-372" edge="1">
          <mxGeometry width="50" height="50" relative="1" as="geometry">
            <mxPoint x="610" y="1020" as="sourcePoint" />
            <mxPoint x="683" y="920" as="targetPoint" />
          </mxGeometry>
        </mxCell>
        <mxCell id="MsqOn4zYzABH56GJ3uZA-878" value="" style="endArrow=classic;html=1;rounded=0;entryX=0.5;entryY=0;entryDx=0;entryDy=0;" parent="1" target="MsqOn4zYzABH56GJ3uZA-869" edge="1">
          <mxGeometry width="50" height="50" relative="1" as="geometry">
            <mxPoint x="-4" y="980" as="sourcePoint" />
            <mxPoint x="180" y="990" as="targetPoint" />
          </mxGeometry>
        </mxCell>
        <mxCell id="MsqOn4zYzABH56GJ3uZA-879" value="" style="endArrow=classic;html=1;rounded=0;entryX=0.5;entryY=0;entryDx=0;entryDy=0;exitX=0.485;exitY=1.112;exitDx=0;exitDy=0;exitPerimeter=0;" parent="1" source="MsqOn4zYzABH56GJ3uZA-869" target="MsqOn4zYzABH56GJ3uZA-871" edge="1">
          <mxGeometry width="50" height="50" relative="1" as="geometry">
            <mxPoint x="-120" y="1090" as="sourcePoint" />
            <mxPoint x="-70" y="1040" as="targetPoint" />
          </mxGeometry>
        </mxCell>
        <mxCell id="MsqOn4zYzABH56GJ3uZA-880" value="" style="endArrow=none;html=1;rounded=0;exitX=1;exitY=0.5;exitDx=0;exitDy=0;" parent="1" source="MsqOn4zYzABH56GJ3uZA-868" edge="1">
          <mxGeometry width="50" height="50" relative="1" as="geometry">
            <mxPoint x="90" y="1050" as="sourcePoint" />
            <mxPoint x="100" y="1020" as="targetPoint" />
          </mxGeometry>
        </mxCell>
        <mxCell id="MsqOn4zYzABH56GJ3uZA-882" value="" style="endArrow=none;html=1;rounded=0;" parent="1" edge="1">
          <mxGeometry width="50" height="50" relative="1" as="geometry">
            <mxPoint x="100" y="1020" as="sourcePoint" />
            <mxPoint x="100" y="960" as="targetPoint" />
          </mxGeometry>
        </mxCell>
        <mxCell id="MsqOn4zYzABH56GJ3uZA-883" value="NO" style="text;strokeColor=none;align=center;fillColor=none;html=1;verticalAlign=middle;whiteSpace=wrap;rounded=0;fontSize=9;" parent="1" vertex="1">
          <mxGeometry x="68" y="1000" width="33" height="20" as="geometry" />
        </mxCell>
        <mxCell id="MsqOn4zYzABH56GJ3uZA-884" value="YES" style="text;strokeColor=none;align=center;fillColor=none;html=1;verticalAlign=middle;whiteSpace=wrap;rounded=0;fontSize=9;" parent="1" vertex="1">
          <mxGeometry x="-1.5399999999999459" y="897" width="30" height="22" as="geometry" />
        </mxCell>
        <mxCell id="MsqOn4zYzABH56GJ3uZA-885" value="YES" style="text;strokeColor=none;align=center;fillColor=none;html=1;verticalAlign=middle;whiteSpace=wrap;rounded=0;fontSize=9;" parent="1" vertex="1">
          <mxGeometry x="5.3290705182007514e-14" y="978" width="30" height="22" as="geometry" />
        </mxCell>
        <mxCell id="MsqOn4zYzABH56GJ3uZA-886" value="YES" style="text;strokeColor=none;align=center;fillColor=none;html=1;verticalAlign=middle;whiteSpace=wrap;rounded=0;fontSize=9;" parent="1" vertex="1">
          <mxGeometry x="-2.539999999999946" y="1036" width="30" height="22" as="geometry" />
        </mxCell>
        <mxCell id="MsqOn4zYzABH56GJ3uZA-887" value="YES" style="text;strokeColor=none;align=center;fillColor=none;html=1;verticalAlign=middle;whiteSpace=wrap;rounded=0;fontSize=9;" parent="1" vertex="1">
          <mxGeometry x="354.00000000000006" y="897" width="30" height="22" as="geometry" />
        </mxCell>
        <mxCell id="MsqOn4zYzABH56GJ3uZA-888" value="YES" style="text;strokeColor=none;align=center;fillColor=none;html=1;verticalAlign=middle;whiteSpace=wrap;rounded=0;fontSize=9;" parent="1" vertex="1">
          <mxGeometry x="684" y="896" width="30" height="22" as="geometry" />
        </mxCell>
        <mxCell id="MsqOn4zYzABH56GJ3uZA-889" value="YES" style="text;strokeColor=none;align=center;fillColor=none;html=1;verticalAlign=middle;whiteSpace=wrap;rounded=0;fontSize=9;" parent="1" vertex="1">
          <mxGeometry x="-328" y="895" width="30" height="22" as="geometry" />
        </mxCell>
        <mxCell id="MsqOn4zYzABH56GJ3uZA-890" value="YES" style="text;strokeColor=none;align=center;fillColor=none;html=1;verticalAlign=middle;whiteSpace=wrap;rounded=0;fontSize=9;" parent="1" vertex="1">
          <mxGeometry x="-668" y="896" width="30" height="22" as="geometry" />
        </mxCell>
        <mxCell id="MsqOn4zYzABH56GJ3uZA-891" value="" style="endArrow=classic;html=1;rounded=0;entryX=0.5;entryY=0;entryDx=0;entryDy=0;exitX=0.5;exitY=1;exitDx=0;exitDy=0;" parent="1" source="gWx_gt3MSwIJaAfkZpsO-4" target="MsqOn4zYzABH56GJ3uZA-852" edge="1">
          <mxGeometry width="50" height="50" relative="1" as="geometry">
            <mxPoint x="-150" y="270" as="sourcePoint" />
            <mxPoint x="-100" y="220" as="targetPoint" />
          </mxGeometry>
        </mxCell>
        <mxCell id="MsqOn4zYzABH56GJ3uZA-892" value="" style="endArrow=classic;html=1;rounded=0;entryX=0.5;entryY=0;entryDx=0;entryDy=0;exitX=0.5;exitY=1;exitDx=0;exitDy=0;" parent="1" source="MsqOn4zYzABH56GJ3uZA-861" target="gWx_gt3MSwIJaAfkZpsO-4" edge="1">
          <mxGeometry width="50" height="50" relative="1" as="geometry">
            <mxPoint x="-150" y="290" as="sourcePoint" />
            <mxPoint x="-100" y="240" as="targetPoint" />
          </mxGeometry>
        </mxCell>
        <mxCell id="MsqOn4zYzABH56GJ3uZA-893" value="" style="endArrow=classic;html=1;rounded=0;entryX=0.5;entryY=0;entryDx=0;entryDy=0;exitX=0.5;exitY=1;exitDx=0;exitDy=0;" parent="1" source="MsqOn4zYzABH56GJ3uZA-864" target="MsqOn4zYzABH56GJ3uZA-861" edge="1">
          <mxGeometry width="50" height="50" relative="1" as="geometry">
            <mxPoint x="-140" y="220" as="sourcePoint" />
            <mxPoint x="-90" y="170" as="targetPoint" />
          </mxGeometry>
        </mxCell>
        <mxCell id="MsqOn4zYzABH56GJ3uZA-894" value="" style="endArrow=classic;html=1;rounded=0;entryX=0.5;entryY=0;entryDx=0;entryDy=0;exitX=0.5;exitY=1;exitDx=0;exitDy=0;" parent="1" source="MsqOn4zYzABH56GJ3uZA-865" target="MsqOn4zYzABH56GJ3uZA-864" edge="1">
          <mxGeometry width="50" height="50" relative="1" as="geometry">
            <mxPoint x="-200" y="190" as="sourcePoint" />
            <mxPoint x="-150" y="140" as="targetPoint" />
          </mxGeometry>
        </mxCell>
        <mxCell id="MsqOn4zYzABH56GJ3uZA-895" value="" style="endArrow=classic;html=1;rounded=0;entryX=0.5;entryY=0;entryDx=0;entryDy=0;exitX=0.5;exitY=1;exitDx=0;exitDy=0;" parent="1" source="MsqOn4zYzABH56GJ3uZA-863" target="gWx_gt3MSwIJaAfkZpsO-6" edge="1">
          <mxGeometry width="50" height="50" relative="1" as="geometry">
            <mxPoint x="-160" y="310" as="sourcePoint" />
            <mxPoint x="-110" y="260" as="targetPoint" />
          </mxGeometry>
        </mxCell>
        <mxCell id="MsqOn4zYzABH56GJ3uZA-896" value="" style="endArrow=classic;html=1;rounded=0;exitX=0;exitY=0.5;exitDx=0;exitDy=0;entryX=1;entryY=0.5;entryDx=0;entryDy=0;" parent="1" source="MsqOn4zYzABH56GJ3uZA-859" target="gWx_gt3MSwIJaAfkZpsO-7" edge="1">
          <mxGeometry width="50" height="50" relative="1" as="geometry">
            <mxPoint x="-130" y="310" as="sourcePoint" />
            <mxPoint x="-80" y="260" as="targetPoint" />
          </mxGeometry>
        </mxCell>
        <mxCell id="MsqOn4zYzABH56GJ3uZA-897" value="" style="endArrow=classic;html=1;rounded=0;entryX=0;entryY=0.5;entryDx=0;entryDy=0;" parent="1" target="MsqOn4zYzABH56GJ3uZA-862" edge="1">
          <mxGeometry width="50" height="50" relative="1" as="geometry">
            <mxPoint x="40" y="238" as="sourcePoint" />
            <mxPoint x="-50" y="220" as="targetPoint" />
          </mxGeometry>
        </mxCell>
        <mxCell id="MsqOn4zYzABH56GJ3uZA-898" value="" style="endArrow=none;html=1;rounded=0;exitX=1;exitY=0.5;exitDx=0;exitDy=0;" parent="1" edge="1">
          <mxGeometry width="50" height="50" relative="1" as="geometry">
            <mxPoint x="200" y="319" as="sourcePoint" />
            <mxPoint x="280" y="319" as="targetPoint" />
          </mxGeometry>
        </mxCell>
        <mxCell id="MsqOn4zYzABH56GJ3uZA-900" value="" style="endArrow=none;html=1;rounded=0;" parent="1" edge="1">
          <mxGeometry width="50" height="50" relative="1" as="geometry">
            <mxPoint x="280" y="319" as="sourcePoint" />
            <mxPoint x="280" y="238" as="targetPoint" />
          </mxGeometry>
        </mxCell>
        <mxCell id="MsqOn4zYzABH56GJ3uZA-901" value="YES" style="text;strokeColor=none;align=center;fillColor=none;html=1;verticalAlign=middle;whiteSpace=wrap;rounded=0;fontSize=9;" parent="1" vertex="1">
          <mxGeometry x="3.460000000000054" y="58" width="30" height="22" as="geometry" />
        </mxCell>
        <mxCell id="MsqOn4zYzABH56GJ3uZA-902" value="YES" style="text;strokeColor=none;align=center;fillColor=none;html=1;verticalAlign=middle;whiteSpace=wrap;rounded=0;fontSize=9;" parent="1" vertex="1">
          <mxGeometry x="4.460000000000054" y="118" width="30" height="22" as="geometry" />
        </mxCell>
        <mxCell id="MsqOn4zYzABH56GJ3uZA-903" value="YES" style="text;strokeColor=none;align=center;fillColor=none;html=1;verticalAlign=middle;whiteSpace=wrap;rounded=0;fontSize=9;" parent="1" vertex="1">
          <mxGeometry x="4.460000000000054" y="180" width="30" height="22" as="geometry" />
        </mxCell>
        <mxCell id="MsqOn4zYzABH56GJ3uZA-904" value="YES" style="text;strokeColor=none;align=center;fillColor=none;html=1;verticalAlign=middle;whiteSpace=wrap;rounded=0;fontSize=9;" parent="1" vertex="1">
          <mxGeometry x="1.4600000000000541" y="275" width="30" height="22" as="geometry" />
        </mxCell>
        <mxCell id="MsqOn4zYzABH56GJ3uZA-905" value="YES" style="text;strokeColor=none;align=center;fillColor=none;html=1;verticalAlign=middle;whiteSpace=wrap;rounded=0;fontSize=9;" parent="1" vertex="1">
          <mxGeometry x="90.00000000000006" y="299" width="30" height="22" as="geometry" />
        </mxCell>
        <mxCell id="MsqOn4zYzABH56GJ3uZA-906" value="YES" style="text;strokeColor=none;align=center;fillColor=none;html=1;verticalAlign=middle;whiteSpace=wrap;rounded=0;fontSize=9;" parent="1" vertex="1">
          <mxGeometry x="5.684341886080802e-14" y="380" width="30" height="22" as="geometry" />
        </mxCell>
        <mxCell id="MsqOn4zYzABH56GJ3uZA-907" value="YES" style="text;strokeColor=none;align=center;fillColor=none;html=1;verticalAlign=middle;whiteSpace=wrap;rounded=0;fontSize=9;" parent="1" vertex="1">
          <mxGeometry x="50.00000000000006" y="218" width="30" height="22" as="geometry" />
        </mxCell>
        <mxCell id="MsqOn4zYzABH56GJ3uZA-908" value="YES" style="text;strokeColor=none;align=center;fillColor=none;html=1;verticalAlign=middle;whiteSpace=wrap;rounded=0;fontSize=9;" parent="1" vertex="1">
          <mxGeometry x="164.00000000000006" y="258" width="30" height="22" as="geometry" />
        </mxCell>
        <mxCell id="MsqOn4zYzABH56GJ3uZA-909" value="" style="endArrow=classic;html=1;rounded=0;entryX=1;entryY=0.5;entryDx=0;entryDy=0;" parent="1" target="MsqOn4zYzABH56GJ3uZA-862" edge="1">
          <mxGeometry width="50" height="50" relative="1" as="geometry">
            <mxPoint x="280" y="240" as="sourcePoint" />
            <mxPoint x="370" y="240" as="targetPoint" />
          </mxGeometry>
        </mxCell>
        <mxCell id="MsqOn4zYzABH56GJ3uZA-910" value="NO" style="text;strokeColor=none;align=center;fillColor=none;html=1;verticalAlign=middle;whiteSpace=wrap;rounded=0;fontSize=9;" parent="1" vertex="1">
          <mxGeometry x="231.00000000000006" y="291" width="60" height="30" as="geometry" />
        </mxCell>
        <mxCell id="MsqOn4zYzABH56GJ3uZA-911" value="" style="endArrow=classic;html=1;rounded=0;entryX=1;entryY=0.5;entryDx=0;entryDy=0;" parent="1" target="MsqOn4zYzABH56GJ3uZA-866" edge="1">
          <mxGeometry width="50" height="50" relative="1" as="geometry">
            <mxPoint x="100" y="960" as="sourcePoint" />
            <mxPoint x="310" y="990" as="targetPoint" />
          </mxGeometry>
        </mxCell>
        <mxCell id="MsqOn4zYzABH56GJ3uZA-912" value="YES" style="text;strokeColor=none;align=center;fillColor=none;html=1;verticalAlign=middle;whiteSpace=wrap;rounded=0;fontSize=9;" parent="1" vertex="1">
          <mxGeometry x="-331.99999999999994" y="380" width="30" height="22" as="geometry" />
        </mxCell>
        <mxCell id="MsqOn4zYzABH56GJ3uZA-913" value="YES" style="text;strokeColor=none;align=center;fillColor=none;html=1;verticalAlign=middle;whiteSpace=wrap;rounded=0;fontSize=9;" parent="1" vertex="1">
          <mxGeometry x="-670" y="380" width="30" height="22" as="geometry" />
        </mxCell>
        <mxCell id="MsqOn4zYzABH56GJ3uZA-914" value="YES" style="text;strokeColor=none;align=center;fillColor=none;html=1;verticalAlign=middle;whiteSpace=wrap;rounded=0;fontSize=9;" parent="1" vertex="1">
          <mxGeometry x="346.00000000000006" y="380" width="30" height="22" as="geometry" />
        </mxCell>
        <mxCell id="MsqOn4zYzABH56GJ3uZA-915" value="YES" style="text;strokeColor=none;align=center;fillColor=none;html=1;verticalAlign=middle;whiteSpace=wrap;rounded=0;fontSize=9;" parent="1" vertex="1">
          <mxGeometry x="683" y="380" width="30" height="22" as="geometry" />
        </mxCell>
        <mxCell id="MsqOn4zYzABH56GJ3uZA-916" value="" style="endArrow=classic;html=1;rounded=0;entryX=0;entryY=0.5;entryDx=0;entryDy=0;" parent="1" target="MsqOn4zYzABH56GJ3uZA-378" edge="1">
          <mxGeometry width="50" height="50" relative="1" as="geometry">
            <mxPoint x="513" y="558" as="sourcePoint" />
            <mxPoint x="580" y="460" as="targetPoint" />
          </mxGeometry>
        </mxCell>
        <mxCell id="MsqOn4zYzABH56GJ3uZA-917" value="" style="endArrow=classic;html=1;rounded=0;entryX=0;entryY=0.5;entryDx=0;entryDy=0;" parent="1" edge="1">
          <mxGeometry width="50" height="50" relative="1" as="geometry">
            <mxPoint x="176" y="558.79" as="sourcePoint" />
            <mxPoint x="206" y="558.79" as="targetPoint" />
          </mxGeometry>
        </mxCell>
        <mxCell id="MsqOn4zYzABH56GJ3uZA-918" value="" style="endArrow=classic;html=1;rounded=0;entryX=0;entryY=0.5;entryDx=0;entryDy=0;" parent="1" edge="1">
          <mxGeometry width="50" height="50" relative="1" as="geometry">
            <mxPoint x="-163" y="558" as="sourcePoint" />
            <mxPoint x="-141.54000000000002" y="558.79" as="targetPoint" />
          </mxGeometry>
        </mxCell>
        <mxCell id="MsqOn4zYzABH56GJ3uZA-919" value="" style="endArrow=classic;html=1;rounded=0;entryX=0;entryY=0.5;entryDx=0;entryDy=0;" parent="1" edge="1">
          <mxGeometry width="50" height="50" relative="1" as="geometry">
            <mxPoint x="-503" y="554.79" as="sourcePoint" />
            <mxPoint x="-473" y="554.79" as="targetPoint" />
          </mxGeometry>
        </mxCell>
        <mxCell id="MsqOn4zYzABH56GJ3uZA-920" value="" style="endArrow=classic;html=1;rounded=0;entryX=0;entryY=0.5;entryDx=0;entryDy=0;" parent="1" edge="1">
          <mxGeometry width="50" height="50" relative="1" as="geometry">
            <mxPoint x="-840" y="555.79" as="sourcePoint" />
            <mxPoint x="-810" y="555.79" as="targetPoint" />
          </mxGeometry>
        </mxCell>
        <mxCell id="MsqOn4zYzABH56GJ3uZA-921" value="NO" style="text;strokeColor=none;align=center;fillColor=none;html=1;verticalAlign=middle;whiteSpace=wrap;rounded=0;fontSize=9;" parent="1" vertex="1">
          <mxGeometry x="-505" y="645" width="27" height="25" as="geometry" />
        </mxCell>
        <mxCell id="MsqOn4zYzABH56GJ3uZA-922" value="NO" style="text;strokeColor=none;align=center;fillColor=none;html=1;verticalAlign=middle;whiteSpace=wrap;rounded=0;fontSize=9;" parent="1" vertex="1">
          <mxGeometry x="-183.99999999999994" y="647.75" width="60" height="30" as="geometry" />
        </mxCell>
        <mxCell id="MsqOn4zYzABH56GJ3uZA-923" value="NO" style="text;strokeColor=none;align=center;fillColor=none;html=1;verticalAlign=middle;whiteSpace=wrap;rounded=0;fontSize=9;" parent="1" vertex="1">
          <mxGeometry x="494" y="647.75" width="60" height="30" as="geometry" />
        </mxCell>
        <mxCell id="MsqOn4zYzABH56GJ3uZA-924" value="" style="endArrow=classic;html=1;rounded=0;entryX=1;entryY=0.5;entryDx=0;entryDy=0;" parent="1" target="gWx_gt3MSwIJaAfkZpsO-8" edge="1">
          <mxGeometry width="50" height="50" relative="1" as="geometry">
            <mxPoint x="-520" y="436" as="sourcePoint" />
            <mxPoint x="-520" y="410" as="targetPoint" />
          </mxGeometry>
        </mxCell>
        <mxCell id="MsqOn4zYzABH56GJ3uZA-925" value="" style="endArrow=classic;html=1;rounded=0;entryX=1;entryY=0.5;entryDx=0;entryDy=0;" parent="1" edge="1">
          <mxGeometry width="50" height="50" relative="1" as="geometry">
            <mxPoint x="-183" y="434.7" as="sourcePoint" />
            <mxPoint x="-273" y="434.7" as="targetPoint" />
          </mxGeometry>
        </mxCell>
        <mxCell id="MsqOn4zYzABH56GJ3uZA-926" value="" style="endArrow=classic;html=1;rounded=0;entryX=1;entryY=0.5;entryDx=0;entryDy=0;" parent="1" edge="1">
          <mxGeometry width="50" height="50" relative="1" as="geometry">
            <mxPoint x="158" y="436" as="sourcePoint" />
            <mxPoint x="58" y="435.7" as="targetPoint" />
          </mxGeometry>
        </mxCell>
        <mxCell id="MsqOn4zYzABH56GJ3uZA-927" value="" style="endArrow=classic;html=1;rounded=0;entryX=1;entryY=0.5;entryDx=0;entryDy=0;" parent="1" edge="1">
          <mxGeometry width="50" height="50" relative="1" as="geometry">
            <mxPoint x="496" y="438.7" as="sourcePoint" />
            <mxPoint x="406" y="438.7" as="targetPoint" />
          </mxGeometry>
        </mxCell>
        <mxCell id="MsqOn4zYzABH56GJ3uZA-928" value="" style="endArrow=classic;html=1;rounded=0;entryX=1;entryY=0.5;entryDx=0;entryDy=0;" parent="1" edge="1">
          <mxGeometry width="50" height="50" relative="1" as="geometry">
            <mxPoint x="833" y="436.7" as="sourcePoint" />
            <mxPoint x="743" y="436.7" as="targetPoint" />
          </mxGeometry>
        </mxCell>
      </root>
    </mxGraphModel>
  </diagram>
  <diagram id="iufO7ONIFOi9HviYMDT3" name="Page-2">
    <mxGraphModel dx="672" dy="398" grid="1" gridSize="3" guides="1" tooltips="1" connect="1" arrows="1" fold="1" page="1" pageScale="1" pageWidth="850" pageHeight="1100" math="0" shadow="0">
      <root>
        <mxCell id="0" />
        <mxCell id="1" parent="0" />
        <mxCell id="RG7z0kfOfISO0wCp67wU-5" value="" style="edgeStyle=orthogonalEdgeStyle;rounded=0;orthogonalLoop=1;jettySize=auto;html=1;" edge="1" parent="1" source="RG7z0kfOfISO0wCp67wU-3" target="RG7z0kfOfISO0wCp67wU-4">
          <mxGeometry relative="1" as="geometry" />
        </mxCell>
        <mxCell id="RG7z0kfOfISO0wCp67wU-3" value="&lt;font style=&quot;font-size: 15px;&quot; face=&quot;Comic Sans MS&quot;&gt;Mulai&lt;/font&gt;" style="strokeWidth=2;html=1;shape=mxgraph.flowchart.terminator;whiteSpace=wrap;" vertex="1" parent="1">
          <mxGeometry x="335.5" y="48" width="144" height="45" as="geometry" />
        </mxCell>
        <mxCell id="RG7z0kfOfISO0wCp67wU-4" value="&lt;font face=&quot;Comic Sans MS&quot; style=&quot;font-size: 13px;&quot;&gt;Input Url :&lt;br&gt;&lt;a href=&quot;https://www.kksp.id/&quot;&gt;https://www.kksp.id&lt;/a&gt;&lt;/font&gt;" style="whiteSpace=wrap;html=1;strokeWidth=2;" vertex="1" parent="1">
          <mxGeometry x="336" y="119" width="144" height="60" as="geometry" />
        </mxCell>
        <mxCell id="RG7z0kfOfISO0wCp67wU-8" value="" style="edgeStyle=orthogonalEdgeStyle;rounded=0;orthogonalLoop=1;jettySize=auto;html=1;" edge="1" parent="1" source="RG7z0kfOfISO0wCp67wU-6" target="RG7z0kfOfISO0wCp67wU-7">
          <mxGeometry relative="1" as="geometry" />
        </mxCell>
        <mxCell id="RG7z0kfOfISO0wCp67wU-6" value="&lt;font style=&quot;font-size: 13px;&quot; face=&quot;Comic Sans MS&quot;&gt;Halaman&lt;br&gt;Website &lt;br&gt;KKSP&lt;/font&gt;" style="shape=dataStorage;whiteSpace=wrap;html=1;fixedSize=1;strokeWidth=2;" vertex="1" parent="1">
          <mxGeometry x="336" y="204" width="144" height="84" as="geometry" />
        </mxCell>
        <mxCell id="RG7z0kfOfISO0wCp67wU-7" value="&lt;font style=&quot;font-size: 13px;&quot; face=&quot;Comic Sans MS&quot;&gt;Memilih menu pada website&lt;/font&gt;" style="whiteSpace=wrap;html=1;strokeWidth=2;" vertex="1" parent="1">
          <mxGeometry x="336" y="312" width="144" height="60" as="geometry" />
        </mxCell>
        <mxCell id="RG7z0kfOfISO0wCp67wU-9" value="&lt;font face=&quot;Comic Sans MS&quot; style=&quot;font-size: 13px;&quot;&gt;Tampilkan dari&lt;br&gt;menu yang &lt;br&gt;dipilih&lt;/font&gt;" style="shape=dataStorage;whiteSpace=wrap;html=1;fixedSize=1;strokeWidth=2;" vertex="1" parent="1">
          <mxGeometry x="336" y="396" width="144" height="84" as="geometry" />
        </mxCell>
        <mxCell id="RG7z0kfOfISO0wCp67wU-11" value="&lt;font face=&quot;Comic Sans MS&quot; style=&quot;font-size: 15px;&quot;&gt;Selesai&lt;/font&gt;" style="strokeWidth=2;html=1;shape=mxgraph.flowchart.terminator;whiteSpace=wrap;" vertex="1" parent="1">
          <mxGeometry x="335.5" y="505" width="144" height="45" as="geometry" />
        </mxCell>
        <mxCell id="RG7z0kfOfISO0wCp67wU-12" value="" style="endArrow=classic;html=1;rounded=0;exitX=0.5;exitY=1;exitDx=0;exitDy=0;entryX=0.5;entryY=0;entryDx=0;entryDy=0;" edge="1" parent="1" source="RG7z0kfOfISO0wCp67wU-4" target="RG7z0kfOfISO0wCp67wU-6">
          <mxGeometry width="50" height="50" relative="1" as="geometry">
            <mxPoint x="231" y="218" as="sourcePoint" />
            <mxPoint x="281" y="168" as="targetPoint" />
          </mxGeometry>
        </mxCell>
        <mxCell id="RG7z0kfOfISO0wCp67wU-13" value="" style="endArrow=classic;html=1;rounded=0;entryX=0.5;entryY=0;entryDx=0;entryDy=0;exitX=0.5;exitY=1;exitDx=0;exitDy=0;" edge="1" parent="1" source="RG7z0kfOfISO0wCp67wU-7" target="RG7z0kfOfISO0wCp67wU-9">
          <mxGeometry width="50" height="50" relative="1" as="geometry">
            <mxPoint x="243" y="428" as="sourcePoint" />
            <mxPoint x="293" y="378" as="targetPoint" />
          </mxGeometry>
        </mxCell>
        <mxCell id="RG7z0kfOfISO0wCp67wU-14" value="" style="endArrow=classic;html=1;rounded=0;exitX=0.5;exitY=1;exitDx=0;exitDy=0;entryX=0.5;entryY=0;entryDx=0;entryDy=0;entryPerimeter=0;" edge="1" parent="1" source="RG7z0kfOfISO0wCp67wU-9" target="RG7z0kfOfISO0wCp67wU-11">
          <mxGeometry width="50" height="50" relative="1" as="geometry">
            <mxPoint x="249" y="488" as="sourcePoint" />
            <mxPoint x="299" y="438" as="targetPoint" />
          </mxGeometry>
        </mxCell>
      </root>
    </mxGraphModel>
  </diagram>
  <diagram id="lPovDjRiZshhnN-RwnWD" name="Page-3">
    <mxGraphModel dx="1892" dy="617" grid="1" gridSize="10" guides="1" tooltips="1" connect="1" arrows="1" fold="1" page="1" pageScale="1" pageWidth="850" pageHeight="1100" math="0" shadow="0">
      <root>
        <mxCell id="0" />
        <mxCell id="1" parent="0" />
        <mxCell id="tBaJ72p9n-BHeZPeT2eM-1" value="" style="rounded=0;whiteSpace=wrap;html=1;shadow=0;" parent="1" vertex="1">
          <mxGeometry x="-100" y="80" width="200" height="60" as="geometry" />
        </mxCell>
        <mxCell id="tBaJ72p9n-BHeZPeT2eM-2" value="&lt;font style=&quot;font-size: 15px;&quot; face=&quot;Comic Sans MS&quot;&gt;Analisis Kebutuhan User&lt;/font&gt;" style="text;strokeColor=none;align=center;fillColor=none;html=1;verticalAlign=middle;whiteSpace=wrap;rounded=0;" parent="1" vertex="1">
          <mxGeometry x="-100" y="80" width="200" height="60" as="geometry" />
        </mxCell>
        <mxCell id="Z2UQ1NLI5xHAPpkqRTM9-1" value="" style="rounded=0;whiteSpace=wrap;html=1;shadow=0;" parent="1" vertex="1">
          <mxGeometry x="418" y="120" width="160" height="40" as="geometry" />
        </mxCell>
        <mxCell id="Z2UQ1NLI5xHAPpkqRTM9-2" value="&lt;font face=&quot;Comic Sans MS&quot;&gt;Simpan Pinjam Syariah&lt;/font&gt;" style="text;strokeColor=none;align=center;fillColor=none;html=1;verticalAlign=middle;whiteSpace=wrap;rounded=0;" parent="1" vertex="1">
          <mxGeometry x="418" y="120" width="160" height="40" as="geometry" />
        </mxCell>
        <mxCell id="Z2UQ1NLI5xHAPpkqRTM9-3" value="" style="rounded=0;whiteSpace=wrap;html=1;shadow=0;" parent="1" vertex="1">
          <mxGeometry x="418" y="170" width="160" height="40" as="geometry" />
        </mxCell>
        <mxCell id="Z2UQ1NLI5xHAPpkqRTM9-4" value="&lt;font face=&quot;Comic Sans MS&quot;&gt;KKSP Mart&lt;/font&gt;" style="text;strokeColor=none;align=center;fillColor=none;html=1;verticalAlign=middle;whiteSpace=wrap;rounded=0;" parent="1" vertex="1">
          <mxGeometry x="418" y="170" width="160" height="40" as="geometry" />
        </mxCell>
        <mxCell id="Z2UQ1NLI5xHAPpkqRTM9-5" value="" style="rounded=0;whiteSpace=wrap;html=1;shadow=0;" parent="1" vertex="1">
          <mxGeometry x="418" y="220" width="160" height="40" as="geometry" />
        </mxCell>
        <mxCell id="Z2UQ1NLI5xHAPpkqRTM9-6" value="&lt;font face=&quot;Comic Sans MS&quot;&gt;Supplier&lt;/font&gt;" style="text;strokeColor=none;align=center;fillColor=none;html=1;verticalAlign=middle;whiteSpace=wrap;rounded=0;" parent="1" vertex="1">
          <mxGeometry x="418" y="220" width="160" height="40" as="geometry" />
        </mxCell>
        <mxCell id="Z2UQ1NLI5xHAPpkqRTM9-7" value="" style="rounded=0;whiteSpace=wrap;html=1;shadow=0;" parent="1" vertex="1">
          <mxGeometry x="418" y="270" width="160" height="40" as="geometry" />
        </mxCell>
        <mxCell id="Z2UQ1NLI5xHAPpkqRTM9-8" value="&lt;font face=&quot;Comic Sans MS&quot;&gt;Kontraktor&lt;/font&gt;" style="text;strokeColor=none;align=center;fillColor=none;html=1;verticalAlign=middle;whiteSpace=wrap;rounded=0;" parent="1" vertex="1">
          <mxGeometry x="418" y="270" width="160" height="40" as="geometry" />
        </mxCell>
        <mxCell id="Z2UQ1NLI5xHAPpkqRTM9-9" value="" style="rounded=0;whiteSpace=wrap;html=1;shadow=0;" parent="1" vertex="1">
          <mxGeometry x="418" y="320" width="160" height="40" as="geometry" />
        </mxCell>
        <mxCell id="Z2UQ1NLI5xHAPpkqRTM9-10" value="&lt;font face=&quot;Comic Sans MS&quot;&gt;Pedagang Umum&lt;/font&gt;" style="text;strokeColor=none;align=center;fillColor=none;html=1;verticalAlign=middle;whiteSpace=wrap;rounded=0;" parent="1" vertex="1">
          <mxGeometry x="418" y="320" width="160" height="40" as="geometry" />
        </mxCell>
        <mxCell id="Z2UQ1NLI5xHAPpkqRTM9-11" value="" style="rounded=0;whiteSpace=wrap;html=1;shadow=0;" parent="1" vertex="1">
          <mxGeometry x="418" y="370" width="160" height="40" as="geometry" />
        </mxCell>
        <mxCell id="Z2UQ1NLI5xHAPpkqRTM9-12" value="&lt;font face=&quot;Comic Sans MS&quot;&gt;Simpan Pinjam Syariah&lt;/font&gt;" style="text;strokeColor=none;align=center;fillColor=none;html=1;verticalAlign=middle;whiteSpace=wrap;rounded=0;" parent="1" vertex="1">
          <mxGeometry x="418" y="370" width="160" height="40" as="geometry" />
        </mxCell>
        <mxCell id="Z2UQ1NLI5xHAPpkqRTM9-13" value="" style="rounded=0;whiteSpace=wrap;html=1;shadow=0;" parent="1" vertex="1">
          <mxGeometry x="418" y="420" width="160" height="40" as="geometry" />
        </mxCell>
        <mxCell id="Z2UQ1NLI5xHAPpkqRTM9-14" value="&lt;font face=&quot;Comic Sans MS&quot;&gt;Simpan Pinjam Syariah&lt;/font&gt;" style="text;strokeColor=none;align=center;fillColor=none;html=1;verticalAlign=middle;whiteSpace=wrap;rounded=0;" parent="1" vertex="1">
          <mxGeometry x="418" y="420" width="160" height="40" as="geometry" />
        </mxCell>
        <mxCell id="Z2UQ1NLI5xHAPpkqRTM9-16" value="" style="rounded=0;whiteSpace=wrap;html=1;shadow=0;" parent="1" vertex="1">
          <mxGeometry x="240" y="270" width="99" height="40" as="geometry" />
        </mxCell>
        <mxCell id="Z2UQ1NLI5xHAPpkqRTM9-17" value="&lt;font style=&quot;font-size: 13px;&quot; face=&quot;Comic Sans MS&quot;&gt;Bisnis&lt;/font&gt;" style="text;strokeColor=none;align=center;fillColor=none;html=1;verticalAlign=middle;whiteSpace=wrap;rounded=0;" parent="1" vertex="1">
          <mxGeometry x="240" y="270" width="99" height="40" as="geometry" />
        </mxCell>
        <mxCell id="Z2UQ1NLI5xHAPpkqRTM9-20" value="" style="rounded=0;whiteSpace=wrap;html=1;shadow=0;" parent="1" vertex="1">
          <mxGeometry x="418" y="520" width="160" height="40" as="geometry" />
        </mxCell>
        <mxCell id="Z2UQ1NLI5xHAPpkqRTM9-21" value="&lt;font face=&quot;Comic Sans MS&quot;&gt;Berita&lt;/font&gt;" style="text;strokeColor=none;align=center;fillColor=none;html=1;verticalAlign=middle;whiteSpace=wrap;rounded=0;" parent="1" vertex="1">
          <mxGeometry x="418" y="520" width="160" height="40" as="geometry" />
        </mxCell>
        <mxCell id="Z2UQ1NLI5xHAPpkqRTM9-22" value="" style="rounded=0;whiteSpace=wrap;html=1;shadow=0;" parent="1" vertex="1">
          <mxGeometry x="418" y="570" width="160" height="40" as="geometry" />
        </mxCell>
        <mxCell id="Z2UQ1NLI5xHAPpkqRTM9-23" value="&lt;font face=&quot;Comic Sans MS&quot;&gt;Galeri KKSP&lt;/font&gt;" style="text;strokeColor=none;align=center;fillColor=none;html=1;verticalAlign=middle;whiteSpace=wrap;rounded=0;" parent="1" vertex="1">
          <mxGeometry x="418" y="570" width="160" height="40" as="geometry" />
        </mxCell>
        <mxCell id="Z2UQ1NLI5xHAPpkqRTM9-24" value="" style="rounded=0;whiteSpace=wrap;html=1;shadow=0;" parent="1" vertex="1">
          <mxGeometry x="418" y="620" width="160" height="40" as="geometry" />
        </mxCell>
        <mxCell id="Z2UQ1NLI5xHAPpkqRTM9-25" value="&lt;font face=&quot;Comic Sans MS&quot;&gt;Nuansa Pagi KKSP&lt;/font&gt;" style="text;strokeColor=none;align=center;fillColor=none;html=1;verticalAlign=middle;whiteSpace=wrap;rounded=0;" parent="1" vertex="1">
          <mxGeometry x="418" y="620" width="160" height="40" as="geometry" />
        </mxCell>
        <mxCell id="Z2UQ1NLI5xHAPpkqRTM9-26" value="" style="rounded=0;whiteSpace=wrap;html=1;shadow=0;" parent="1" vertex="1">
          <mxGeometry x="418" y="670" width="160" height="40" as="geometry" />
        </mxCell>
        <mxCell id="Z2UQ1NLI5xHAPpkqRTM9-27" value="&lt;font face=&quot;Comic Sans MS&quot;&gt;Our Tim&lt;/font&gt;" style="text;strokeColor=none;align=center;fillColor=none;html=1;verticalAlign=middle;whiteSpace=wrap;rounded=0;" parent="1" vertex="1">
          <mxGeometry x="418" y="670" width="160" height="40" as="geometry" />
        </mxCell>
        <mxCell id="Z2UQ1NLI5xHAPpkqRTM9-28" value="" style="rounded=0;whiteSpace=wrap;html=1;shadow=0;" parent="1" vertex="1">
          <mxGeometry x="240" y="599" width="99" height="40" as="geometry" />
        </mxCell>
        <mxCell id="Z2UQ1NLI5xHAPpkqRTM9-29" value="&lt;font style=&quot;font-size: 13px;&quot; face=&quot;Comic Sans MS&quot;&gt;Media KKSP&lt;/font&gt;" style="text;strokeColor=none;align=center;fillColor=none;html=1;verticalAlign=middle;whiteSpace=wrap;rounded=0;" parent="1" vertex="1">
          <mxGeometry x="240" y="599" width="99" height="40" as="geometry" />
        </mxCell>
        <mxCell id="Z2UQ1NLI5xHAPpkqRTM9-30" value="" style="endArrow=none;html=1;rounded=0;" parent="1" edge="1">
          <mxGeometry width="50" height="50" relative="1" as="geometry">
            <mxPoint x="380" y="440" as="sourcePoint" />
            <mxPoint x="380" y="140" as="targetPoint" />
          </mxGeometry>
        </mxCell>
        <mxCell id="Z2UQ1NLI5xHAPpkqRTM9-31" value="" style="endArrow=none;html=1;rounded=0;entryX=0;entryY=0.5;entryDx=0;entryDy=0;" parent="1" target="Z2UQ1NLI5xHAPpkqRTM9-14" edge="1">
          <mxGeometry width="50" height="50" relative="1" as="geometry">
            <mxPoint x="380" y="440" as="sourcePoint" />
            <mxPoint x="340" y="440" as="targetPoint" />
          </mxGeometry>
        </mxCell>
        <mxCell id="Z2UQ1NLI5xHAPpkqRTM9-32" value="" style="endArrow=none;html=1;rounded=0;entryX=0;entryY=0.5;entryDx=0;entryDy=0;" parent="1" target="Z2UQ1NLI5xHAPpkqRTM9-12" edge="1">
          <mxGeometry width="50" height="50" relative="1" as="geometry">
            <mxPoint x="380" y="390" as="sourcePoint" />
            <mxPoint x="330" y="410" as="targetPoint" />
          </mxGeometry>
        </mxCell>
        <mxCell id="Z2UQ1NLI5xHAPpkqRTM9-33" value="" style="endArrow=none;html=1;rounded=0;entryX=0;entryY=0.5;entryDx=0;entryDy=0;" parent="1" target="Z2UQ1NLI5xHAPpkqRTM9-10" edge="1">
          <mxGeometry width="50" height="50" relative="1" as="geometry">
            <mxPoint x="380" y="340" as="sourcePoint" />
            <mxPoint x="320" y="350" as="targetPoint" />
          </mxGeometry>
        </mxCell>
        <mxCell id="Z2UQ1NLI5xHAPpkqRTM9-34" value="" style="endArrow=none;html=1;rounded=0;entryX=0;entryY=0.5;entryDx=0;entryDy=0;" parent="1" target="Z2UQ1NLI5xHAPpkqRTM9-8" edge="1">
          <mxGeometry width="50" height="50" relative="1" as="geometry">
            <mxPoint x="380" y="290" as="sourcePoint" />
            <mxPoint x="260" y="380" as="targetPoint" />
          </mxGeometry>
        </mxCell>
        <mxCell id="Z2UQ1NLI5xHAPpkqRTM9-35" value="" style="endArrow=none;html=1;rounded=0;entryX=0;entryY=0.5;entryDx=0;entryDy=0;" parent="1" target="Z2UQ1NLI5xHAPpkqRTM9-6" edge="1">
          <mxGeometry width="50" height="50" relative="1" as="geometry">
            <mxPoint x="380" y="240" as="sourcePoint" />
            <mxPoint x="330" y="190" as="targetPoint" />
          </mxGeometry>
        </mxCell>
        <mxCell id="Z2UQ1NLI5xHAPpkqRTM9-36" value="" style="endArrow=none;html=1;rounded=0;entryX=0;entryY=0.5;entryDx=0;entryDy=0;" parent="1" target="Z2UQ1NLI5xHAPpkqRTM9-4" edge="1">
          <mxGeometry width="50" height="50" relative="1" as="geometry">
            <mxPoint x="380" y="190" as="sourcePoint" />
            <mxPoint x="340" y="180" as="targetPoint" />
          </mxGeometry>
        </mxCell>
        <mxCell id="Z2UQ1NLI5xHAPpkqRTM9-37" value="" style="endArrow=none;html=1;rounded=0;entryX=0;entryY=0.5;entryDx=0;entryDy=0;" parent="1" target="Z2UQ1NLI5xHAPpkqRTM9-2" edge="1">
          <mxGeometry width="50" height="50" relative="1" as="geometry">
            <mxPoint x="380" y="140" as="sourcePoint" />
            <mxPoint x="350" y="160" as="targetPoint" />
          </mxGeometry>
        </mxCell>
        <mxCell id="Z2UQ1NLI5xHAPpkqRTM9-38" value="" style="endArrow=none;html=1;rounded=0;" parent="1" source="Z2UQ1NLI5xHAPpkqRTM9-17" edge="1">
          <mxGeometry width="50" height="50" relative="1" as="geometry">
            <mxPoint x="250" y="400" as="sourcePoint" />
            <mxPoint x="380" y="290" as="targetPoint" />
          </mxGeometry>
        </mxCell>
        <mxCell id="Z2UQ1NLI5xHAPpkqRTM9-39" value="" style="endArrow=none;html=1;rounded=0;" parent="1" edge="1">
          <mxGeometry width="50" height="50" relative="1" as="geometry">
            <mxPoint x="380" y="690" as="sourcePoint" />
            <mxPoint x="380" y="540" as="targetPoint" />
          </mxGeometry>
        </mxCell>
        <mxCell id="Z2UQ1NLI5xHAPpkqRTM9-40" value="" style="endArrow=none;html=1;rounded=0;entryX=0;entryY=0.5;entryDx=0;entryDy=0;" parent="1" target="Z2UQ1NLI5xHAPpkqRTM9-27" edge="1">
          <mxGeometry width="50" height="50" relative="1" as="geometry">
            <mxPoint x="380" y="690" as="sourcePoint" />
            <mxPoint x="380" y="670" as="targetPoint" />
          </mxGeometry>
        </mxCell>
        <mxCell id="Z2UQ1NLI5xHAPpkqRTM9-41" value="" style="endArrow=none;html=1;rounded=0;entryX=0;entryY=0.5;entryDx=0;entryDy=0;" parent="1" target="Z2UQ1NLI5xHAPpkqRTM9-21" edge="1">
          <mxGeometry width="50" height="50" relative="1" as="geometry">
            <mxPoint x="380" y="540" as="sourcePoint" />
            <mxPoint x="330" y="520" as="targetPoint" />
          </mxGeometry>
        </mxCell>
        <mxCell id="Z2UQ1NLI5xHAPpkqRTM9-42" value="" style="endArrow=none;html=1;rounded=0;entryX=0;entryY=0.5;entryDx=0;entryDy=0;" parent="1" target="Z2UQ1NLI5xHAPpkqRTM9-23" edge="1">
          <mxGeometry width="50" height="50" relative="1" as="geometry">
            <mxPoint x="380" y="590" as="sourcePoint" />
            <mxPoint x="330" y="550" as="targetPoint" />
          </mxGeometry>
        </mxCell>
        <mxCell id="Z2UQ1NLI5xHAPpkqRTM9-43" value="" style="endArrow=none;html=1;rounded=0;entryX=0;entryY=0.5;entryDx=0;entryDy=0;" parent="1" target="Z2UQ1NLI5xHAPpkqRTM9-25" edge="1">
          <mxGeometry width="50" height="50" relative="1" as="geometry">
            <mxPoint x="380" y="640" as="sourcePoint" />
            <mxPoint x="340" y="660" as="targetPoint" />
          </mxGeometry>
        </mxCell>
        <mxCell id="Z2UQ1NLI5xHAPpkqRTM9-44" value="" style="endArrow=none;html=1;rounded=0;exitX=1;exitY=0.5;exitDx=0;exitDy=0;" parent="1" source="Z2UQ1NLI5xHAPpkqRTM9-29" edge="1">
          <mxGeometry width="50" height="50" relative="1" as="geometry">
            <mxPoint x="130" y="640" as="sourcePoint" />
            <mxPoint x="380" y="619" as="targetPoint" />
          </mxGeometry>
        </mxCell>
        <mxCell id="Z2UQ1NLI5xHAPpkqRTM9-45" value="" style="rounded=0;whiteSpace=wrap;html=1;shadow=0;" parent="1" vertex="1">
          <mxGeometry x="-100" y="180" width="200" height="100" as="geometry" />
        </mxCell>
        <mxCell id="Z2UQ1NLI5xHAPpkqRTM9-46" value="&lt;font style=&quot;font-size: 15px;&quot; face=&quot;Comic Sans MS&quot;&gt;Penemuan Masalah&lt;br&gt;KKSP belum memiliki&lt;br&gt;sebuah Website&lt;br&gt;&lt;/font&gt;" style="text;strokeColor=none;align=center;fillColor=none;html=1;verticalAlign=middle;whiteSpace=wrap;rounded=0;" parent="1" vertex="1">
          <mxGeometry x="-100" y="180" width="200" height="100" as="geometry" />
        </mxCell>
        <mxCell id="Z2UQ1NLI5xHAPpkqRTM9-47" value="" style="rounded=0;whiteSpace=wrap;html=1;shadow=0;" parent="1" vertex="1">
          <mxGeometry x="-100" y="320" width="200" height="60" as="geometry" />
        </mxCell>
        <mxCell id="Z2UQ1NLI5xHAPpkqRTM9-48" value="&lt;font style=&quot;font-size: 15px;&quot; face=&quot;Comic Sans MS&quot;&gt;Perancangan Website&lt;/font&gt;" style="text;strokeColor=none;align=center;fillColor=none;html=1;verticalAlign=middle;whiteSpace=wrap;rounded=0;" parent="1" vertex="1">
          <mxGeometry x="-100" y="320" width="200" height="60" as="geometry" />
        </mxCell>
        <mxCell id="Z2UQ1NLI5xHAPpkqRTM9-49" value="" style="rounded=0;whiteSpace=wrap;html=1;shadow=0;" parent="1" vertex="1">
          <mxGeometry x="-100" y="420" width="200" height="100" as="geometry" />
        </mxCell>
        <mxCell id="Z2UQ1NLI5xHAPpkqRTM9-50" value="&lt;font style=&quot;font-size: 15px;&quot; face=&quot;Comic Sans MS&quot;&gt;Pengkodingan&lt;br&gt;:&lt;br&gt;Menggunakan&lt;br&gt;HTML, CSS dan SDLC&lt;br&gt;&lt;/font&gt;" style="text;strokeColor=none;align=center;fillColor=none;html=1;verticalAlign=middle;whiteSpace=wrap;rounded=0;" parent="1" vertex="1">
          <mxGeometry x="-100" y="420" width="200" height="100" as="geometry" />
        </mxCell>
        <mxCell id="Z2UQ1NLI5xHAPpkqRTM9-51" value="&lt;font face=&quot;Comic Sans MS&quot; style=&quot;font-size: 15px;&quot;&gt;UJI COBA&lt;/font&gt;" style="rhombus;whiteSpace=wrap;html=1;" parent="1" vertex="1">
          <mxGeometry x="-100" y="559" width="200" height="121" as="geometry" />
        </mxCell>
        <mxCell id="Z2UQ1NLI5xHAPpkqRTM9-52" value="" style="rounded=0;whiteSpace=wrap;html=1;shadow=0;" parent="1" vertex="1">
          <mxGeometry x="-100" y="720" width="200" height="60" as="geometry" />
        </mxCell>
        <mxCell id="Z2UQ1NLI5xHAPpkqRTM9-53" value="&lt;font style=&quot;font-size: 15px;&quot; face=&quot;Comic Sans MS&quot;&gt;Domain dan Hosting&lt;/font&gt;" style="text;strokeColor=none;align=center;fillColor=none;html=1;verticalAlign=middle;whiteSpace=wrap;rounded=0;" parent="1" vertex="1">
          <mxGeometry x="-100" y="720" width="200" height="60" as="geometry" />
        </mxCell>
        <mxCell id="Z2UQ1NLI5xHAPpkqRTM9-54" value="" style="rounded=0;whiteSpace=wrap;html=1;shadow=0;" parent="1" vertex="1">
          <mxGeometry x="-60" y="819" width="120" height="60" as="geometry" />
        </mxCell>
        <mxCell id="Z2UQ1NLI5xHAPpkqRTM9-55" value="&lt;font style=&quot;font-size: 15px;&quot; face=&quot;Comic Sans MS&quot;&gt;UPLOAD&lt;/font&gt;" style="text;strokeColor=none;align=center;fillColor=none;html=1;verticalAlign=middle;whiteSpace=wrap;rounded=0;" parent="1" vertex="1">
          <mxGeometry x="-60" y="819" width="120" height="60" as="geometry" />
        </mxCell>
        <mxCell id="Z2UQ1NLI5xHAPpkqRTM9-56" value="" style="rounded=0;whiteSpace=wrap;html=1;shadow=0;" parent="1" vertex="1">
          <mxGeometry x="240" y="819" width="200" height="60" as="geometry" />
        </mxCell>
        <mxCell id="Z2UQ1NLI5xHAPpkqRTM9-57" value="&lt;font style=&quot;font-size: 15px;&quot; face=&quot;Comic Sans MS&quot;&gt;Domain dan Hosting&lt;/font&gt;" style="text;strokeColor=none;align=center;fillColor=none;html=1;verticalAlign=middle;whiteSpace=wrap;rounded=0;" parent="1" vertex="1">
          <mxGeometry x="240" y="819" width="200" height="60" as="geometry" />
        </mxCell>
        <mxCell id="Z2UQ1NLI5xHAPpkqRTM9-58" value="" style="endArrow=none;html=1;rounded=0;entryX=0.5;entryY=1;entryDx=0;entryDy=0;exitX=0.5;exitY=0;exitDx=0;exitDy=0;" parent="1" source="Z2UQ1NLI5xHAPpkqRTM9-46" target="tBaJ72p9n-BHeZPeT2eM-2" edge="1">
          <mxGeometry width="50" height="50" relative="1" as="geometry">
            <mxPoint x="-200" y="230" as="sourcePoint" />
            <mxPoint x="-150" y="180" as="targetPoint" />
          </mxGeometry>
        </mxCell>
        <mxCell id="Z2UQ1NLI5xHAPpkqRTM9-59" value="" style="endArrow=none;html=1;rounded=0;entryX=0.5;entryY=1;entryDx=0;entryDy=0;exitX=0.5;exitY=0;exitDx=0;exitDy=0;" parent="1" source="Z2UQ1NLI5xHAPpkqRTM9-48" target="Z2UQ1NLI5xHAPpkqRTM9-46" edge="1">
          <mxGeometry width="50" height="50" relative="1" as="geometry">
            <mxPoint x="-210" y="410" as="sourcePoint" />
            <mxPoint x="-160" y="360" as="targetPoint" />
          </mxGeometry>
        </mxCell>
        <mxCell id="Z2UQ1NLI5xHAPpkqRTM9-60" value="" style="endArrow=none;html=1;rounded=0;entryX=0.5;entryY=1;entryDx=0;entryDy=0;exitX=0.5;exitY=0;exitDx=0;exitDy=0;" parent="1" source="Z2UQ1NLI5xHAPpkqRTM9-50" target="Z2UQ1NLI5xHAPpkqRTM9-48" edge="1">
          <mxGeometry width="50" height="50" relative="1" as="geometry">
            <mxPoint x="-180" y="480" as="sourcePoint" />
            <mxPoint x="-130" y="430" as="targetPoint" />
          </mxGeometry>
        </mxCell>
        <mxCell id="Z2UQ1NLI5xHAPpkqRTM9-61" value="" style="endArrow=classic;html=1;rounded=0;exitX=0.5;exitY=1;exitDx=0;exitDy=0;entryX=0.5;entryY=0;entryDx=0;entryDy=0;" parent="1" source="Z2UQ1NLI5xHAPpkqRTM9-50" target="Z2UQ1NLI5xHAPpkqRTM9-51" edge="1">
          <mxGeometry width="50" height="50" relative="1" as="geometry">
            <mxPoint x="-140" y="650" as="sourcePoint" />
            <mxPoint x="-90" y="600" as="targetPoint" />
          </mxGeometry>
        </mxCell>
        <mxCell id="Z2UQ1NLI5xHAPpkqRTM9-62" value="" style="endArrow=classic;html=1;rounded=0;exitX=0.5;exitY=1;exitDx=0;exitDy=0;entryX=0.5;entryY=0;entryDx=0;entryDy=0;" parent="1" source="Z2UQ1NLI5xHAPpkqRTM9-51" target="Z2UQ1NLI5xHAPpkqRTM9-53" edge="1">
          <mxGeometry width="50" height="50" relative="1" as="geometry">
            <mxPoint x="-210" y="730" as="sourcePoint" />
            <mxPoint x="-160" y="680" as="targetPoint" />
          </mxGeometry>
        </mxCell>
        <mxCell id="Z2UQ1NLI5xHAPpkqRTM9-63" value="" style="endArrow=classic;html=1;rounded=0;exitX=0.5;exitY=1;exitDx=0;exitDy=0;entryX=0.5;entryY=0;entryDx=0;entryDy=0;" parent="1" source="Z2UQ1NLI5xHAPpkqRTM9-53" target="Z2UQ1NLI5xHAPpkqRTM9-55" edge="1">
          <mxGeometry width="50" height="50" relative="1" as="geometry">
            <mxPoint x="-250" y="800" as="sourcePoint" />
            <mxPoint x="-200" y="750" as="targetPoint" />
          </mxGeometry>
        </mxCell>
        <mxCell id="Z2UQ1NLI5xHAPpkqRTM9-64" value="" style="endArrow=classic;html=1;rounded=0;exitX=1;exitY=0.5;exitDx=0;exitDy=0;entryX=0;entryY=0.5;entryDx=0;entryDy=0;" parent="1" source="Z2UQ1NLI5xHAPpkqRTM9-55" target="Z2UQ1NLI5xHAPpkqRTM9-57" edge="1">
          <mxGeometry width="50" height="50" relative="1" as="geometry">
            <mxPoint x="120" y="860" as="sourcePoint" />
            <mxPoint x="170" y="810" as="targetPoint" />
          </mxGeometry>
        </mxCell>
        <mxCell id="Z2UQ1NLI5xHAPpkqRTM9-65" value="" style="endArrow=classic;html=1;rounded=0;exitX=1;exitY=0.5;exitDx=0;exitDy=0;entryX=1;entryY=0.5;entryDx=0;entryDy=0;" parent="1" source="Z2UQ1NLI5xHAPpkqRTM9-51" target="Z2UQ1NLI5xHAPpkqRTM9-50" edge="1">
          <mxGeometry width="50" height="50" relative="1" as="geometry">
            <mxPoint x="120" y="630" as="sourcePoint" />
            <mxPoint x="170" y="580" as="targetPoint" />
            <Array as="points">
              <mxPoint x="160" y="620" />
              <mxPoint x="160" y="540" />
              <mxPoint x="160" y="470" />
            </Array>
          </mxGeometry>
        </mxCell>
        <mxCell id="Z2UQ1NLI5xHAPpkqRTM9-66" value="" style="endArrow=classic;html=1;rounded=0;exitX=0;exitY=0.5;exitDx=0;exitDy=0;entryX=0;entryY=0.5;entryDx=0;entryDy=0;" parent="1" source="Z2UQ1NLI5xHAPpkqRTM9-50" target="Z2UQ1NLI5xHAPpkqRTM9-51" edge="1">
          <mxGeometry width="50" height="50" relative="1" as="geometry">
            <mxPoint x="-280" y="550" as="sourcePoint" />
            <mxPoint x="-230" y="500" as="targetPoint" />
            <Array as="points">
              <mxPoint x="-160" y="470" />
              <mxPoint x="-160" y="550" />
              <mxPoint x="-160" y="619" />
            </Array>
          </mxGeometry>
        </mxCell>
        <mxCell id="Z2UQ1NLI5xHAPpkqRTM9-67" value="" style="endArrow=none;html=1;rounded=0;exitX=1;exitY=0.5;exitDx=0;exitDy=0;" parent="1" source="Z2UQ1NLI5xHAPpkqRTM9-48" edge="1">
          <mxGeometry width="50" height="50" relative="1" as="geometry">
            <mxPoint x="210" y="390" as="sourcePoint" />
            <mxPoint x="200" y="350" as="targetPoint" />
          </mxGeometry>
        </mxCell>
        <mxCell id="Z2UQ1NLI5xHAPpkqRTM9-68" value="" style="endArrow=none;html=1;rounded=0;" parent="1" edge="1">
          <mxGeometry width="50" height="50" relative="1" as="geometry">
            <mxPoint x="200" y="620" as="sourcePoint" />
            <mxPoint x="200" y="290" as="targetPoint" />
          </mxGeometry>
        </mxCell>
        <mxCell id="Z2UQ1NLI5xHAPpkqRTM9-69" value="" style="endArrow=none;html=1;rounded=0;entryX=0;entryY=0.5;entryDx=0;entryDy=0;" parent="1" target="Z2UQ1NLI5xHAPpkqRTM9-17" edge="1">
          <mxGeometry width="50" height="50" relative="1" as="geometry">
            <mxPoint x="200" y="290" as="sourcePoint" />
            <mxPoint x="290" y="360" as="targetPoint" />
          </mxGeometry>
        </mxCell>
        <mxCell id="Z2UQ1NLI5xHAPpkqRTM9-70" value="" style="endArrow=none;html=1;rounded=0;entryX=0;entryY=0.5;entryDx=0;entryDy=0;" parent="1" target="Z2UQ1NLI5xHAPpkqRTM9-29" edge="1">
          <mxGeometry width="50" height="50" relative="1" as="geometry">
            <mxPoint x="200" y="619" as="sourcePoint" />
            <mxPoint x="310" y="500" as="targetPoint" />
          </mxGeometry>
        </mxCell>
        <mxCell id="Z2UQ1NLI5xHAPpkqRTM9-71" value="" style="rounded=0;whiteSpace=wrap;html=1;shadow=0;" parent="1" vertex="1">
          <mxGeometry x="-580" y="120" width="160" height="40" as="geometry" />
        </mxCell>
        <mxCell id="Z2UQ1NLI5xHAPpkqRTM9-72" value="&lt;font face=&quot;Comic Sans MS&quot;&gt;Visi Misi&lt;/font&gt;" style="text;strokeColor=none;align=center;fillColor=none;html=1;verticalAlign=middle;whiteSpace=wrap;rounded=0;" parent="1" vertex="1">
          <mxGeometry x="-580" y="120" width="160" height="40" as="geometry" />
        </mxCell>
        <mxCell id="Z2UQ1NLI5xHAPpkqRTM9-73" value="" style="rounded=0;whiteSpace=wrap;html=1;shadow=0;" parent="1" vertex="1">
          <mxGeometry x="-580" y="170" width="160" height="40" as="geometry" />
        </mxCell>
        <mxCell id="Z2UQ1NLI5xHAPpkqRTM9-74" value="&lt;font face=&quot;Comic Sans MS&quot;&gt;Sejarah&lt;/font&gt;" style="text;strokeColor=none;align=center;fillColor=none;html=1;verticalAlign=middle;whiteSpace=wrap;rounded=0;" parent="1" vertex="1">
          <mxGeometry x="-580" y="170" width="160" height="40" as="geometry" />
        </mxCell>
        <mxCell id="Z2UQ1NLI5xHAPpkqRTM9-75" value="" style="rounded=0;whiteSpace=wrap;html=1;shadow=0;" parent="1" vertex="1">
          <mxGeometry x="-580" y="220" width="160" height="40" as="geometry" />
        </mxCell>
        <mxCell id="Z2UQ1NLI5xHAPpkqRTM9-76" value="&lt;font face=&quot;Comic Sans MS&quot;&gt;Budaya Kerja&lt;/font&gt;" style="text;strokeColor=none;align=center;fillColor=none;html=1;verticalAlign=middle;whiteSpace=wrap;rounded=0;" parent="1" vertex="1">
          <mxGeometry x="-580" y="220" width="160" height="40" as="geometry" />
        </mxCell>
        <mxCell id="Z2UQ1NLI5xHAPpkqRTM9-77" value="" style="rounded=0;whiteSpace=wrap;html=1;shadow=0;" parent="1" vertex="1">
          <mxGeometry x="-580" y="270" width="160" height="40" as="geometry" />
        </mxCell>
        <mxCell id="Z2UQ1NLI5xHAPpkqRTM9-78" value="&lt;font face=&quot;Comic Sans MS&quot;&gt;Struktur&lt;/font&gt;" style="text;strokeColor=none;align=center;fillColor=none;html=1;verticalAlign=middle;whiteSpace=wrap;rounded=0;" parent="1" vertex="1">
          <mxGeometry x="-580" y="270" width="160" height="40" as="geometry" />
        </mxCell>
        <mxCell id="Z2UQ1NLI5xHAPpkqRTM9-79" value="" style="rounded=0;whiteSpace=wrap;html=1;shadow=0;" parent="1" vertex="1">
          <mxGeometry x="-580" y="320" width="160" height="40" as="geometry" />
        </mxCell>
        <mxCell id="Z2UQ1NLI5xHAPpkqRTM9-80" value="&lt;font face=&quot;Comic Sans MS&quot;&gt;Manajemen&lt;/font&gt;" style="text;strokeColor=none;align=center;fillColor=none;html=1;verticalAlign=middle;whiteSpace=wrap;rounded=0;" parent="1" vertex="1">
          <mxGeometry x="-580" y="320" width="160" height="40" as="geometry" />
        </mxCell>
        <mxCell id="Z2UQ1NLI5xHAPpkqRTM9-81" value="" style="rounded=0;whiteSpace=wrap;html=1;shadow=0;" parent="1" vertex="1">
          <mxGeometry x="-580" y="370" width="160" height="40" as="geometry" />
        </mxCell>
        <mxCell id="Z2UQ1NLI5xHAPpkqRTM9-82" value="&lt;font face=&quot;Comic Sans MS&quot;&gt;KKSP Member&lt;/font&gt;" style="text;strokeColor=none;align=center;fillColor=none;html=1;verticalAlign=middle;whiteSpace=wrap;rounded=0;" parent="1" vertex="1">
          <mxGeometry x="-580" y="370" width="160" height="40" as="geometry" />
        </mxCell>
        <mxCell id="Z2UQ1NLI5xHAPpkqRTM9-83" value="" style="rounded=0;whiteSpace=wrap;html=1;shadow=0;" parent="1" vertex="1">
          <mxGeometry x="-580" y="469" width="160" height="40" as="geometry" />
        </mxCell>
        <mxCell id="Z2UQ1NLI5xHAPpkqRTM9-84" value="&lt;font face=&quot;Comic Sans MS&quot;&gt;Tenaga Kerja&lt;/font&gt;" style="text;strokeColor=none;align=center;fillColor=none;html=1;verticalAlign=middle;whiteSpace=wrap;rounded=0;" parent="1" vertex="1">
          <mxGeometry x="-580" y="469" width="160" height="40" as="geometry" />
        </mxCell>
        <mxCell id="Z2UQ1NLI5xHAPpkqRTM9-85" value="" style="rounded=0;whiteSpace=wrap;html=1;shadow=0;" parent="1" vertex="1">
          <mxGeometry x="-580" y="519" width="160" height="40" as="geometry" />
        </mxCell>
        <mxCell id="Z2UQ1NLI5xHAPpkqRTM9-86" value="&lt;font face=&quot;Comic Sans MS&quot;&gt;Serikat Pekerja KKSP&lt;/font&gt;" style="text;strokeColor=none;align=center;fillColor=none;html=1;verticalAlign=middle;whiteSpace=wrap;rounded=0;" parent="1" vertex="1">
          <mxGeometry x="-580" y="519" width="160" height="40" as="geometry" />
        </mxCell>
        <mxCell id="Z2UQ1NLI5xHAPpkqRTM9-87" value="" style="rounded=0;whiteSpace=wrap;html=1;shadow=0;" parent="1" vertex="1">
          <mxGeometry x="-580" y="569" width="160" height="40" as="geometry" />
        </mxCell>
        <mxCell id="Z2UQ1NLI5xHAPpkqRTM9-88" value="&lt;font face=&quot;Comic Sans MS&quot;&gt;Karir&lt;/font&gt;" style="text;strokeColor=none;align=center;fillColor=none;html=1;verticalAlign=middle;whiteSpace=wrap;rounded=0;" parent="1" vertex="1">
          <mxGeometry x="-580" y="569" width="160" height="40" as="geometry" />
        </mxCell>
        <mxCell id="Z2UQ1NLI5xHAPpkqRTM9-89" value="" style="rounded=0;whiteSpace=wrap;html=1;shadow=0;" parent="1" vertex="1">
          <mxGeometry x="-720" y="628" width="160" height="40" as="geometry" />
        </mxCell>
        <mxCell id="Z2UQ1NLI5xHAPpkqRTM9-90" value="&lt;font face=&quot;Comic Sans MS&quot;&gt;Lowongan Kerja&lt;/font&gt;" style="text;strokeColor=none;align=center;fillColor=none;html=1;verticalAlign=middle;whiteSpace=wrap;rounded=0;" parent="1" vertex="1">
          <mxGeometry x="-720" y="628" width="160" height="40" as="geometry" />
        </mxCell>
        <mxCell id="Z2UQ1NLI5xHAPpkqRTM9-91" value="" style="rounded=0;whiteSpace=wrap;html=1;shadow=0;" parent="1" vertex="1">
          <mxGeometry x="-580" y="720" width="160" height="40" as="geometry" />
        </mxCell>
        <mxCell id="Z2UQ1NLI5xHAPpkqRTM9-92" value="&lt;font face=&quot;Comic Sans MS&quot;&gt;Program CSR&lt;/font&gt;" style="text;strokeColor=none;align=center;fillColor=none;html=1;verticalAlign=middle;whiteSpace=wrap;rounded=0;" parent="1" vertex="1">
          <mxGeometry x="-580" y="720" width="160" height="40" as="geometry" />
        </mxCell>
        <mxCell id="Z2UQ1NLI5xHAPpkqRTM9-93" value="" style="endArrow=none;html=1;rounded=0;" parent="1" edge="1">
          <mxGeometry width="50" height="50" relative="1" as="geometry">
            <mxPoint x="-380" y="390" as="sourcePoint" />
            <mxPoint x="-380" y="140" as="targetPoint" />
          </mxGeometry>
        </mxCell>
        <mxCell id="Z2UQ1NLI5xHAPpkqRTM9-94" value="" style="endArrow=none;html=1;rounded=0;" parent="1" edge="1">
          <mxGeometry width="50" height="50" relative="1" as="geometry">
            <mxPoint x="-380" y="590" as="sourcePoint" />
            <mxPoint x="-380" y="490" as="targetPoint" />
          </mxGeometry>
        </mxCell>
        <mxCell id="Z2UQ1NLI5xHAPpkqRTM9-95" value="" style="endArrow=none;html=1;rounded=0;exitX=0.5;exitY=0;exitDx=0;exitDy=0;entryX=0;entryY=0.5;entryDx=0;entryDy=0;" parent="1" source="Z2UQ1NLI5xHAPpkqRTM9-90" target="Z2UQ1NLI5xHAPpkqRTM9-88" edge="1">
          <mxGeometry width="50" height="50" relative="1" as="geometry">
            <mxPoint x="-710" y="548" as="sourcePoint" />
            <mxPoint x="-640" y="588" as="targetPoint" />
            <Array as="points">
              <mxPoint x="-640" y="589" />
            </Array>
          </mxGeometry>
        </mxCell>
        <mxCell id="Z2UQ1NLI5xHAPpkqRTM9-96" value="" style="rounded=0;whiteSpace=wrap;html=1;shadow=0;" parent="1" vertex="1">
          <mxGeometry x="-340" y="220" width="99" height="40" as="geometry" />
        </mxCell>
        <mxCell id="Z2UQ1NLI5xHAPpkqRTM9-97" value="&lt;font style=&quot;font-size: 13px;&quot; face=&quot;Comic Sans MS&quot;&gt;Tentang Kami&lt;/font&gt;" style="text;strokeColor=none;align=center;fillColor=none;html=1;verticalAlign=middle;whiteSpace=wrap;rounded=0;" parent="1" vertex="1">
          <mxGeometry x="-340" y="220" width="99" height="40" as="geometry" />
        </mxCell>
        <mxCell id="Z2UQ1NLI5xHAPpkqRTM9-98" value="" style="rounded=0;whiteSpace=wrap;html=1;shadow=0;" parent="1" vertex="1">
          <mxGeometry x="-340" y="519" width="99" height="40" as="geometry" />
        </mxCell>
        <mxCell id="Z2UQ1NLI5xHAPpkqRTM9-99" value="&lt;font style=&quot;font-size: 13px;&quot; face=&quot;Comic Sans MS&quot;&gt;SDM&lt;/font&gt;" style="text;strokeColor=none;align=center;fillColor=none;html=1;verticalAlign=middle;whiteSpace=wrap;rounded=0;" parent="1" vertex="1">
          <mxGeometry x="-340" y="519" width="99" height="40" as="geometry" />
        </mxCell>
        <mxCell id="Z2UQ1NLI5xHAPpkqRTM9-100" value="" style="rounded=0;whiteSpace=wrap;html=1;shadow=0;" parent="1" vertex="1">
          <mxGeometry x="-340" y="720" width="99" height="40" as="geometry" />
        </mxCell>
        <mxCell id="Z2UQ1NLI5xHAPpkqRTM9-101" value="&lt;font style=&quot;font-size: 13px;&quot; face=&quot;Comic Sans MS&quot;&gt;CSR&lt;/font&gt;" style="text;strokeColor=none;align=center;fillColor=none;html=1;verticalAlign=middle;whiteSpace=wrap;rounded=0;" parent="1" vertex="1">
          <mxGeometry x="-340" y="720" width="99" height="40" as="geometry" />
        </mxCell>
        <mxCell id="Z2UQ1NLI5xHAPpkqRTM9-102" value="" style="endArrow=none;html=1;rounded=0;exitX=1;exitY=0.5;exitDx=0;exitDy=0;entryX=0;entryY=0.5;entryDx=0;entryDy=0;" parent="1" source="Z2UQ1NLI5xHAPpkqRTM9-92" target="Z2UQ1NLI5xHAPpkqRTM9-101" edge="1">
          <mxGeometry width="50" height="50" relative="1" as="geometry">
            <mxPoint x="-390" y="720" as="sourcePoint" />
            <mxPoint x="-340" y="670" as="targetPoint" />
          </mxGeometry>
        </mxCell>
        <mxCell id="Z2UQ1NLI5xHAPpkqRTM9-103" value="" style="endArrow=none;html=1;rounded=0;entryX=0;entryY=0.5;entryDx=0;entryDy=0;exitX=1;exitY=0.5;exitDx=0;exitDy=0;" parent="1" source="Z2UQ1NLI5xHAPpkqRTM9-86" target="Z2UQ1NLI5xHAPpkqRTM9-99" edge="1">
          <mxGeometry width="50" height="50" relative="1" as="geometry">
            <mxPoint x="-370" y="660" as="sourcePoint" />
            <mxPoint x="-320" y="610" as="targetPoint" />
          </mxGeometry>
        </mxCell>
        <mxCell id="Z2UQ1NLI5xHAPpkqRTM9-104" value="" style="endArrow=none;html=1;rounded=0;exitX=1;exitY=0.5;exitDx=0;exitDy=0;entryX=0;entryY=0.5;entryDx=0;entryDy=0;" parent="1" source="Z2UQ1NLI5xHAPpkqRTM9-76" target="Z2UQ1NLI5xHAPpkqRTM9-97" edge="1">
          <mxGeometry width="50" height="50" relative="1" as="geometry">
            <mxPoint x="-320" y="400" as="sourcePoint" />
            <mxPoint x="-270" y="350" as="targetPoint" />
          </mxGeometry>
        </mxCell>
        <mxCell id="Z2UQ1NLI5xHAPpkqRTM9-105" value="" style="endArrow=none;html=1;rounded=0;exitX=1;exitY=0.5;exitDx=0;exitDy=0;" parent="1" source="Z2UQ1NLI5xHAPpkqRTM9-72" edge="1">
          <mxGeometry width="50" height="50" relative="1" as="geometry">
            <mxPoint x="-330" y="200" as="sourcePoint" />
            <mxPoint x="-380" y="140" as="targetPoint" />
          </mxGeometry>
        </mxCell>
        <mxCell id="Z2UQ1NLI5xHAPpkqRTM9-106" value="" style="endArrow=none;html=1;rounded=0;exitX=1;exitY=0.5;exitDx=0;exitDy=0;" parent="1" source="Z2UQ1NLI5xHAPpkqRTM9-74" edge="1">
          <mxGeometry width="50" height="50" relative="1" as="geometry">
            <mxPoint x="-350" y="210" as="sourcePoint" />
            <mxPoint x="-380" y="190" as="targetPoint" />
          </mxGeometry>
        </mxCell>
        <mxCell id="Z2UQ1NLI5xHAPpkqRTM9-107" value="" style="endArrow=none;html=1;rounded=0;exitX=1;exitY=0.5;exitDx=0;exitDy=0;" parent="1" source="Z2UQ1NLI5xHAPpkqRTM9-78" edge="1">
          <mxGeometry width="50" height="50" relative="1" as="geometry">
            <mxPoint x="-320" y="380" as="sourcePoint" />
            <mxPoint x="-380" y="290" as="targetPoint" />
          </mxGeometry>
        </mxCell>
        <mxCell id="Z2UQ1NLI5xHAPpkqRTM9-108" value="" style="endArrow=none;html=1;rounded=0;exitX=1;exitY=0.5;exitDx=0;exitDy=0;" parent="1" source="Z2UQ1NLI5xHAPpkqRTM9-82" edge="1">
          <mxGeometry width="50" height="50" relative="1" as="geometry">
            <mxPoint x="-380" y="390" as="sourcePoint" />
            <mxPoint x="-380" y="390" as="targetPoint" />
          </mxGeometry>
        </mxCell>
        <mxCell id="Z2UQ1NLI5xHAPpkqRTM9-109" value="" style="endArrow=none;html=1;rounded=0;exitX=1;exitY=0.5;exitDx=0;exitDy=0;" parent="1" source="Z2UQ1NLI5xHAPpkqRTM9-80" edge="1">
          <mxGeometry width="50" height="50" relative="1" as="geometry">
            <mxPoint x="-320" y="360" as="sourcePoint" />
            <mxPoint x="-380" y="340" as="targetPoint" />
          </mxGeometry>
        </mxCell>
        <mxCell id="Z2UQ1NLI5xHAPpkqRTM9-110" value="" style="endArrow=none;html=1;rounded=0;exitX=1;exitY=0.5;exitDx=0;exitDy=0;" parent="1" source="Z2UQ1NLI5xHAPpkqRTM9-84" edge="1">
          <mxGeometry width="50" height="50" relative="1" as="geometry">
            <mxPoint x="-340" y="480" as="sourcePoint" />
            <mxPoint x="-380" y="490" as="targetPoint" />
          </mxGeometry>
        </mxCell>
        <mxCell id="Z2UQ1NLI5xHAPpkqRTM9-111" value="" style="endArrow=none;html=1;rounded=0;exitX=1;exitY=0.5;exitDx=0;exitDy=0;" parent="1" source="Z2UQ1NLI5xHAPpkqRTM9-88" edge="1">
          <mxGeometry width="50" height="50" relative="1" as="geometry">
            <mxPoint x="-380" y="630" as="sourcePoint" />
            <mxPoint x="-380" y="590" as="targetPoint" />
          </mxGeometry>
        </mxCell>
        <mxCell id="Z2UQ1NLI5xHAPpkqRTM9-112" value="" style="endArrow=none;html=1;rounded=0;" parent="1" edge="1">
          <mxGeometry width="50" height="50" relative="1" as="geometry">
            <mxPoint x="-200" y="740" as="sourcePoint" />
            <mxPoint x="-200" y="240" as="targetPoint" />
          </mxGeometry>
        </mxCell>
        <mxCell id="Z2UQ1NLI5xHAPpkqRTM9-113" value="" style="endArrow=none;html=1;rounded=0;exitX=1;exitY=0.5;exitDx=0;exitDy=0;" parent="1" source="Z2UQ1NLI5xHAPpkqRTM9-97" edge="1">
          <mxGeometry width="50" height="50" relative="1" as="geometry">
            <mxPoint x="-300" y="360" as="sourcePoint" />
            <mxPoint x="-200" y="240" as="targetPoint" />
          </mxGeometry>
        </mxCell>
        <mxCell id="Z2UQ1NLI5xHAPpkqRTM9-114" value="" style="endArrow=none;html=1;rounded=0;exitX=1;exitY=0.5;exitDx=0;exitDy=0;" parent="1" source="Z2UQ1NLI5xHAPpkqRTM9-99" edge="1">
          <mxGeometry width="50" height="50" relative="1" as="geometry">
            <mxPoint x="-310" y="660" as="sourcePoint" />
            <mxPoint x="-200" y="540" as="targetPoint" />
          </mxGeometry>
        </mxCell>
        <mxCell id="Z2UQ1NLI5xHAPpkqRTM9-115" value="" style="endArrow=none;html=1;rounded=0;exitX=1;exitY=0.5;exitDx=0;exitDy=0;" parent="1" source="Z2UQ1NLI5xHAPpkqRTM9-101" edge="1">
          <mxGeometry width="50" height="50" relative="1" as="geometry">
            <mxPoint x="-260" y="680" as="sourcePoint" />
            <mxPoint x="-200" y="740" as="targetPoint" />
          </mxGeometry>
        </mxCell>
        <mxCell id="Z2UQ1NLI5xHAPpkqRTM9-116" value="" style="endArrow=none;html=1;rounded=0;entryX=0;entryY=0.5;entryDx=0;entryDy=0;" parent="1" target="Z2UQ1NLI5xHAPpkqRTM9-48" edge="1">
          <mxGeometry width="50" height="50" relative="1" as="geometry">
            <mxPoint x="-200" y="350" as="sourcePoint" />
            <mxPoint x="-120" y="370" as="targetPoint" />
          </mxGeometry>
        </mxCell>
      </root>
    </mxGraphModel>
  </diagram>
</mxfile>
